<?xml version="1.0" encoding="UTF-8"?>
<svg version="1.1" xmlns="http://www.w3.org/2000/svg" width="174" height="183">
<path d="M0 0 C57.42 0 114.84 0 174 0 C174 60.39 174 120.78 174 183 C116.58 183 59.16 183 0 183 C0 122.61 0 62.22 0 0 Z " fill="#FEFEFE" transform="translate(0,0)"/>
<path d="M0 0 C8.94769256 5.26177742 14.09964397 12.35963747 17.9921875 21.9140625 C19.80233477 32.41291665 18.81019308 41.56683132 13.26171875 50.79296875 C9.99902487 55.4027266 6.23227173 59.2824895 1.6171875 62.5390625 C1.03066406 62.95414062 0.44414063 63.36921875 -0.16015625 63.796875 C-7.82459685 68.13752849 -17.88371612 67.72164158 -26.3828125 66.5390625 C-35.2263885 63.92228083 -42.81984801 58.31021157 -47.6875 50.42578125 C-48.68804084 48.48677692 -49.5671622 46.56203677 -50.3828125 44.5390625 C-50.91841797 43.39244141 -50.91841797 43.39244141 -51.46484375 42.22265625 C-54.24407517 34.0978393 -53.06639002 24.20328025 -49.3828125 16.5390625 C-44.86520784 7.43540463 -37.72475936 1.39183881 -28.3828125 -2.4609375 C-19.26849965 -5.49904178 -8.48860182 -4.11777704 0 0 Z " fill="#FDFDFD" transform="translate(104.3828125,24.4609375)"/>
<path d="M0 0 C12.18461454 6.82476288 20.48557344 16.64946759 24.875 29.91015625 C27.71709442 41.56649944 26.08239062 53.8462345 20.21875 64.296875 C18.52176448 66.84429491 16.71829795 69.19412893 14.76171875 71.546875 C14.1996875 72.25585938 13.63765625 72.96484375 13.05859375 73.6953125 C5.50385764 82.26829565 -6.03399205 86.89692482 -17.24609375 87.78515625 C-30.88597819 88.1099154 -42.36707286 83.6524539 -52.52734375 74.48046875 C-62.02398955 64.53922342 -65.65589922 52.25177754 -65.67944336 38.76098633 C-65.37004291 28.32023787 -61.13066091 19.27937059 -54.23828125 11.546875 C-53.52285156 10.65935547 -53.52285156 10.65935547 -52.79296875 9.75390625 C-40.12278874 -4.66717803 -16.98319201 -7.74137818 0 0 Z M-47.98828125 19.421875 C-54.87158247 28.98201559 -56.11027473 37.83908024 -55.23828125 49.546875 C-53.31962599 58.79012636 -47.10442077 66.08010219 -39.53515625 71.47265625 C-30.13639106 77.23008697 -21.09734942 77.79022817 -10.23828125 76.546875 C-0.54052423 73.66125123 6.50731967 67.6723188 11.57421875 59.046875 C15.90991968 50.56088141 17.21539174 42.01441413 15.109375 32.64453125 C11.6632586 22.09911927 5.44545368 14.8474457 -4.23828125 9.546875 C-4.82867187 9.2065625 -5.4190625 8.86625 -6.02734375 8.515625 C-21.10151856 1.3437709 -37.32091534 8.26962882 -47.98828125 19.421875 Z " fill="#696969" transform="translate(107.23828125,14.453125)"/>
<path d="M0 0 C1.27846046 -0.00855011 1.27846046 -0.00855011 2.58274841 -0.01727295 C4.38563811 -0.02669982 6.18854487 -0.03324772 7.99145508 -0.03710938 C10.71272025 -0.04675669 13.43321055 -0.07777752 16.15429688 -0.109375 C37.64843056 -0.2429088 53.64075374 5.61304761 69.515625 20.37109375 C79.1350422 30.15438518 87.18359375 45.2900606 87.18359375 59.203125 C83.88359375 59.203125 80.58359375 59.203125 77.18359375 59.203125 C76.84328125 57.8728125 76.84328125 57.8728125 76.49609375 56.515625 C71.96942462 41.13735179 64.97700129 27.16437723 50.54296875 19.140625 C49.15603279 18.40446568 47.76532299 17.67537616 46.37109375 16.953125 C45.71939209 16.61120117 45.06769043 16.26927734 44.39624023 15.91699219 C34.28236178 10.91922394 23.83280326 10.83024846 12.76245117 10.83251953 C10.38582316 10.82815207 8.01106618 10.79174621 5.63476562 10.75390625 C-11.89399928 10.62429532 -25.57789189 15.63567279 -38.4921875 27.71875 C-46.78910376 36.58738654 -51.21637591 47.50298849 -53.81640625 59.203125 C-57.11640625 59.203125 -60.41640625 59.203125 -63.81640625 59.203125 C-63.27291992 41.53981918 -53.88244216 27.4407295 -41.4375 15.48828125 C-29.68360923 5.2408504 -15.47659837 0.08105194 0 0 Z " fill="#6A6A6A" transform="translate(75.81640625,111.796875)"/>
</svg>
