<?xml version="1.0" encoding="UTF-8"?>
<svg version="1.1" xmlns="http://www.w3.org/2000/svg" width="171" height="162">
<path d="M0 0 C56.43 0 112.86 0 171 0 C171 53.46 171 106.92 171 162 C114.57 162 58.14 162 0 162 C0 108.54 0 55.08 0 0 Z " fill="#FDFDFD" transform="translate(0,0)"/>
<path d="M0 0 C56.43 0 112.86 0 171 0 C171 53.46 171 106.92 171 162 C114.57 162 58.14 162 0 162 C0 108.54 0 55.08 0 0 Z M18.28125 20.10546875 C13.28984156 27.21333224 10.60437342 34.17560344 10.3840332 42.87451172 C10.35433441 43.61729874 10.32463562 44.36008575 10.29403687 45.12538147 C10.19999355 47.55986981 10.12513417 49.99452488 10.05078125 52.4296875 C9.98889339 54.14637125 9.92590013 55.86301547 9.86186218 57.57962036 C9.73041453 61.17524658 9.60763826 64.77102037 9.49194336 68.3671875 C9.34533589 72.92363042 9.18456222 77.47941595 9.01801777 82.0351696 C8.85756725 86.43734561 8.70369692 90.83974422 8.55078125 95.2421875 C8.52210779 96.05686367 8.49343433 96.87153984 8.46389198 97.71090317 C8.16308443 106.39923507 7.93409001 115.08833152 7.85620117 123.78173828 C7.84360669 124.51561705 7.83101221 125.24949581 7.81803608 126.00561333 C7.7815672 135.26131611 10.97448095 143.89736301 17.52734375 150.55078125 C23.62245642 156.12069147 30.66289208 160.09526963 39.05825806 160.14717102 C40.25646683 160.15790398 40.25646683 160.15790398 41.47888184 160.16885376 C42.34646118 160.17154266 43.21404053 160.17423157 44.10791016 160.17700195 C45.48920609 160.18685875 45.48920609 160.18685875 46.89840698 160.19691467 C49.94529303 160.21662024 52.99212979 160.22830558 56.0390625 160.23828125 C57.08203869 160.24235678 58.12501488 160.2464323 59.19959641 160.25063133 C64.72241772 160.27148261 70.24521426 160.28578717 75.76806641 160.29516602 C81.45735395 160.30621495 87.14624873 160.34060033 92.83539772 160.38033772 C97.22277527 160.40655329 101.61006003 160.41486236 105.997509 160.41844749 C108.09375021 160.4233024 110.18998758 160.43488492 112.28615189 160.45348549 C115.22965341 160.47797686 118.17214928 160.47689335 121.11572266 160.4699707 C121.97115662 160.48278076 122.82659058 160.49559082 123.70794678 160.50878906 C132.92815919 160.43030246 140.48660315 157.25304925 147.1796875 150.92578125 C154.64821034 143.02453283 157.34955339 136.46334367 157.203125 125.61328125 C157.1960553 124.63498856 157.1889856 123.65669586 157.18170166 122.64875793 C157.01822801 107.59069582 156.4853447 92.53709589 155.93798828 77.48901367 C155.80943492 73.93165869 155.69184886 70.37418885 155.58349609 66.81616211 C155.45056728 62.45123212 155.29970841 58.08726576 155.13605499 53.72338295 C155.07734881 52.08232558 155.02467286 50.44103958 154.978508 48.79958153 C154.61820563 36.25861684 153.16398712 26.38219705 144.20703125 16.9765625 C136.18357011 9.79094952 126.87415969 7.69691656 116.37182617 7.70947266 C115.54952011 7.70275543 114.72721405 7.69603821 113.87998962 7.68911743 C111.1842531 7.67025073 108.48876703 7.66621903 105.79296875 7.6640625 C103.90261232 7.65762681 102.01225686 7.65089789 100.12190247 7.64389038 C96.16710096 7.631946 92.21238662 7.62820664 88.25756836 7.62939453 C83.2141365 7.62959758 78.17126899 7.60229705 73.1279707 7.56785011 C69.22521954 7.54550705 65.32260263 7.54155925 61.41979408 7.54261398 C59.56162891 7.54026911 57.7034594 7.53150905 55.84535789 7.51594925 C41.61376971 7.40792482 27.98018523 8.22427309 18.28125 20.10546875 Z " fill="#FDFDFD" transform="translate(0,0)"/>
<path d="M0 0 C1.23499237 -0.00744736 1.23499237 -0.00744736 2.49493408 -0.01504517 C5.21717164 -0.02964119 7.93935084 -0.03646594 10.66162109 -0.04199219 C12.56008912 -0.04774749 14.45855714 -0.05350517 16.35702515 -0.05926514 C20.33990753 -0.06976906 24.32276978 -0.07561513 28.30566406 -0.07910156 C33.38955088 -0.0845729 38.47316807 -0.10857437 43.5569706 -0.13707352 C47.4811173 -0.15577544 51.40520018 -0.16090959 55.32938766 -0.16243744 C57.20232994 -0.16544947 59.07527148 -0.17342859 60.94816971 -0.18662262 C75.55297234 -0.28213174 87.25927955 0.48247391 98.56396484 10.75488281 C107.28069582 20.01777488 107.51902247 31.37668542 107.85693359 43.39160156 C107.91701287 45.071042 107.9785869 46.75042956 108.04156494 48.42976379 C108.20248844 52.84106373 108.34103858 57.25280075 108.47540283 61.66497803 C108.58706196 65.20466086 108.71508558 68.74366033 108.84377289 72.28275871 C109.20434004 82.2014982 109.50305671 92.1207561 109.75430298 102.04283905 C109.80649622 104.02578931 109.86599346 106.00854354 109.92602539 107.99127197 C110.01899087 111.18985846 110.08481343 114.38745952 110.13818359 117.58691406 C110.18141754 118.89017891 110.18141754 118.89017891 110.2255249 120.21977234 C110.29656419 129.25906748 106.60703009 135.9622233 100.52099609 142.44628906 C93.83955749 149.1429821 86.08082985 152.57052957 76.58465576 152.70324707 C75.73864807 152.69515015 74.89264038 152.68705322 74.02099609 152.67871094 C73.09925598 152.68572021 72.17751587 152.69272949 71.22784424 152.69995117 C68.21326612 152.71740297 65.19964447 152.70595413 62.18505859 152.69238281 C60.07096173 152.69508141 57.95686608 152.69896688 55.84277344 152.70397949 C51.42484653 152.70985721 47.00724444 152.70136726 42.58935547 152.68261719 C36.94723653 152.65982897 31.3058789 152.67296131 25.66378784 152.69690704 C21.30210714 152.71141169 16.94060475 152.70673764 12.57891846 152.69639587 C10.49944975 152.69374148 8.41996447 152.69695265 6.34051514 152.70631409 C3.42628544 152.71655678 0.51326175 152.70087122 -2.40087891 152.67871094 C-3.2468866 152.68680786 -4.09289429 152.69490479 -4.96453857 152.70324707 C-15.93053171 152.54998754 -24.89622304 147.60189891 -32.43994141 139.84863281 C-37.44623091 132.16040251 -39.36197533 125.17928638 -39.2824707 116.07470703 C-39.27868503 115.27987349 -39.27489935 114.48503994 -39.27099895 113.66612053 C-39.17663638 99.6751004 -38.66397911 85.69184599 -38.18286133 71.70996094 C-38.05938482 68.08359481 -37.94872082 64.45717048 -37.84887695 60.83007812 C-37.72659213 56.39293401 -37.58157868 51.95705823 -37.42087364 47.52114487 C-37.36405775 45.85107938 -37.31493694 44.18073121 -37.27417946 42.51019669 C-36.95974816 29.97418008 -35.40433683 18.46373834 -26.35400391 8.91503906 C-18.3587508 2.43513177 -10.04616093 0.01450794 0 0 Z M-20.44384766 18.47753906 C-20.87568359 19.21875 -21.30751953 19.95996094 -21.75244141 20.72363281 C-22.435 21.83931641 -22.435 21.83931641 -23.13134766 22.97753906 C-25.24660197 27.34073892 -25.3866432 31.45372756 -25.57885742 36.27441406 C-25.60826416 36.98414368 -25.6376709 37.69387329 -25.66796875 38.42510986 C-25.7641457 40.77446894 -25.85417425 43.12401716 -25.94384766 45.47363281 C-26.00942612 47.12395213 -26.07526196 48.77426124 -26.14134216 50.42456055 C-26.27932218 53.89459348 -26.41428447 57.36472733 -26.54711914 60.83496094 C-26.71532547 65.22359864 -26.89076404 69.61191082 -27.06823826 74.00018215 C-27.96716734 95.60783875 -27.96716734 95.60783875 -28.43994141 117.22753906 C-28.45597916 117.98224487 -28.47201691 118.73695068 -28.48854065 119.51452637 C-28.49532715 125.93047005 -26.62199418 130.56421156 -22.18994141 135.16113281 C-17.58998291 139.37528834 -13.34503378 141.26479719 -7.15618896 141.31503296 C-6.36290695 141.32363342 -5.56962494 141.33223389 -4.75230408 141.34109497 C-3.89093338 141.34535492 -3.02956268 141.34961487 -2.14208984 141.35400391 C-1.22776688 141.3621814 -0.31344391 141.37035889 0.62858582 141.37878418 C3.65261182 141.40358413 6.67659106 141.42014021 9.70068359 141.43457031 C11.25234348 141.44255583 11.25234348 141.44255583 12.83535004 141.45070267 C18.31047321 141.47741049 23.78557376 141.49679318 29.26074219 141.51123047 C33.78666388 141.52457047 38.31213481 141.55242808 42.83789062 141.59326172 C48.3084937 141.64261651 53.77868788 141.66735494 59.24950409 141.67445755 C61.33067031 141.68116303 63.41182767 141.69636668 65.49286652 141.72034836 C68.41060181 141.75205449 71.32676576 141.75202838 74.24462891 141.74462891 C75.09790268 141.76103424 75.95117645 141.77743958 76.83030701 141.79434204 C83.98648209 141.72035326 88.52902085 139.03679137 93.83349609 134.38769531 C94.50251953 133.59492188 94.50251953 133.59492188 95.18505859 132.78613281 C95.64654297 132.26277344 96.10802734 131.73941406 96.58349609 131.20019531 C99.60267732 126.1810469 100.04617683 120.95935425 99.82177734 115.22753906 C99.79948563 114.56922592 99.77719391 113.91091278 99.75422668 113.23265076 C99.67873995 111.06248215 99.5880273 108.89322394 99.49755859 106.72363281 C99.41267818 104.39017047 99.33169657 102.05658996 99.25064087 99.72299194 C99.19337017 98.08592047 99.13473147 96.44889634 99.07479858 94.81192017 C98.85474033 88.7507298 98.68749294 82.68953527 98.54833984 76.62597656 C98.5280925 75.75090958 98.50784515 74.87584259 98.48698425 73.97425842 C98.40842083 70.54750155 98.33091288 67.12072653 98.25643921 63.69387817 C98.05950692 54.7383853 97.80178304 45.78592594 97.40380859 36.83691406 C97.37484497 36.05272095 97.34588135 35.26852783 97.31604004 34.46057129 C97.01336907 28.25902195 95.93689656 23.0162363 91.81005859 18.16113281 C84.96994642 12.25985956 79.39227225 11.01646045 70.52832031 10.96826172 C69.69523849 10.96008423 68.86215668 10.95190674 68.00382996 10.94348145 C65.24914252 10.91868883 62.49450651 10.90212473 59.73974609 10.88769531 C58.79606297 10.88237164 57.85237984 10.87704796 56.88010025 10.87156296 C51.88247745 10.84485456 46.8848794 10.8254746 41.88720703 10.81103516 C37.76295713 10.79771304 33.63920399 10.76988888 29.51513672 10.72900391 C24.5243234 10.67953307 19.53395954 10.65489623 14.54291153 10.64780807 C12.64760556 10.64111965 10.75230866 10.62596083 8.8571434 10.60191727 C-7.18201611 10.23907539 -7.18201611 10.23907539 -20.44384766 18.47753906 Z " fill="#6A6A6A" transform="translate(47.18994140625,7.8388671875)"/>
<path d="M0 0 C2.10927567 1.60083452 2.91967409 2.44084822 3.30078125 5.09375 C3.30464844 5.8878125 3.30851562 6.681875 3.3125 7.5 C3.87420975 14.74923528 6.75072919 21.17695381 12.29296875 25.9921875 C20.41035111 31.5273683 28.76760657 32.35895291 38.453125 30.5390625 C44.16538508 28.6274794 49.04319575 25.12722922 52.25390625 19.99609375 C54.71132366 14.92710359 55.7417231 9.84321302 56.5078125 4.28515625 C57 2 57 2 59 0 C65.57692308 0.57692308 65.57692308 0.57692308 67 2 C68.10523032 12.99794762 65.55633976 21.62887504 58.61328125 30.19140625 C51.94986202 37.66153483 43.99765299 42.62530976 33.796875 43.44921875 C22.12436933 43.94798842 13.23253214 41.63148691 4.10546875 34.0390625 C-3.77160255 26.41043315 -7.8730473 17.46264703 -8.375 6.5 C-8 3 -8 3 -6.8125 1 C-4.33474158 -0.36703913 -2.78844081 -0.41826612 0 0 Z " fill="#696969" transform="translate(53,30)"/>
</svg>
