<?xml version="1.0" encoding="UTF-8"?>
<svg version="1.1" xmlns="http://www.w3.org/2000/svg" width="353" height="353">
<path d="M0 0 C116.49 0 232.98 0 353 0 C353 116.49 353 232.98 353 353 C236.51 353 120.02 353 0 353 C0 236.51 0 120.02 0 0 Z " fill="#FEFEFE" transform="translate(0,0)"/>
<path d="M0 0 C1.12963165 -0.0071553 2.25926331 -0.01431061 3.42312622 -0.02168274 C7.13463526 -0.03850805 10.84492606 -0.0192026 14.55639648 0.00219727 C17.14753824 0.00136807 19.73867995 -0.00109323 22.32981873 -0.00511169 C27.75081668 -0.00796544 33.17136856 0.00615723 38.59228516 0.03417969 C44.84262065 0.06624234 51.0923321 0.0662056 57.34271199 0.04896492 C63.37894196 0.03305438 69.41488362 0.03996109 75.45112419 0.05690193 C78.00951567 0.06207498 80.5679251 0.06161263 83.12631416 0.05535698 C86.70439102 0.04989126 90.28141786 0.07032519 93.859375 0.09765625 C95.43607719 0.08786743 95.43607719 0.08786743 97.04463196 0.07788086 C104.50286019 0.17447835 109.93855229 1.62849326 115.60717773 6.59594727 C116.14600586 7.24692383 116.68483398 7.89790039 117.23999023 8.56860352 C117.79428711 9.21700195 118.34858398 9.86540039 118.91967773 10.53344727 C121.58629633 14.40364776 122.61377023 17.90704581 122.63241577 22.58235168 C122.64521072 24.03938255 122.64521072 24.03938255 122.65826416 25.52584839 C122.6569046 27.10705978 122.6569046 27.10705978 122.65551758 28.72021484 C122.6622348 29.83950882 122.66895203 30.9588028 122.6758728 32.11201477 C122.69487139 35.81243326 122.69877803 39.51267054 122.70092773 43.21313477 C122.70735455 45.78757298 122.71408282 48.36201047 122.72109985 50.93644714 C122.73307743 56.33411666 122.73686589 61.73171437 122.7355957 67.12939453 C122.73439516 73.3546047 122.7554829 79.57946768 122.78708303 85.80459005 C122.81646239 91.80765048 122.82356975 97.8105235 122.82237625 103.81366539 C122.82473397 106.36091212 122.83356705 108.9081615 122.84904099 111.45536232 C122.86867718 115.02180245 122.86287109 118.58735358 122.85083008 122.15380859 C122.86206909 123.20187683 122.87330811 124.24994507 122.8848877 125.32977295 C122.81733786 133.21943971 121.1072644 138.46694102 115.92749023 144.44360352 C110.66228088 148.93829443 106.41087982 150.73550687 99.54745483 150.79173279 C98.09682144 150.80680122 98.09682144 150.80680122 96.61688232 150.82217407 C95.56228821 150.82800507 94.50769409 150.83383606 93.42114258 150.83984375 C91.74723953 150.85451942 91.74723953 150.85451942 90.03952026 150.86949158 C86.34333485 150.89942534 82.6471856 150.9208266 78.95092773 150.93969727 C77.6873003 150.94626909 76.42367287 150.95284092 75.12175369 150.95961189 C69.80818487 150.98549398 64.49463037 151.00898079 59.18102074 151.02410793 C51.58786609 151.04598403 43.99542115 151.08790067 36.4025501 151.15754551 C30.40538144 151.21066908 24.40853735 151.23061034 18.41112137 151.2393055 C15.8682772 151.24785311 13.32544543 151.26665376 10.78275681 151.29604912 C7.21634908 151.33505649 3.65177633 151.33598496 0.08520508 151.328125 C-0.95724365 151.34812561 -1.99969238 151.36812622 -3.07373047 151.38873291 C-10.51800221 151.31540178 -15.83517054 149.3752672 -21.63500977 144.63110352 C-25.55989464 139.73751529 -27.75333676 135.2048551 -27.77545166 128.86894226 C-27.78401688 127.39907867 -27.78401688 127.39907867 -27.79275513 125.89952087 C-27.79387299 124.82569656 -27.79499084 123.75187225 -27.79614258 122.64550781 C-27.80110748 121.51353973 -27.80607239 120.38157166 -27.81118774 119.21530151 C-27.82582025 115.46196896 -27.83261318 111.70867868 -27.83813477 107.95532227 C-27.84388527 105.3508148 -27.84964302 102.74630736 -27.85540771 100.14179993 C-27.86497826 95.37554103 -27.87087556 90.60929128 -27.87390447 85.84302396 C-27.87838348 78.83385632 -27.8959252 71.82488387 -27.92490506 64.81577557 C-27.94915114 58.74012099 -27.95685 52.6645468 -27.95858002 46.58884621 C-27.96160874 44.00645701 -27.96964462 41.42406868 -27.9827652 38.84171104 C-27.99980927 35.22928436 -27.99794913 31.61733334 -27.99145508 28.00488281 C-28.00066986 26.9371312 -28.00988464 25.86937958 -28.01937866 24.76927185 C-27.98839811 19.2710924 -27.70395624 15.3906985 -24.63500977 10.63110352 C-24.09875977 9.78547852 -23.56250977 8.93985352 -23.01000977 8.06860352 C-16.28996559 1.17171607 -9.32940833 -0.10397503 0 0 Z " fill="#FDFDFD" transform="translate(49.635009765625,181.368896484375)"/>
<path d="M0 0 C0.97135391 -0.00852997 1.94270782 -0.01705994 2.9434967 -0.02584839 C3.99763763 -0.02494202 5.05177856 -0.02403564 6.13786316 -0.02310181 C7.25715714 -0.02981903 8.37645111 -0.03653625 9.52966309 -0.04345703 C13.23008158 -0.06245562 16.93031885 -0.06636226 20.63078308 -0.06851196 C23.2052213 -0.07493878 25.77965878 -0.08166705 28.35409546 -0.08868408 C33.75176497 -0.10066166 39.14936268 -0.10445012 44.54704285 -0.10317993 C50.77225302 -0.10197938 56.997116 -0.12306713 63.22223836 -0.15466726 C69.2252988 -0.18404661 75.22817182 -0.19115398 81.23131371 -0.18996048 C83.77856043 -0.1923182 86.32580982 -0.20115128 88.87301064 -0.21662521 C92.43945076 -0.23626141 96.0050019 -0.23045532 99.57145691 -0.21841431 C100.61952515 -0.22965332 101.66759338 -0.24089233 102.74742126 -0.25247192 C110.20692369 -0.18860507 115.65893661 1.2437576 121.29093933 6.26742554 C121.82976746 6.92742554 122.36859558 7.58742554 122.92375183 8.26742554 C123.47804871 8.92742554 124.03234558 9.58742554 124.60343933 10.26742554 C127.24467469 13.9223242 128.29824048 16.59459301 128.31617737 21.12965393 C128.32897232 22.59507629 128.32897232 22.59507629 128.34202576 24.09010315 C128.3406662 25.688377 128.3406662 25.688377 128.33927917 27.31893921 C128.3459964 28.44623444 128.35271362 29.57352966 128.3596344 30.73498535 C128.37865956 34.46849964 128.38254126 38.20183451 128.38468933 41.93539429 C128.39111535 44.53128636 128.39784356 47.1271777 128.40486145 49.72306824 C128.41684642 55.16959621 128.42062676 60.61605301 128.4193573 66.06259155 C128.41815789 72.34172351 128.43922005 78.62051061 128.47084463 84.89955539 C128.50024477 90.95440177 128.5073307 97.0090624 128.50613785 103.06398964 C128.50849432 105.63273842 128.51732039 108.20148989 128.53280258 110.7701931 C128.5524635 114.3700631 128.54662246 117.96905415 128.53459167 121.56893921 C128.54583069 122.62433395 128.5570697 123.6797287 128.56864929 124.7671051 C128.50683587 132.06954875 127.40602933 138.59548595 122.32799339 144.1494627 C115.65378315 150.42513987 108.58949095 150.56270912 99.83024597 150.54208374 C98.70919968 150.54719467 97.58815338 150.5523056 96.43313599 150.55757141 C92.7333388 150.5714532 89.03372819 150.57051174 85.33390808 150.56820679 C82.75850353 150.57209431 80.18309962 150.5764291 77.60769653 150.58119202 C72.21180368 150.58865107 66.81598295 150.58850369 61.42008972 150.58309937 C55.19432757 150.57705951 48.96879141 150.58937468 42.7430678 150.61066943 C36.73947643 150.63044475 30.73600299 150.63345508 24.73237419 150.62993431 C22.18430996 150.63044743 19.63624212 150.63568345 17.08819771 150.64574623 C13.52417249 150.65809467 9.9606692 150.65132803 6.39665222 150.63973999 C4.82151352 150.6512056 4.82151352 150.6512056 3.21455383 150.66290283 C-4.83970968 150.60507735 -11.04620781 149.17246589 -16.95124817 143.26742554 C-19.96814529 138.24942157 -22.06817231 133.50386582 -22.09841919 127.59465027 C-22.10915215 126.15436462 -22.10915215 126.15436462 -22.12010193 124.6849823 C-22.12279083 123.63300156 -22.12547974 122.58102081 -22.12825012 121.49716187 C-22.13482132 120.38791351 -22.14139252 119.27866516 -22.14816284 118.13580322 C-22.16790771 114.45702042 -22.17956157 110.77827847 -22.18952942 107.09945679 C-22.19360495 105.84344854 -22.19768047 104.5874403 -22.2018795 103.2933712 C-22.22059395 97.33037107 -22.23515787 91.36738392 -22.24349147 85.40436155 C-22.25325388 78.53325446 -22.27954839 71.66247037 -22.31999236 64.79147702 C-22.35386495 58.83117765 -22.36564262 52.87095682 -22.36969566 46.9105587 C-22.37456515 44.38005064 -22.38618936 41.84954613 -22.40473366 39.31910133 C-22.42909726 35.77402738 -22.42816448 32.22979402 -22.42121887 28.68466187 C-22.43402893 27.64280228 -22.44683899 26.60094269 -22.46003723 25.5275116 C-22.40696801 18.08134904 -20.94360641 12.68216437 -15.98640442 7.02523804 C-15.33542786 6.48640991 -14.68445129 5.94758179 -14.01374817 5.39242554 C-13.36534973 4.83812866 -12.71695129 4.28383179 -12.04890442 3.71273804 C-8.17870392 1.04611945 -4.67530588 0.01864554 0 0 Z " fill="#FDFDFD" transform="translate(209.9512481689453,15.732574462890625)"/>
<path d="M0 0 C0.96578476 -0.0071553 1.93156952 -0.01431061 2.92662048 -0.02168274 C3.9899762 -0.02437164 5.05333191 -0.02706055 6.14891052 -0.02983093 C7.82478493 -0.03968773 7.82478493 -0.03968773 9.53451538 -0.04974365 C13.24639447 -0.06951593 16.95823297 -0.08114984 20.67015076 -0.09111023 C21.93686049 -0.09518576 23.20357021 -0.09926128 24.50866508 -0.10346031 C30.52453454 -0.12218572 36.54037935 -0.13674508 42.55627018 -0.14507228 C49.48793686 -0.15482632 56.41928263 -0.18109413 63.35083634 -0.22157317 C69.36294606 -0.25547 75.37490114 -0.26722561 81.38711357 -0.27127647 C83.93912362 -0.27614337 86.49113023 -0.28776018 89.04307747 -0.30631447 C92.62158171 -0.3307089 96.19925451 -0.32973936 99.77781677 -0.32279968 C100.82700287 -0.33560974 101.87618896 -0.3484198 102.95716858 -0.36161804 C110.57071045 -0.30797443 116.82736639 1.13347204 122.75608826 6.11201477 C123.28331482 6.76299133 123.81054138 7.4139679 124.35374451 8.08467102 C124.89901794 8.73306946 125.44429138 9.3814679 126.00608826 10.04951477 C128.62139781 13.9398783 129.66505373 17.43044342 129.68367004 22.09841919 C129.696465 23.55545006 129.696465 23.55545006 129.70951843 25.04191589 C129.70815887 26.62312729 129.70815887 26.62312729 129.70677185 28.23628235 C129.71348907 29.35557632 129.7202063 30.4748703 129.72712708 31.62808228 C129.74612566 35.32850076 129.75003231 39.02873804 129.75218201 42.72920227 C129.75860882 45.30364049 129.76533709 47.87807797 129.77235413 50.45251465 C129.7843317 55.85018416 129.78812016 61.24778187 129.78684998 66.64546204 C129.78564943 72.87067221 129.80673717 79.09553519 129.8383373 85.32065755 C129.86771666 91.32371799 129.87482402 97.32659101 129.87363052 103.32973289 C129.87598824 105.87697962 129.88482133 108.42422901 129.90029526 110.97142982 C129.91993145 114.53786995 129.91412536 118.10342109 129.90208435 121.6698761 C129.91332336 122.71794434 129.92456238 123.76601257 129.93614197 124.84584045 C129.86912319 132.67348058 128.11969805 137.84295002 123.16624451 143.89717102 C116.07483813 149.69923078 109.96573131 150.7391603 100.92649841 150.69648743 C99.80022537 150.70670929 98.67395233 150.71693115 97.5135498 150.72746277 C93.80641671 150.75516479 90.10003103 150.75334825 86.39280701 150.74873352 C83.80502549 150.75651241 81.21724652 150.76518278 78.62947083 150.77470398 C73.21096932 150.78960909 67.79275523 150.78933848 62.37425232 150.77851868 C56.13233918 150.7664453 49.8913284 150.79105642 43.64956915 150.83365881 C37.61920753 150.87328777 31.58931472 150.879221 25.55880356 150.87218857 C23.00482947 150.87321251 20.45084059 150.88364145 17.89694595 150.90381241 C14.31885875 150.9286054 10.74283608 150.91492357 7.16477966 150.89179993 C6.11926437 150.9070874 5.07374908 150.92237488 3.99655151 150.93812561 C-3.47662689 150.83186773 -8.89223692 149.11375351 -14.58375549 144.14717102 C-20.45623371 137.42456158 -21.45734054 131.00674352 -21.34425354 122.32270813 C-21.35316116 121.18478317 -21.36206879 120.04685822 -21.37124634 118.87445068 C-21.39242882 115.14054247 -21.37027495 111.40837898 -21.34547424 107.67451477 C-21.34697787 105.06477686 -21.35041087 102.45503942 -21.35568237 99.8453064 C-21.3620012 94.38737872 -21.34386536 88.92994593 -21.31105042 83.47212219 C-21.27354445 77.18248886 -21.27534894 70.89379169 -21.29809159 64.60410875 C-21.31911436 58.52565903 -21.3116289 52.44760731 -21.29177284 46.36915779 C-21.28593835 43.79484739 -21.28720266 41.22051047 -21.29579735 38.64620781 C-21.30381972 35.04429216 -21.27946421 31.44398406 -21.24659729 27.84223938 C-21.2551474 26.78692017 -21.26369751 25.73160095 -21.27250671 24.64430237 C-21.16367443 17.70734628 -19.73097561 12.77266805 -15.58375549 7.14717102 C-13.19703674 4.99092102 -13.19703674 4.99092102 -10.89625549 3.64717102 C-9.74576721 2.95107727 -9.74576721 2.95107727 -8.57203674 2.24092102 C-5.40933653 0.50112522 -3.61600382 0.01835502 0 0 Z " fill="#FDFDFD" transform="translate(42.58375549316406,15.852828979492188)"/>
<path d="M0 0 C1.03511719 0.4640625 2.07023437 0.928125 3.13671875 1.40625 C17.35281242 8.40697441 26.73591469 19.44391213 32.19921875 34.25 C33.24544535 39.14940259 33.32952689 43.81680911 33.3125 48.8125 C33.32861328 49.74642578 33.34472656 50.68035156 33.36132812 51.64257812 C33.36798843 61.24007097 31.06451443 68.93400339 25.890625 76.9921875 C24.74779194 79.56857432 25.01211033 80.38184252 26 83 C27.76597882 85.16008003 27.76597882 85.16008003 30.04492188 87.2902832 C30.90251099 88.12827957 31.7601001 88.96627594 32.64367676 89.82966614 C33.57595093 90.72763412 34.5082251 91.62560211 35.46875 92.55078125 C36.43007655 93.49126205 37.39030723 94.4328642 38.3494873 95.37553406 C42.42017496 99.37298968 46.50720119 103.3534201 50.60791016 107.32006836 C53.11818713 109.74975978 55.61345902 112.19405921 58.10023499 114.64778709 C59.50780568 116.027796 60.93196051 117.39082386 62.35632324 118.75349426 C69.45201856 125.76532213 69.45201856 125.76532213 70.18554688 129.94213867 C70 133 70 133 68.5 135.875 C66 138 66 138 62.875 139.375 C54.04521019 138.52050421 46.32552803 127.33277682 40.32421875 121.2109375 C39.15672089 120.02139969 39.15672089 120.02139969 37.96563721 118.80783081 C34.70531891 115.48322256 31.44527736 112.15882526 28.20874023 108.81103516 C25.82332014 106.34727653 23.41953089 103.90279007 21.01171875 101.4609375 C20.28143967 100.69655365 19.55116058 99.9321698 18.79875183 99.1446228 C18.11065933 98.45284943 17.42256683 97.76107605 16.71362305 97.04833984 C16.11535202 96.43372894 15.51708099 95.81911804 14.90068054 95.18588257 C13.00020724 93.73198102 13.00020724 93.73198102 10.38581848 94.25527954 C8.16770893 94.94765056 6.33447021 95.74339845 4.3125 96.875 C-7.96200858 103.09166424 -21.72146475 104.13070405 -35 100.375 C-40.8118202 98.30092041 -45.93929194 95.51283582 -51 92 C-52.5159375 90.948125 -52.5159375 90.948125 -54.0625 89.875 C-61.54625627 83.24409345 -67.07427801 74.50480667 -70 65 C-70.35320312 63.91332031 -70.70640625 62.82664062 -71.0703125 61.70703125 C-74.39306165 48.45791804 -72.0518988 34.78040725 -65.28515625 23.01953125 C-62.28126424 18.5695643 -58.9982757 14.59844813 -55 11 C-54.52433594 10.53207031 -54.04867187 10.06414062 -53.55859375 9.58203125 C-40.00852701 -3.11911565 -17.20040411 -7.78047359 0 0 Z " fill="#232222" transform="translate(260,185)"/>
<path d="M0 0 C1.12963165 -0.0071553 2.25926331 -0.01431061 3.42312622 -0.02168274 C7.13463526 -0.03850805 10.84492606 -0.0192026 14.55639648 0.00219727 C17.14753824 0.00136807 19.73867995 -0.00109323 22.32981873 -0.00511169 C27.75081668 -0.00796544 33.17136856 0.00615723 38.59228516 0.03417969 C44.84262065 0.06624234 51.0923321 0.0662056 57.34271199 0.04896492 C63.37894196 0.03305438 69.41488362 0.03996109 75.45112419 0.05690193 C78.00951567 0.06207498 80.5679251 0.06161263 83.12631416 0.05535698 C86.70439102 0.04989126 90.28141786 0.07032519 93.859375 0.09765625 C95.43607719 0.08786743 95.43607719 0.08786743 97.04463196 0.07788086 C104.50286019 0.17447835 109.93855229 1.62849326 115.60717773 6.59594727 C116.14600586 7.24692383 116.68483398 7.89790039 117.23999023 8.56860352 C117.79428711 9.21700195 118.34858398 9.86540039 118.91967773 10.53344727 C121.58629633 14.40364776 122.61377023 17.90704581 122.63241577 22.58235168 C122.64521072 24.03938255 122.64521072 24.03938255 122.65826416 25.52584839 C122.6569046 27.10705978 122.6569046 27.10705978 122.65551758 28.72021484 C122.6622348 29.83950882 122.66895203 30.9588028 122.6758728 32.11201477 C122.69487139 35.81243326 122.69877803 39.51267054 122.70092773 43.21313477 C122.70735455 45.78757298 122.71408282 48.36201047 122.72109985 50.93644714 C122.73307743 56.33411666 122.73686589 61.73171437 122.7355957 67.12939453 C122.73439516 73.3546047 122.7554829 79.57946768 122.78708303 85.80459005 C122.81646239 91.80765048 122.82356975 97.8105235 122.82237625 103.81366539 C122.82473397 106.36091212 122.83356705 108.9081615 122.84904099 111.45536232 C122.86867718 115.02180245 122.86287109 118.58735358 122.85083008 122.15380859 C122.86206909 123.20187683 122.87330811 124.24994507 122.8848877 125.32977295 C122.81733786 133.21943971 121.1072644 138.46694102 115.92749023 144.44360352 C110.66228088 148.93829443 106.41087982 150.73550687 99.54745483 150.79173279 C98.09682144 150.80680122 98.09682144 150.80680122 96.61688232 150.82217407 C95.56228821 150.82800507 94.50769409 150.83383606 93.42114258 150.83984375 C91.74723953 150.85451942 91.74723953 150.85451942 90.03952026 150.86949158 C86.34333485 150.89942534 82.6471856 150.9208266 78.95092773 150.93969727 C77.6873003 150.94626909 76.42367287 150.95284092 75.12175369 150.95961189 C69.80818487 150.98549398 64.49463037 151.00898079 59.18102074 151.02410793 C51.58786609 151.04598403 43.99542115 151.08790067 36.4025501 151.15754551 C30.40538144 151.21066908 24.40853735 151.23061034 18.41112137 151.2393055 C15.8682772 151.24785311 13.32544543 151.26665376 10.78275681 151.29604912 C7.21634908 151.33505649 3.65177633 151.33598496 0.08520508 151.328125 C-0.95724365 151.34812561 -1.99969238 151.36812622 -3.07373047 151.38873291 C-10.51800221 151.31540178 -15.83517054 149.3752672 -21.63500977 144.63110352 C-25.55989464 139.73751529 -27.75333676 135.2048551 -27.77545166 128.86894226 C-27.78401688 127.39907867 -27.78401688 127.39907867 -27.79275513 125.89952087 C-27.79387299 124.82569656 -27.79499084 123.75187225 -27.79614258 122.64550781 C-27.80110748 121.51353973 -27.80607239 120.38157166 -27.81118774 119.21530151 C-27.82582025 115.46196896 -27.83261318 111.70867868 -27.83813477 107.95532227 C-27.84388527 105.3508148 -27.84964302 102.74630736 -27.85540771 100.14179993 C-27.86497826 95.37554103 -27.87087556 90.60929128 -27.87390447 85.84302396 C-27.87838348 78.83385632 -27.8959252 71.82488387 -27.92490506 64.81577557 C-27.94915114 58.74012099 -27.95685 52.6645468 -27.95858002 46.58884621 C-27.96160874 44.00645701 -27.96964462 41.42406868 -27.9827652 38.84171104 C-27.99980927 35.22928436 -27.99794913 31.61733334 -27.99145508 28.00488281 C-28.00066986 26.9371312 -28.00988464 25.86937958 -28.01937866 24.76927185 C-27.98839811 19.2710924 -27.70395624 15.3906985 -24.63500977 10.63110352 C-24.09875977 9.78547852 -23.56250977 8.93985352 -23.01000977 8.06860352 C-16.28996559 1.17171607 -9.32940833 -0.10397503 0 0 Z M-11.63500977 19.63110352 C-12.084918 21.79107842 -12.084918 21.79107842 -12.01596069 24.22363281 C-12.02442017 25.16580658 -12.03287964 26.10798035 -12.04159546 27.07870483 C-12.03552277 28.11048859 -12.02945007 29.14227234 -12.02319336 30.20532227 C-12.02845032 31.29334137 -12.03370728 32.38136047 -12.03912354 33.50234985 C-12.05235467 37.10791269 -12.04357414 40.71303599 -12.03344727 44.31860352 C-12.0354671 46.81819748 -12.03837777 49.31779087 -12.04214478 51.81738281 C-12.04657235 57.05969754 -12.04040805 62.30189739 -12.02612305 67.54418945 C-12.00979618 73.60582101 -12.01508462 79.66714985 -12.03160226 85.72877407 C-12.04685336 91.55885216 -12.04524328 97.38881512 -12.03645706 103.21890259 C-12.03445178 105.70049074 -12.03692577 108.18208659 -12.04389572 110.66366577 C-12.0514905 114.12828211 -12.03993306 117.59231223 -12.02319336 121.05688477 C-12.02926605 122.08866852 -12.03533875 123.12045227 -12.04159546 124.1835022 C-12.03313599 125.12567596 -12.02467651 126.06784973 -12.01596069 127.03857422 C-12.01482962 127.8578389 -12.01369854 128.67710358 -12.01253319 129.52119446 C-11.53302373 132.20108471 -10.85339737 133.07206294 -8.63500977 134.63110352 C-6.49502257 135.08360061 -6.49502257 135.08360061 -4.08717346 135.01878357 C-3.15485901 135.0286882 -2.22254456 135.03859283 -1.26197815 135.04879761 C-0.24111618 135.04429596 0.77974579 135.03979431 1.83154297 135.03515625 C2.90820221 135.0420195 3.98486145 135.04888275 5.09414673 135.05595398 C8.66242565 135.07429442 12.23026793 135.07037401 15.79858398 135.06469727 C18.27336267 135.06925562 20.74814009 135.07456015 23.22291565 135.08058167 C28.41396217 135.08952707 33.60485496 135.08707335 38.79589844 135.07714844 C45.45555469 135.06565786 52.11447621 135.0858645 58.77409267 135.11506557 C63.88612756 135.13339236 68.99803459 135.13314209 74.11009407 135.12742805 C76.56574306 135.1272744 79.02140049 135.13335459 81.47701836 135.14571953 C84.90803365 135.16056045 88.33805912 135.15000218 91.76904297 135.1328125 C92.78788071 135.14248047 93.80671844 135.15214844 94.85643005 135.16210938 C98.72283895 135.12144912 101.53777067 135.06174936 104.99488831 133.26199341 C107.21991399 128.98946633 106.92028253 124.78073849 106.88256836 120.03515625 C106.88957764 118.95674469 106.89658691 117.87833313 106.90380859 116.76724243 C106.92142669 113.19946615 106.90975245 109.63248173 106.89624023 106.06469727 C106.89893383 103.5889521 106.90281515 101.11320797 106.90783691 98.63746643 C106.913737 93.44814993 106.90515144 88.25910874 106.88647461 83.06982422 C106.86367311 76.40893639 106.87681267 69.74896125 106.90076447 63.08805752 C106.91519822 57.97605 106.9106277 52.86419598 106.9002533 47.75218391 C106.89757994 45.2957152 106.90087703 42.83923266 106.91017151 40.38278008 C106.92029812 36.95402821 106.90488974 33.5263294 106.88256836 30.09765625 C106.89066528 29.07679428 106.89876221 28.05593231 106.90710449 27.00413513 C106.8958252 26.07182068 106.8845459 25.13950623 106.8729248 24.17893982 C106.87066265 22.96305254 106.87066265 22.96305254 106.8683548 21.72260189 C106.52048041 19.48509837 106.52048041 19.48509837 104.62542057 17.87067318 C102.06990305 16.46928428 100.5871903 16.25419313 97.69017029 16.25015259 C96.75503601 16.24169312 95.81990173 16.23323364 94.85643005 16.22451782 C93.83759232 16.23059052 92.81875458 16.23666321 91.76904297 16.24291992 C90.15142563 16.23503448 90.15142563 16.23503448 88.50112915 16.22698975 C84.93346715 16.21377659 81.36625059 16.22253219 77.79858398 16.23266602 C75.3228395 16.23064582 72.84709559 16.22773483 70.37135315 16.22396851 C65.18208146 16.21954348 59.99296464 16.2259827 54.80371094 16.23999023 C48.14295388 16.25709102 41.48271024 16.24723632 34.82194424 16.22927284 C29.70995844 16.21844757 24.59805899 16.22187545 19.48607063 16.22965622 C17.02960225 16.23166124 14.5731261 16.22918844 12.11666679 16.22221756 C8.68807996 16.21462297 5.26008553 16.22617952 1.83154297 16.24291992 C0.30025002 16.23381088 0.30025002 16.23381088 -1.26197815 16.22451782 C-2.1942926 16.23297729 -3.12660706 16.24143677 -4.08717346 16.25015259 C-5.30306074 16.2518492 -5.30306074 16.2518492 -6.54351139 16.25358009 C-9.21201361 16.73525491 -10.0816366 17.42151064 -11.63500977 19.63110352 Z " fill="#232121" transform="translate(49.635009765625,181.368896484375)"/>
<path d="M0 0 C0.97135391 -0.00852997 1.94270782 -0.01705994 2.9434967 -0.02584839 C3.99763763 -0.02494202 5.05177856 -0.02403564 6.13786316 -0.02310181 C7.25715714 -0.02981903 8.37645111 -0.03653625 9.52966309 -0.04345703 C13.23008158 -0.06245562 16.93031885 -0.06636226 20.63078308 -0.06851196 C23.2052213 -0.07493878 25.77965878 -0.08166705 28.35409546 -0.08868408 C33.75176497 -0.10066166 39.14936268 -0.10445012 44.54704285 -0.10317993 C50.77225302 -0.10197938 56.997116 -0.12306713 63.22223836 -0.15466726 C69.2252988 -0.18404661 75.22817182 -0.19115398 81.23131371 -0.18996048 C83.77856043 -0.1923182 86.32580982 -0.20115128 88.87301064 -0.21662521 C92.43945076 -0.23626141 96.0050019 -0.23045532 99.57145691 -0.21841431 C100.61952515 -0.22965332 101.66759338 -0.24089233 102.74742126 -0.25247192 C110.20692369 -0.18860507 115.65893661 1.2437576 121.29093933 6.26742554 C121.82976746 6.92742554 122.36859558 7.58742554 122.92375183 8.26742554 C123.47804871 8.92742554 124.03234558 9.58742554 124.60343933 10.26742554 C127.24467469 13.9223242 128.29824048 16.59459301 128.31617737 21.12965393 C128.32897232 22.59507629 128.32897232 22.59507629 128.34202576 24.09010315 C128.3406662 25.688377 128.3406662 25.688377 128.33927917 27.31893921 C128.3459964 28.44623444 128.35271362 29.57352966 128.3596344 30.73498535 C128.37865956 34.46849964 128.38254126 38.20183451 128.38468933 41.93539429 C128.39111535 44.53128636 128.39784356 47.1271777 128.40486145 49.72306824 C128.41684642 55.16959621 128.42062676 60.61605301 128.4193573 66.06259155 C128.41815789 72.34172351 128.43922005 78.62051061 128.47084463 84.89955539 C128.50024477 90.95440177 128.5073307 97.0090624 128.50613785 103.06398964 C128.50849432 105.63273842 128.51732039 108.20148989 128.53280258 110.7701931 C128.5524635 114.3700631 128.54662246 117.96905415 128.53459167 121.56893921 C128.54583069 122.62433395 128.5570697 123.6797287 128.56864929 124.7671051 C128.50683587 132.06954875 127.40602933 138.59548595 122.32799339 144.1494627 C115.65378315 150.42513987 108.58949095 150.56270912 99.83024597 150.54208374 C98.70919968 150.54719467 97.58815338 150.5523056 96.43313599 150.55757141 C92.7333388 150.5714532 89.03372819 150.57051174 85.33390808 150.56820679 C82.75850353 150.57209431 80.18309962 150.5764291 77.60769653 150.58119202 C72.21180368 150.58865107 66.81598295 150.58850369 61.42008972 150.58309937 C55.19432757 150.57705951 48.96879141 150.58937468 42.7430678 150.61066943 C36.73947643 150.63044475 30.73600299 150.63345508 24.73237419 150.62993431 C22.18430996 150.63044743 19.63624212 150.63568345 17.08819771 150.64574623 C13.52417249 150.65809467 9.9606692 150.65132803 6.39665222 150.63973999 C4.82151352 150.6512056 4.82151352 150.6512056 3.21455383 150.66290283 C-4.83970968 150.60507735 -11.04620781 149.17246589 -16.95124817 143.26742554 C-19.96814529 138.24942157 -22.06817231 133.50386582 -22.09841919 127.59465027 C-22.10915215 126.15436462 -22.10915215 126.15436462 -22.12010193 124.6849823 C-22.12279083 123.63300156 -22.12547974 122.58102081 -22.12825012 121.49716187 C-22.13482132 120.38791351 -22.14139252 119.27866516 -22.14816284 118.13580322 C-22.16790771 114.45702042 -22.17956157 110.77827847 -22.18952942 107.09945679 C-22.19360495 105.84344854 -22.19768047 104.5874403 -22.2018795 103.2933712 C-22.22059395 97.33037107 -22.23515787 91.36738392 -22.24349147 85.40436155 C-22.25325388 78.53325446 -22.27954839 71.66247037 -22.31999236 64.79147702 C-22.35386495 58.83117765 -22.36564262 52.87095682 -22.36969566 46.9105587 C-22.37456515 44.38005064 -22.38618936 41.84954613 -22.40473366 39.31910133 C-22.42909726 35.77402738 -22.42816448 32.22979402 -22.42121887 28.68466187 C-22.43402893 27.64280228 -22.44683899 26.60094269 -22.46003723 25.5275116 C-22.40696801 18.08134904 -20.94360641 12.68216437 -15.98640442 7.02523804 C-15.33542786 6.48640991 -14.68445129 5.94758179 -14.01374817 5.39242554 C-13.36534973 4.83812866 -12.71695129 4.28383179 -12.04890442 3.71273804 C-8.17870392 1.04611945 -4.67530588 0.01864554 0 0 Z M-4.57540894 17.63653564 C-6.80940832 21.90840568 -6.49801242 26.11532209 -6.45295715 30.8633728 C-6.45836014 31.94178436 -6.46376312 33.02019592 -6.46932983 34.13128662 C-6.48184635 37.69908006 -6.4653069 41.26607126 -6.44734192 44.83383179 C-6.44749683 47.30957583 -6.44898443 49.78532012 -6.45175171 52.26106262 C-6.45313698 57.4503857 -6.44055482 62.63943281 -6.4178009 67.82870483 C-6.38940124 74.48949395 -6.39215593 81.14961786 -6.40489101 87.81047153 C-6.41183631 92.92246941 -6.40407225 98.03436085 -6.39163399 103.14634514 C-6.38710937 105.60280894 -6.38679146 108.05928412 -6.39069939 110.51574898 C-6.39360065 113.94436308 -6.37715637 117.37233919 -6.3553009 120.8008728 C-6.35980255 121.82173477 -6.3643042 122.84259674 -6.36894226 123.89439392 C-6.35903763 124.82670837 -6.349133 125.75902283 -6.33892822 126.71958923 C-6.33649833 127.53018075 -6.33406843 128.34077227 -6.3315649 129.17592716 C-5.84659027 131.84297695 -5.1600836 132.71421439 -2.95124817 134.26742554 C-0.79127327 134.71733377 -0.79127327 134.71733377 1.64128113 134.64837646 C3.05454178 134.66106567 3.05454178 134.66106567 4.49635315 134.67401123 C5.5281369 134.66793854 6.55992065 134.66186584 7.62297058 134.65560913 C8.71098969 134.66086609 9.79900879 134.66612305 10.91999817 134.67153931 C14.525561 134.68477044 18.13068431 134.67598991 21.73625183 134.66586304 C24.2358458 134.66788287 26.73543919 134.67079354 29.23503113 134.67456055 C34.47734585 134.67898812 39.7195457 134.67282382 44.96183777 134.65853882 C51.02346932 134.64221195 57.08479817 134.64750039 63.14642239 134.66401803 C68.97650047 134.67926913 74.80646344 134.67765905 80.6365509 134.66887283 C83.11813906 134.66686755 85.59973491 134.66934154 88.08131409 134.67631149 C91.54593043 134.68390627 95.00996055 134.67234883 98.47453308 134.65560913 C99.50631683 134.66168182 100.53810059 134.66775452 101.60115051 134.67401123 C102.54332428 134.66555176 103.48549805 134.65709229 104.45622253 134.64837646 C105.27548721 134.64724539 106.09475189 134.64611431 106.93884277 134.64494896 C109.62005953 134.16520216 110.49038621 133.48837119 112.04875183 131.26742554 C112.50140936 129.1076241 112.50140936 129.1076241 112.43643188 126.67489624 C112.44633652 125.73272247 112.45624115 124.79054871 112.46644592 123.81982422 C112.46194427 122.78804047 112.45744263 121.75625671 112.45280457 120.69320679 C112.45966782 119.60518768 112.46653107 118.51716858 112.47360229 117.3961792 C112.49194178 113.79062952 112.4880228 110.18551196 112.48234558 106.57992554 C112.48690364 104.08033099 112.49220808 101.58073769 112.49822998 99.08114624 C112.50717493 93.83883713 112.50495459 88.5966408 112.49479675 83.3543396 C112.48331084 77.29264458 112.49739742 71.23139174 112.52419323 65.16975498 C112.54900141 59.33966868 112.55153202 53.50975484 112.54507637 47.67962646 C112.54492261 45.19803125 112.55101209 42.71642774 112.56336784 40.23486328 C112.57818822 36.77011882 112.5676662 33.30635726 112.55046082 29.84164429 C112.56012878 28.80986053 112.56979675 27.77807678 112.57975769 26.71502686 C112.56992355 25.77285309 112.56008942 24.83067932 112.54995728 23.85995483 C112.54974799 23.04069016 112.54953871 22.22142548 112.54932308 21.37733459 C112.20743608 19.12260956 112.20743608 19.12260956 110.30680943 17.50462246 C107.76714822 16.11313403 106.29636918 15.88846125 103.41862488 15.87974548 C102.49334991 15.86984085 101.56807495 15.85993622 100.61476135 15.84973145 C99.6068454 15.85423309 98.59892944 15.85873474 97.56047058 15.8633728 C95.95989304 15.85307793 95.95989304 15.85307793 94.32698059 15.84257507 C90.79660268 15.82425981 87.2666671 15.82815111 83.73625183 15.83383179 C81.28532262 15.82927259 78.83439469 15.82396781 76.38346863 15.81794739 C71.24547636 15.80900721 66.10763945 15.81145022 60.96965027 15.82138062 C54.37846027 15.832877 47.78780546 15.8126525 41.19668579 15.78346348 C36.13526492 15.76513778 31.07397318 15.76538663 26.01252747 15.771101 C23.58199818 15.77125463 21.15146036 15.76517621 18.72096252 15.75280952 C15.32597535 15.73796873 11.93198847 15.7485263 8.53703308 15.76571655 C7.52911713 15.75604858 6.52120117 15.74638062 5.48274231 15.73641968 C1.63969286 15.77726491 -1.14062168 15.84449531 -4.57540894 17.63653564 Z " fill="#232121" transform="translate(209.9512481689453,15.732574462890625)"/>
<path d="M0 0 C0.96578476 -0.0071553 1.93156952 -0.01431061 2.92662048 -0.02168274 C3.9899762 -0.02437164 5.05333191 -0.02706055 6.14891052 -0.02983093 C7.82478493 -0.03968773 7.82478493 -0.03968773 9.53451538 -0.04974365 C13.24639447 -0.06951593 16.95823297 -0.08114984 20.67015076 -0.09111023 C21.93686049 -0.09518576 23.20357021 -0.09926128 24.50866508 -0.10346031 C30.52453454 -0.12218572 36.54037935 -0.13674508 42.55627018 -0.14507228 C49.48793686 -0.15482632 56.41928263 -0.18109413 63.35083634 -0.22157317 C69.36294606 -0.25547 75.37490114 -0.26722561 81.38711357 -0.27127647 C83.93912362 -0.27614337 86.49113023 -0.28776018 89.04307747 -0.30631447 C92.62158171 -0.3307089 96.19925451 -0.32973936 99.77781677 -0.32279968 C100.82700287 -0.33560974 101.87618896 -0.3484198 102.95716858 -0.36161804 C110.57071045 -0.30797443 116.82736639 1.13347204 122.75608826 6.11201477 C123.28331482 6.76299133 123.81054138 7.4139679 124.35374451 8.08467102 C124.89901794 8.73306946 125.44429138 9.3814679 126.00608826 10.04951477 C128.62139781 13.9398783 129.66505373 17.43044342 129.68367004 22.09841919 C129.696465 23.55545006 129.696465 23.55545006 129.70951843 25.04191589 C129.70815887 26.62312729 129.70815887 26.62312729 129.70677185 28.23628235 C129.71348907 29.35557632 129.7202063 30.4748703 129.72712708 31.62808228 C129.74612566 35.32850076 129.75003231 39.02873804 129.75218201 42.72920227 C129.75860882 45.30364049 129.76533709 47.87807797 129.77235413 50.45251465 C129.7843317 55.85018416 129.78812016 61.24778187 129.78684998 66.64546204 C129.78564943 72.87067221 129.80673717 79.09553519 129.8383373 85.32065755 C129.86771666 91.32371799 129.87482402 97.32659101 129.87363052 103.32973289 C129.87598824 105.87697962 129.88482133 108.42422901 129.90029526 110.97142982 C129.91993145 114.53786995 129.91412536 118.10342109 129.90208435 121.6698761 C129.91332336 122.71794434 129.92456238 123.76601257 129.93614197 124.84584045 C129.86912319 132.67348058 128.11969805 137.84295002 123.16624451 143.89717102 C116.07483813 149.69923078 109.96573131 150.7391603 100.92649841 150.69648743 C99.80022537 150.70670929 98.67395233 150.71693115 97.5135498 150.72746277 C93.80641671 150.75516479 90.10003103 150.75334825 86.39280701 150.74873352 C83.80502549 150.75651241 81.21724652 150.76518278 78.62947083 150.77470398 C73.21096932 150.78960909 67.79275523 150.78933848 62.37425232 150.77851868 C56.13233918 150.7664453 49.8913284 150.79105642 43.64956915 150.83365881 C37.61920753 150.87328777 31.58931472 150.879221 25.55880356 150.87218857 C23.00482947 150.87321251 20.45084059 150.88364145 17.89694595 150.90381241 C14.31885875 150.9286054 10.74283608 150.91492357 7.16477966 150.89179993 C6.11926437 150.9070874 5.07374908 150.92237488 3.99655151 150.93812561 C-3.47662689 150.83186773 -8.89223692 149.11375351 -14.58375549 144.14717102 C-20.45623371 137.42456158 -21.45734054 131.00674352 -21.34425354 122.32270813 C-21.35316116 121.18478317 -21.36206879 120.04685822 -21.37124634 118.87445068 C-21.39242882 115.14054247 -21.37027495 111.40837898 -21.34547424 107.67451477 C-21.34697787 105.06477686 -21.35041087 102.45503942 -21.35568237 99.8453064 C-21.3620012 94.38737872 -21.34386536 88.92994593 -21.31105042 83.47212219 C-21.27354445 77.18248886 -21.27534894 70.89379169 -21.29809159 64.60410875 C-21.31911436 58.52565903 -21.3116289 52.44760731 -21.29177284 46.36915779 C-21.28593835 43.79484739 -21.28720266 41.22051047 -21.29579735 38.64620781 C-21.30381972 35.04429216 -21.27946421 31.44398406 -21.24659729 27.84223938 C-21.2551474 26.78692017 -21.26369751 25.73160095 -21.27250671 24.64430237 C-21.16367443 17.70734628 -19.73097561 12.77266805 -15.58375549 7.14717102 C-13.19703674 4.99092102 -13.19703674 4.99092102 -10.89625549 3.64717102 C-9.74576721 2.95107727 -9.74576721 2.95107727 -8.57203674 2.24092102 C-5.40933653 0.50112522 -3.61600382 0.01835502 0 0 Z M-4.58375549 19.14717102 C-5.03366373 21.30714592 -5.03366373 21.30714592 -4.96470642 23.73970032 C-4.97316589 24.68187408 -4.98162537 25.62404785 -4.99034119 26.59477234 C-4.98426849 27.62655609 -4.9781958 28.65833984 -4.97193909 29.72138977 C-4.97719604 30.80940887 -4.982453 31.89742798 -4.98786926 33.01841736 C-5.00110039 36.62398019 -4.99231987 40.2291035 -4.98219299 43.83467102 C-4.98421282 46.33426498 -4.9871235 48.83385838 -4.9908905 51.33345032 C-4.99531808 56.57576504 -4.98915377 61.81796489 -4.97486877 67.06025696 C-4.95854191 73.12188851 -4.96383035 79.18321736 -4.98034799 85.24484158 C-4.99559909 91.07491966 -4.99398901 96.90488263 -4.98520279 102.73497009 C-4.98319751 105.21655825 -4.98567149 107.6981541 -4.99264145 110.17973328 C-5.00023622 113.64434962 -4.98867879 117.10837974 -4.97193909 120.57295227 C-4.97801178 121.60473602 -4.98408447 122.63651978 -4.99034119 123.6995697 C-4.98188171 124.64174347 -4.97342224 125.58391724 -4.96470642 126.55464172 C-4.96357534 127.3739064 -4.96244427 128.19317108 -4.96127892 129.03726196 C-4.48176946 131.71715221 -3.8021431 132.58813045 -1.58375549 134.14717102 C0.5562317 134.59966812 0.5562317 134.59966812 2.96408081 134.53485107 C3.89639526 134.54475571 4.82870972 134.55466034 5.78927612 134.56486511 C6.81013809 134.56036346 7.83100006 134.55586182 8.88279724 134.55122375 C9.95945648 134.55808701 11.03611572 134.56495026 12.145401 134.57202148 C15.71367992 134.59036193 19.2815222 134.58644151 22.84983826 134.58076477 C25.32461694 134.58532312 27.79939436 134.59062765 30.27416992 134.59664917 C35.46521644 134.60559457 40.65610923 134.60314086 45.84715271 134.59321594 C52.50680896 134.58172536 59.16573048 134.601932 65.82534695 134.63113308 C70.93738183 134.64945987 76.04928886 134.6492096 81.16134834 134.64349556 C83.61699734 134.64334191 86.07265476 134.6494221 88.52827263 134.66178703 C91.95928792 134.67662796 95.3893134 134.66606969 98.82029724 134.64888 C99.83913498 134.65854797 100.85797272 134.66821594 101.90768433 134.67817688 C105.77409322 134.63751663 108.58902494 134.57781686 112.04614258 132.77806091 C114.27116827 128.50553383 113.9715368 124.29680599 113.93382263 119.55122375 C113.94083191 118.47281219 113.94784119 117.39440063 113.95506287 116.28330994 C113.97268097 112.71553366 113.96100672 109.14854923 113.94749451 105.58076477 C113.95018811 103.10501961 113.95406942 100.62927547 113.95909119 98.15353394 C113.96499127 92.96421743 113.95640571 87.77517625 113.93772888 82.58589172 C113.91492738 75.9250039 113.92806694 69.26502876 113.95201874 62.60412502 C113.96645249 57.49211751 113.96188197 52.38026349 113.95150757 47.26825142 C113.94883421 44.8117827 113.9521313 42.35530017 113.96142578 39.89884758 C113.97155239 36.47009572 113.95614401 33.04239691 113.93382263 29.61372375 C113.94191956 28.59286179 113.95001648 27.57199982 113.95835876 26.52020264 C113.94707947 25.58788818 113.93580017 24.65557373 113.92417908 23.69500732 C113.92191692 22.47912005 113.92191692 22.47912005 113.91960907 21.2386694 C113.57173468 19.00116587 113.57173468 19.00116587 111.67667484 17.38674068 C109.12115733 15.98535178 107.63844457 15.77026063 104.74142456 15.76622009 C103.80629028 15.75776062 102.87115601 15.74930115 101.90768433 15.74058533 C100.88884659 15.74665802 99.87000885 15.75273071 98.82029724 15.75898743 C97.2026799 15.75110199 97.2026799 15.75110199 95.55238342 15.74305725 C91.98472142 15.7298441 88.41750486 15.7385997 84.84983826 15.74873352 C82.37409377 15.74671332 79.89834987 15.74380234 77.42260742 15.74003601 C72.23333573 15.73561098 67.04421891 15.7420502 61.85496521 15.75605774 C55.19420816 15.77315853 48.53396451 15.76330383 41.87319851 15.74534035 C36.76121271 15.73451508 31.64931326 15.73794296 26.53732491 15.74572372 C24.08085653 15.74772874 21.62438037 15.74525595 19.16792107 15.73828506 C15.73933424 15.73069047 12.3113398 15.74224703 8.88279724 15.75898743 C7.35150429 15.74987839 7.35150429 15.74987839 5.78927612 15.74058533 C4.85696167 15.7490448 3.92464722 15.75750427 2.96408081 15.76622009 C1.74819354 15.76791671 1.74819354 15.76791671 0.50774288 15.7696476 C-2.16075934 16.25132241 -3.03038233 16.93757814 -4.58375549 19.14717102 Z " fill="#232121" transform="translate(42.58375549316406,15.852828979492188)"/>
<path d="M0 0 C9.25086944 6.92778115 14.22940563 14.89152985 16.23828125 26.26953125 C17.4522612 37.0990032 13.11250656 47.70084966 6.42578125 56.08203125 C0.21237383 62.81850613 -8.03521407 66.78457204 -17.12890625 67.5546875 C-29.25890204 67.85467664 -38.5832786 65.06512126 -47.51953125 56.60546875 C-54.88988561 48.49437526 -58.30396748 38.74206842 -58.00390625 27.83984375 C-56.98915521 17.07038915 -51.74854103 8.31759514 -43.51171875 1.39453125 C-30.31870723 -8.03223205 -13.82236289 -8.66097137 0 0 Z " fill="#FCFCFC" transform="translate(261.76171875,203.73046875)"/>
<path d="M0 0 C-0.33 0.66 -0.66 1.32 -1 2 C-3.31 2 -5.62 2 -8 2 C-8 1.34 -8 0.68 -8 0 C-5.13822943 -1.43088528 -3.06624227 -0.59991697 0 0 Z " fill="#272526" transform="translate(42,18)"/>
</svg>
