<?xml version="1.0" encoding="UTF-8"?>
<svg version="1.1" xmlns="http://www.w3.org/2000/svg" width="171" height="161">
<path d="M0 0 C56.43 0 112.86 0 171 0 C171 53.13 171 106.26 171 161 C114.57 161 58.14 161 0 161 C0 107.87 0 54.74 0 0 Z " fill="#686868" transform="translate(0,0)"/>
<path d="M0 0 C56.43 0 112.86 0 171 0 C171 53.13 171 106.26 171 161 C114.57 161 58.14 161 0 161 C0 107.87 0 54.74 0 0 Z M20.56201172 21.70654297 C17.83436908 25.71146247 16.41214693 29.93746139 15.0625 34.5625 C14.76891602 35.5532251 14.47533203 36.5439502 14.17285156 37.56469727 C12.19399916 44.85898625 11.32306884 51.8868482 11.25 59.4375 C11.23461182 60.37730713 11.21922363 61.31711426 11.20336914 62.28540039 C11.35056616 68.69453162 12.9257791 73.02820887 17 78 C20.03882082 81.10116597 20.03882082 81.10116597 24 82 C23.98334541 83.13846375 23.98334541 83.13846375 23.96635437 84.29992676 C23.86585661 91.47885587 23.78988653 98.65744032 23.74093914 105.83689117 C23.71492785 109.5273101 23.67968834 113.21714417 23.62280273 116.90722656 C23.56817539 120.47344141 23.53851588 124.03909643 23.52561378 127.60569763 C23.51198086 129.61756881 23.47299653 131.62921708 23.43351746 133.64074707 C23.43157212 140.03163108 23.63522421 144.96631839 27.23982239 150.36364746 C33.26364648 155.96370723 38.41366211 156.58259029 46.33813477 156.50170898 C47.86139877 156.50981346 47.86139877 156.50981346 49.41543579 156.51808167 C52.75772633 156.53054495 56.09915153 156.51409434 59.44140625 156.49609375 C61.77115423 156.49624878 64.10090246 156.49773844 66.4306488 156.50050354 C71.30699094 156.50188642 76.18303856 156.48934656 81.05932617 156.46655273 C87.30603389 156.43815306 93.55225296 156.44091138 99.79899693 156.45364285 C104.60743882 156.46060106 109.41576798 156.45280928 114.22419548 156.44038582 C116.52746079 156.43587385 118.8307382 156.43553229 121.13400459 156.43945122 C124.35334166 156.44236515 127.57200756 156.42584744 130.79125977 156.40405273 C131.74051834 156.40855438 132.68977692 156.41305603 133.6678009 156.41769409 C139.74660739 156.34940109 144.18498118 155.5435495 148.86328125 151.31640625 C149.58064453 150.44822266 149.58064453 150.44822266 150.3125 149.5625 C150.80363281 148.98628906 151.29476562 148.41007813 151.80078125 147.81640625 C154.22684363 144.14175151 154.12062707 140.40735659 154.11010742 136.1015625 C154.11068649 134.91353027 154.11126556 133.72549805 154.11186218 132.50146484 C154.10869743 130.58261475 154.10869743 130.58261475 154.10546875 128.625 C154.11891873 125.92185425 154.13382855 123.21875004 154.15039062 120.515625 C154.17473966 116.2492055 154.19039237 111.98327629 154.17504883 107.71679688 C154.16565205 104.93244485 154.17193127 102.14900943 154.19612122 99.36474609 C154.21869366 96.74277279 154.21847411 94.12048578 154.19340515 91.49853516 C154.31238055 82.84812547 154.31238055 82.84812547 156.33674622 80.35122681 C157.95898438 79.27978516 157.95898438 79.27978516 161 78 C162.45321727 76.23497481 162.45321727 76.23497481 163.3125 74.375 C164.20833333 72.58333333 165.10416667 70.79166667 166 69 C167.44331929 52.28701873 165.65031727 32.72375552 155 19 C150.41563107 14.16941177 145.847243 11.93965831 139.23184204 11.73257446 C137.27262981 11.71461861 135.31329763 11.70771257 133.35400391 11.70947266 C131.74580528 11.69939682 131.74580528 11.69939682 130.1051178 11.68911743 C126.56221884 11.67012532 123.01950919 11.66621266 119.4765625 11.6640625 C117.01182985 11.65763569 114.54709798 11.65090741 112.08236694 11.64389038 C106.91589591 11.63191476 101.74949175 11.62820989 96.58300781 11.62939453 C89.96638404 11.62959779 83.35018943 11.60228898 76.73366737 11.56785011 C71.6429752 11.54560165 66.55238667 11.54155636 61.46165085 11.54261398 C59.02242935 11.5402552 56.58320512 11.53141612 54.14403152 11.51594925 C50.73064444 11.49633071 47.31818756 11.50211182 43.90478516 11.51416016 C42.39742043 11.49730164 42.39742043 11.49730164 40.85960388 11.48010254 C31.76353857 11.56159474 26.36702991 14.67138673 20.56201172 21.70654297 Z " fill="#FEFEFE" transform="translate(0,0)"/>
<path d="M0 0 C0.61746094 0.433125 1.23492187 0.86625 1.87109375 1.3125 C6.85352 4.58861589 10.76438421 6.89880254 16.828125 6.46875 C21.80314529 5.39500461 25.81640619 2.78906254 30 0 C31.11375 0.928125 31.11375 0.928125 32.25 1.875 C36.79050225 5.38356992 39.92823075 6.44077761 45.6171875 6.328125 C50.73033082 5.62402002 54.78277082 2.81148612 59 0 C59.7425 0.61875 60.485 1.2375 61.25 1.875 C65.79050225 5.38356992 68.92823075 6.44077761 74.6171875 6.328125 C79.73033082 5.62402002 83.78277082 2.81148612 88 0 C88.680625 0.61875 89.36125 1.2375 90.0625 1.875 C93.3246621 4.23486194 96.13493288 4.98934641 100 6 C100.11599547 13.60609388 100.20476637 21.21209574 100.25906086 28.81887341 C100.28512388 32.35132845 100.32045866 35.88317713 100.37719727 39.4152832 C100.44206064 43.47873661 100.46620732 47.54155598 100.48828125 51.60546875 C100.51408768 52.8702153 100.5398941 54.13496185 100.56648254 55.43803406 C100.5680452 60.32411522 100.55244268 63.92123939 98.30664062 68.30664062 C92.90951751 71.07055424 87.57387035 70.61006306 81.60546875 70.48828125 C80.30297684 70.48120651 79.00048492 70.47413177 77.65852356 70.46684265 C74.20736116 70.44781513 70.75726261 70.39875439 67.30651855 70.34332275 C63.78066396 70.29203649 60.25463627 70.26930883 56.72851562 70.24414062 C49.81857531 70.19062898 42.90933883 70.10536972 36 70 C35.96241577 68.46291382 35.96241577 68.46291382 35.92407227 66.89477539 C35.83015516 63.10590324 35.72989683 59.31722119 35.62768555 55.52856445 C35.58427703 53.88635697 35.54260642 52.24410261 35.50268555 50.60180664 C35.4451256 48.24611255 35.38139108 45.89065572 35.31640625 43.53515625 C35.29969376 42.79660904 35.28298126 42.05806183 35.26576233 41.2971344 C35.46451987 37.85699373 35.46451987 37.85699373 34 35 C31.85441173 34.91224395 29.70595579 34.89304781 27.55859375 34.90234375 C26.25341797 34.90556641 24.94824219 34.90878906 23.60351562 34.91210938 C22.2148431 34.92046599 20.82617123 34.92893095 19.4375 34.9375 C18.04492344 34.94251334 16.65234519 34.94707653 15.25976562 34.95117188 C11.8398013 34.96300566 8.41992156 34.9794912 5 35 C3.50016915 37.9996617 3.76097945 41.11946961 3.68359375 44.4140625 C3.66281265 45.14370209 3.64203156 45.87334167 3.62062073 46.62509155 C3.55518083 48.95829763 3.49626632 51.29161721 3.4375 53.625 C3.39430947 55.20574095 3.35069501 56.78647039 3.30664062 58.3671875 C3.19950519 62.24467504 3.09822218 66.12227685 3 70 C1.43997572 70.1363128 -0.12357176 70.23259126 -1.6875 70.3125 C-2.55761719 70.37050781 -3.42773438 70.42851562 -4.32421875 70.48828125 C-7 70 -7 70 -9.80151367 68.31762695 C-13.29780521 63.04154637 -12.61447482 57.79008632 -12.48828125 51.60546875 C-12.48120651 50.30297684 -12.47413177 49.00048492 -12.46684265 47.65852356 C-12.44781513 44.20736116 -12.39875439 40.75726261 -12.34332275 37.30651855 C-12.29203649 33.78066396 -12.26930883 30.25463627 -12.24414062 26.72851562 C-12.19062898 19.81857531 -12.10536972 12.90933883 -12 6 C-11.45150391 5.80301514 -10.90300781 5.60603027 -10.33789062 5.40307617 C-9.61794922 5.13986572 -8.89800781 4.87665527 -8.15625 4.60546875 C-7.44275391 4.34660889 -6.72925781 4.08774902 -5.99414062 3.82104492 C-3.68448744 2.87009442 -1.87703777 1.64240805 0 0 Z " fill="#FCFCFC" transform="translate(45,77)"/>
<path d="M0 0 C0.90425217 -0.00571014 1.80850433 -0.01142029 2.74015808 -0.01730347 C3.73499207 -0.01842133 4.72982605 -0.01953918 5.75480652 -0.02069092 C7.32327583 -0.02813828 7.32327583 -0.02813828 8.9234314 -0.03573608 C12.39481761 -0.05038328 15.86615811 -0.05716412 19.33757019 -0.06268311 C21.7441203 -0.06843263 24.15067039 -0.07419038 26.55722046 -0.07995605 C31.60876174 -0.09047345 36.66028707 -0.09631122 41.71183777 -0.09979248 C48.1885346 -0.10527751 54.66502122 -0.12930281 61.14165211 -0.15776443 C66.11473203 -0.17637774 71.08776121 -0.18159573 76.06087303 -0.18312836 C78.44871354 -0.18615856 80.83655309 -0.19419941 83.22435951 -0.20731354 C86.56409871 -0.22434569 89.9033229 -0.22250042 93.24308777 -0.21600342 C94.23184906 -0.2252182 95.22061035 -0.23443298 96.23933411 -0.243927 C104.77741163 -0.19182965 104.77741163 -0.19182965 108.69303894 3.14044189 C113.31468454 10.3447718 113.77563023 16.19253456 115.69303894 25.14044189 C72.13303894 25.14044189 28.57303894 25.14044189 -16.30696106 25.14044189 C-14.17385526 8.07559548 -14.17385526 8.07559548 -8.68196106 2.45294189 C-5.4374666 0.6599318 -3.69142995 0.01393336 0 0 Z " fill="#FCFCFC" transform="translate(39.30696105957031,20.85955810546875)"/>
<path d="M0 0 C1.23999756 0.00410889 2.47999512 0.00821777 3.75756836 0.01245117 C4.41824814 0.01290939 5.07892792 0.01336761 5.7596283 0.01383972 C7.1558512 0.01686071 8.55207078 0.02474251 9.94824219 0.03710938 C12.09248709 0.05537796 14.2363006 0.05761898 16.38061523 0.05737305 C26.88747999 0.0954878 26.88747999 0.0954878 28.03491211 1.24291992 C28.25300967 5.50040419 28.22070372 9.76337716 28.22021484 14.02587891 C28.22239953 16.16808992 28.24054723 18.30978463 28.25952148 20.4519043 C28.2624557 21.80802232 28.26444031 23.1641428 28.26538086 24.52026367 C28.26948975 25.76026123 28.27359863 27.00025879 28.27783203 28.27783203 C28.03491211 31.24291992 28.03491211 31.24291992 26.03491211 33.24291992 C21.406354 33.70524149 16.74636414 33.56689882 12.09741211 33.55541992 C10.14544922 33.57958984 10.14544922 33.57958984 8.15405273 33.60424805 C6.28716797 33.60521484 6.28716797 33.60521484 4.38256836 33.60620117 C3.23796143 33.60918213 2.09335449 33.61216309 0.9140625 33.61523438 C-1.96508789 33.24291992 -1.96508789 33.24291992 -3.83911133 32.11694336 C-5.50019327 29.35231522 -5.33672228 27.1026418 -5.32836914 23.89526367 C-5.32772461 22.65067383 -5.32708008 21.40608398 -5.32641602 20.1237793 C-5.31030273 18.8224707 -5.29418945 17.52116211 -5.27758789 16.18041992 C-5.28081055 14.87524414 -5.2840332 13.57006836 -5.28735352 12.2253418 C-5.22007801 0.42766386 -5.22007801 0.42766386 0 0 Z " fill="#6C6C6C" transform="translate(100.965087890625,98.757080078125)"/>
<path d="M0 0 C4.95 0 9.9 0 15 0 C15 8.91 15 17.82 15 27 C10.05 27 5.1 27 0 27 C0 18.09 0 9.18 0 0 Z " fill="#FDFDFD" transform="translate(57,120)"/>
<path d="M0 0 C6.6 0 13.2 0 20 0 C20.40493156 12.28292408 20.40493156 12.28292408 17 17 C14.68162542 19.31837458 13.37238931 19.93523664 10.125 20.5 C5.7605549 19.80168878 4.14593082 18.07276963 1 15 C-1.13079691 10.73840618 -0.04502317 4.59236298 0 0 Z " fill="#FBFBFB" transform="translate(79,55)"/>
<path d="M0 0 C6.6 0 13.2 0 20 0 C20.40493156 12.28292408 20.40493156 12.28292408 17 17 C14.68162542 19.31837458 13.37238931 19.93523664 10.125 20.5 C5.7605549 19.80168878 4.14593082 18.07276963 1 15 C-1.13079691 10.73840618 -0.04502317 4.59236298 0 0 Z " fill="#FCFCFC" transform="translate(50,55)"/>
<path d="M0 0 C6.6 0 13.2 0 20 0 C20.40493156 12.28292408 20.40493156 12.28292408 17 17 C14.68162542 19.31837458 13.37238931 19.93523664 10.125 20.5 C5.7605549 19.80168878 4.14593082 18.07276963 1 15 C-1.13079691 10.73840618 -0.04502317 4.59236298 0 0 Z " fill="#FCFCFC" transform="translate(21,55)"/>
<path d="M0 0 C6.6 0 13.2 0 20 0 C20.53571429 12.05357143 20.53571429 12.05357143 18.25 15.625 C14.7833002 19.28429423 14.7833002 19.28429423 12 20 C7.62157356 20 5.55455067 19.42476222 2.0625 16.75 C-1.53870844 11.97192606 -0.2868213 5.62169748 0 0 Z " fill="#FCFCFC" transform="translate(137,55)"/>
<path d="M0 0 C6.6 0 13.2 0 20 0 C20.53571429 12.05357143 20.53571429 12.05357143 18.25 15.625 C14.7833002 19.28429423 14.7833002 19.28429423 12 20 C7.62157356 20 5.55455067 19.42476222 2.0625 16.75 C-1.53870844 11.97192606 -0.2868213 5.62169748 0 0 Z " fill="#FCFCFC" transform="translate(108,55)"/>
<path d="M0 0 C4.62 0 9.24 0 14 0 C14 4.95 14 9.9 14 15 C9.38 15 4.76 15 0 15 C0 10.05 0 5.1 0 0 Z " fill="#FFFFFF" transform="translate(106,108)"/>
</svg>
