<?xml version="1.0" encoding="utf-8"?>
<!-- Generator: Adobe Illustrator 24.3.0, SVG Export Plug-In . SVG Version: 6.00 Build 0)  -->
<svg version="1.1" id="Layer_1" xmlns="http://www.w3.org/2000/svg" xmlns:xlink="http://www.w3.org/1999/xlink" x="0px" y="0px"
	 viewBox="0 0 1024 1024" style="enable-background:new 0 0 1024 1024;" xml:space="preserve">
<style type="text/css">
	.st0{fill:#1E22AA;}
	.st1{fill:#00AFD7;}
</style>
<g>
	<path class="st0" d="M707.18,427.26c-56.2-28.43-99.96-57.48-99.96-107.85c0-58.93,48.87-97.74,145.16-97.74
		c46.84,0,90.64,10.48,136.55,32.44l114.89-109.44c-75.75-42.55-157.18-63.86-247.13-63.86c-199.78,0-321.95,104.93-321.95,257.28
		c0,109,72.54,163.59,150.53,205.29c90.65,48.47,188.67,79.53,188.67,158.34c0,60.36-41.68,97.74-113.54,97.74
		c-92.45,0-163.03-46.31-228.78-109.7l-106.1,101.07c86.24,96.3,192.6,152.36,321.95,152.36c178.22,0,301.83-90.55,301.83-248.65
		C949.29,527.42,808.14,478.33,707.18,427.26z"/>
	<path class="st0" d="M707.18,427.26c-56.2-28.43-99.96-57.48-99.96-107.85c0-58.93,48.87-97.74,145.16-97.74
		c46.84,0,90.64,10.48,136.55,32.44l114.89-109.44c-75.75-42.55-157.18-63.86-247.13-63.86c-199.78,0-321.95,104.93-321.95,257.28
		c0,109,72.54,163.59,150.53,205.29c90.65,48.47,188.67,79.53,188.67,158.34c0,60.36-41.68,97.74-113.54,97.74
		c-92.45,0-163.03-46.31-228.78-109.7l-106.1,101.07c86.24,96.3,192.6,152.36,321.95,152.36c178.22,0,301.83-90.55,301.83-248.65
		C949.29,527.42,808.14,478.33,707.18,427.26z"/>
	<g>
		<path class="st1" d="M281.27,406.38c-2.99-95.91,22.76-175.78,77.16-242.42l-9.02-4.21c-49.32-21.06-88.53-12.4-115.41,1.54
			c-23.13,11.99-41.59,31.31-54.48,53.95c-92.43,162.34,9.61,348.12,9.61,348.12c-0.71-0.3-1.43-0.59-2.14-0.88
			c-76.79-31-161.24,23.74-166.08,106.41l-0.73,12.48c20.26-5.35,42.12-8.7,63.96-9.38c62.93-1.96,122.42,16.22,170.34,49.71
			l106.1-101.07C313.87,565.29,284.07,496.13,281.27,406.38z"/>
	</g>
</g>
</svg>
