<?xml version="1.0" encoding="UTF-8"?>
<svg version="1.1" xmlns="http://www.w3.org/2000/svg" width="360" height="360">
<path d="M0 0 C3.64197947 2.99173854 6.94057605 6.24442373 10.20458984 9.640625 C10.86716797 10.29546875 11.52974609 10.9503125 12.21240234 11.625 C20.28287055 20.09356305 25.96492644 31.48936254 29.20458984 42.640625 C29.42888672 43.40117188 29.65318359 44.16171875 29.88427734 44.9453125 C40.05584005 86.32824571 13.81302315 139.6977522 -6.35205078 174.26074219 C-9.82343799 179.98453828 -13.72793317 185.33149714 -17.79541016 190.640625 C-18.38580078 191.4759375 -18.97619141 192.31125 -19.58447266 193.171875 C-24.84954 200.45812933 -32.03688866 207.89230922 -40.79541016 210.640625 C-46.89527357 211.58595457 -51.71218944 210.99617145 -56.74462891 207.35546875 C-70.44026479 195.90330846 -79.37472602 181.12693 -87.75439453 165.5625 C-88.74481799 163.73402592 -89.75838668 161.92068204 -90.77978516 160.109375 C-109.40369912 126.70258401 -129.21896854 80.8005847 -119.77197266 41.953125 C-113.73345334 21.47046748 -100.86110768 4.78876881 -82.13183594 -5.6809082 C-56.34965599 -19.52832001 -23.63706471 -17.89654287 0 0 Z M-90.36962891 22.75390625 C-100.24847866 34.50989653 -105.78699167 49.16656895 -105.23291016 64.62890625 C-101.43676647 105.84869974 -79.95874705 164.62739609 -47.79541016 192.640625 C-45.89518043 193.78938768 -45.89518043 193.78938768 -43.79541016 193.640625 C-11.84693372 171.37350506 4.22121698 114.54988388 12.20458984 78.640625 C12.47529297 77.42729492 12.47529297 77.42729492 12.75146484 76.18945312 C15.61104232 60.10432982 13.95308274 43.94056695 4.82958984 30.265625 C3.64294699 28.70720134 2.43536183 27.16443794 1.20458984 25.640625 C0.67091797 24.94453125 0.13724609 24.2484375 -0.41259766 23.53125 C-10.56724939 10.9958426 -24.94553181 4.41561138 -40.79541016 2.640625 C-59.87555132 1.42918747 -77.2890193 9.14437619 -90.36962891 22.75390625 Z " fill="#A1EA75" transform="translate(225.79541015625,63.359375)"/>
<path d="M0 0 C9.74838107 6.94901488 14.86003544 16.43020884 17.125 27.9609375 C17.228125 29.1159375 17.33125 30.2709375 17.4375 31.4609375 C17.50195312 32.11320312 17.56640625 32.76546875 17.6328125 33.4375 C18.14292169 42.78950179 15.17174532 52.51089618 9.125 59.69140625 C-0.12737547 69.39354998 -9.96105735 74.50079324 -23.3125 75.8359375 C-34.45293827 75.45942169 -45.22796967 70.16335971 -53.40234375 62.8046875 C-62.65932649 52.81751019 -64.18765895 41.43041866 -63.69433594 28.38476562 C-62.97654067 17.91027171 -56.9804463 9.11555001 -49.546875 2.02734375 C-34.87480481 -9.55434945 -15.62360575 -9.38369004 0 0 Z M-41.5625 18.4609375 C-46.36362973 25.47592149 -47.78405903 32.04963105 -46.5625 40.4609375 C-44.73866826 47.11056007 -40.14147701 51.61694961 -34.5625 55.4609375 C-28.58662573 58.39028763 -21.642324 58.6118338 -15.25 56.80859375 C-9.4020541 54.1473215 -4.27243377 49.95719383 -1.42578125 44.13671875 C0.89267624 37.45410599 1.34717627 30.8052608 -1.54296875 24.23046875 C-5.55160765 17.31589098 -10.74528925 13.18786291 -18.41015625 10.96875 C-26.47028136 9.06708709 -35.94206352 12.35874933 -41.5625 18.4609375 Z " fill="#91E676" transform="translate(203.5625,95.5390625)"/>
<path d="M0 0 C0.33 0 0.66 0 1 0 C1 2.64 1 5.28 1 8 C0.34 8 -0.32 8 -1 8 C-1.33 9.98 -1.66 11.96 -2 14 C-1.01 14.495 -1.01 14.495 0 15 C0 20 0 25 0 30 C1.65 30 3.3 30 5 30 C5.99928333 32.698065 6.03624754 33.88010429 5.1875 36.6875 C4 39 4 39 2 40 C1.25783657 41.61926566 0.52579659 43.24423176 -0.14453125 44.89453125 C-1.07312508 47.1799745 -2.06027258 49.43341975 -3.0625 51.6875 C-3.38347656 52.41324219 -3.70445312 53.13898438 -4.03515625 53.88671875 C-4.67532878 55.28887801 -5.35922286 56.67192764 -6.0859375 58.03125 C-7.21767418 60.22467609 -7.21767418 60.22467609 -7.5625 63.8125 C-10.93988672 79.75690709 -25.94297623 95.66816675 -37.5 106.1875 C-38.2321875 106.86167969 -38.964375 107.53585937 -39.71875 108.23046875 C-44.35733917 111.82855247 -48.7167902 112.52438107 -54.45703125 112.36328125 C-63.58338251 111.05951678 -70.98804366 102.15476468 -76.37304688 95.23583984 C-83.01644539 86.26538834 -88.67324145 76.73963516 -93.95898438 66.921875 C-94.94940784 65.09340092 -95.96297652 63.28005704 -96.984375 61.46875 C-101.25632617 53.80117264 -104.91862765 45.91517395 -108.4375 37.875 C-108.87505615 36.87847412 -109.3126123 35.88194824 -109.76342773 34.85522461 C-110.37359741 33.43802124 -110.37359741 33.43802124 -110.99609375 31.9921875 C-111.35888428 31.15026855 -111.7216748 30.30834961 -112.09545898 29.44091797 C-113.01083518 26.97076111 -113.55590453 24.59282319 -114 22 C-112.8944811 22.93590504 -111.79064547 23.87379858 -110.6875 24.8125 C-110.07261719 25.33457031 -109.45773438 25.85664063 -108.82421875 26.39453125 C-105.48047722 29.3373102 -105.48047722 29.3373102 -104 31 C-104 31.66 -104 32.32 -104 33 C-103.236875 33.103125 -102.47375 33.20625 -101.6875 33.3125 C-98.81583516 34.04711194 -97.76957906 34.6716065 -96 37 C-96 37.66 -96 38.32 -96 39 C-94.02 38.505 -94.02 38.505 -92 38 C-91.34 39.98 -90.68 41.96 -90 44 C-89.34 44 -88.68 44 -88 44 C-87.49339844 45.39025391 -87.49339844 45.39025391 -86.9765625 46.80859375 C-86.53054687 48.00613281 -86.08453125 49.20367187 -85.625 50.4375 C-85.18414062 51.63246094 -84.74328125 52.82742187 -84.2890625 54.05859375 C-83.32914764 57.10196898 -83.32914764 57.10196898 -81 58 C-80.71125 58.804375 -80.4225 59.60875 -80.125 60.4375 C-79.29006555 63.11734201 -79.29006555 63.11734201 -77.15625 63.828125 C-74.19566694 65.43713753 -73.1489949 67.46278478 -71.375 70.3125 C-68.34286717 75.010889 -65.20361139 79.55338133 -61.8125 84 C-61.4088623 84.53923096 -61.00522461 85.07846191 -60.58935547 85.6340332 C-58.04340169 88.9441893 -55.35512579 91.52090172 -52 94 C-28.61936864 83.19340149 -15.66586428 43.24813161 -7.42895508 20.90039062 C-3.61337012 10.48569281 -3.61337012 10.48569281 0 0 Z " fill="#A1E973" transform="translate(232,162)"/>
<path d="M0 0 C0.7314624 -0.00064453 1.4629248 -0.00128906 2.21655273 -0.00195312 C8.52427914 0.05874452 14.58038452 0.85609936 20.75 2.1875 C20.75 2.5175 20.75 2.8475 20.75 3.1875 C20.09628418 3.22190186 19.44256836 3.25630371 18.76904297 3.29174805 C0.2154449 4.29826098 0.2154449 4.29826098 -17.25 10.1875 C-18.14460938 10.61933594 -19.03921875 11.05117187 -19.9609375 11.49609375 C-34.18382506 19.22021576 -43.22437988 32.44913576 -47.75 47.6875 C-56.20404659 84.68817026 -32.96824332 130.77589826 -15.25 162.1875 C-16.24 162.5175 -17.23 162.8475 -18.25 163.1875 C-20.25 160.1875 -20.25 160.1875 -20.25 157.1875 C-21.24 156.8575 -22.23 156.5275 -23.25 156.1875 C-24.41796875 154.26171875 -24.41796875 154.26171875 -25.4375 151.875 C-25.95376953 150.70517578 -25.95376953 150.70517578 -26.48046875 149.51171875 C-27.25 147.1875 -27.25 147.1875 -27.25 143.1875 C-27.91 143.1875 -28.57 143.1875 -29.25 143.1875 C-29.724375 142.3625 -30.19875 141.5375 -30.6875 140.6875 C-31.203125 139.8625 -31.71875 139.0375 -32.25 138.1875 C-33.24 138.1875 -34.23 138.1875 -35.25 138.1875 C-35.25 137.5275 -35.25 136.8675 -35.25 136.1875 C-36.24 135.8575 -37.23 135.5275 -38.25 135.1875 C-38.25 134.5275 -38.25 133.8675 -38.25 133.1875 C-40.23 133.1875 -42.21 133.1875 -44.25 133.1875 C-44.34410156 132.60355469 -44.43820313 132.01960937 -44.53515625 131.41796875 C-45.40913569 128.69096185 -46.63063349 127.47134191 -48.6875 125.5 C-49.30496094 124.89800781 -49.92242187 124.29601562 -50.55859375 123.67578125 C-52.19393553 122.10923893 -52.19393553 122.10923893 -54.25 121.1875 C-55.81691122 117.67110924 -56.92413702 113.96779487 -58.125 110.3125 C-58.48215088 109.23218506 -58.83930176 108.15187012 -59.20727539 107.03881836 C-64.04442169 92.04841037 -67.40592078 76.86301694 -67.375 61.0625 C-67.37886719 60.39863281 -67.38273437 59.73476562 -67.38671875 59.05078125 C-67.37811635 54.65495393 -66.95751696 50.51121474 -66.25 46.1875 C-65.59 46.1875 -64.93 46.1875 -64.25 46.1875 C-63.92 45.1975 -63.59 44.2075 -63.25 43.1875 C-62.79882812 42.74535156 -62.34765625 42.30320313 -61.8828125 41.84765625 C-59.74779833 39.67688825 -58.54843925 37.31093687 -57.125 34.625 C-56.60679688 33.65433594 -56.08859375 32.68367188 -55.5546875 31.68359375 C-54.77455196 30.19105898 -54.00316286 28.69382573 -53.25 27.1875 C-52.59 27.1875 -51.93 27.1875 -51.25 27.1875 C-51.0128125 26.62804687 -50.775625 26.06859375 -50.53125 25.4921875 C-46.03230294 17.39956931 -37.50150878 11.09109838 -29.25 7.1875 C-28.59 7.1875 -27.93 7.1875 -27.25 7.1875 C-27.25 6.5275 -27.25 5.8675 -27.25 5.1875 C-25.58769459 4.53052268 -23.91985652 3.88754033 -22.25 3.25 C-20.8578125 2.71052734 -20.8578125 2.71052734 -19.4375 2.16015625 C-13.07106293 0.2174567 -6.60841802 -0.00611961 0 0 Z " fill="#6ADE7D" transform="translate(171.25,62.8125)"/>
<path d="M0 0 C2.73670015 3.03255962 3.39564403 4.48844234 3.3125 8.5625 C1.79760723 13.51114971 -0.72444002 15.96636512 -5.125 18.39453125 C-22.56201958 26.34219718 -45.32316859 26.33580274 -63.51953125 20.8359375 C-68.68611409 18.75911135 -73.88622364 16.45026051 -76.91796875 11.58984375 C-78.17414772 8.28041793 -77.57513395 5.93550902 -76.6875 2.5625 C-71.08445937 -4.96658585 -60.73351497 -7.78557972 -51.80761719 -9.19873047 C-34.68172093 -11.12746452 -14.38548431 -10.64319842 0 0 Z " fill="#58D981" transform="translate(217.6875,291.4375)"/>
<path d="M0 0 C4.71703825 3.05380511 8.91370919 6.24236402 12 11 C12.1875 13.75 12.1875 13.75 12 16 C12.66 16 13.32 16 14 16 C14.495 20.455 14.495 20.455 15 25 C15.66 25 16.32 25 17 25 C18.22377673 33.41346505 18.82176978 40.83171907 16 49 C15.82855469 49.64839844 15.65710938 50.29679687 15.48046875 50.96484375 C13.66334037 57.07273977 9.98521199 60.21076523 5 64 C4.87625 63.360625 4.7525 62.72125 4.625 62.0625 C4.41875 61.381875 4.2125 60.70125 4 60 C1.71546567 58.85773284 -0.62508799 57.93746527 -3 57 C-0.25 50.125 -0.25 50.125 2 49 C4.37965851 43.44746347 5.83583372 37.91670393 7 32 C6.34 32 5.68 32 5 32 C2.875 25.25 2.875 25.25 4 23 C3.34 22.67 2.68 22.34 2 22 C1.505 20.515 1.505 20.515 1 19 C-0.65948148 17.98812105 -2.32580562 16.9873454 -4 16 C-4 15.34 -4 14.68 -4 14 C-5.41601714 13.51891725 -6.83284437 13.04021859 -8.25 12.5625 C-9.03890625 12.29566406 -9.8278125 12.02882813 -10.640625 11.75390625 C-21.44237668 8.30235315 -32.32425237 8.82806468 -42.546875 13.7109375 C-43.35640625 14.13632813 -44.1659375 14.56171875 -45 15 C-45.74894531 15.34933594 -46.49789062 15.69867188 -47.26953125 16.05859375 C-49.59988609 17.32634887 -49.8932847 18.59126669 -51 21 C-52.2577401 22.80029465 -53.56065172 24.56003746 -54.87890625 26.31640625 C-56.18551179 28.11886765 -56.18551179 28.11886765 -57 31 C-57.99 31 -58.98 31 -60 31 C-60 35.29 -60 39.58 -60 44 C-60.33 44 -60.66 44 -61 44 C-61.52536966 28.31674287 -59.73034493 17.24032949 -48.75 5.25 C-35.56558985 -7.32186012 -15.5915928 -8.24952 0 0 Z " fill="#92E878" transform="translate(201,94)"/>
<path d="M0 0 C3.8402766 3.20291977 5.13286204 6.44770888 6.25 11.1875 C6.41693359 11.89455078 6.58386719 12.60160156 6.75585938 13.33007812 C14.93960288 51.17571645 -5.43303785 98.79119629 -24 131 C-24.33 131 -24.66 131 -25 131 C-25.56047826 126.51617392 -24.05531145 123.74352076 -22.0078125 119.90625 C-20.92372251 117.93694295 -20.92372251 117.93694295 -20 115.5 C-18.55574542 111.88936355 -16.76898607 108.46068634 -15 105 C-14.34 105 -13.68 105 -13 105 C-12.32198966 102.09926819 -12.32198966 102.09926819 -12 99 C-13.9254644 96.7763932 -13.9254644 96.7763932 -17 96 C-17 95.01 -17 94.02 -17 93 C-17.66 92.67 -18.32 92.34 -19 92 C-18.835 91.29875 -18.67 90.5975 -18.5 89.875 C-17.80090043 85.85517745 -17.74359708 82.25352537 -18.5625 78.25 C-19 76 -19 76 -18 74 C-17.34 74 -16.68 74 -16 74 C-16.05800781 73.37738281 -16.11601562 72.75476563 -16.17578125 72.11328125 C-16.57761399 63.88145056 -14.95991091 56.66614371 -12.86645508 48.73950195 C-11.32661854 42.82909141 -10.43012418 37.09356192 -10 31 C-9.34 31 -8.68 31 -8 31 C-8 29.35 -8 27.7 -8 26 C-7.34 26 -6.68 26 -6 26 C-5.30580437 24.34461042 -4.64896236 22.67363977 -4 21 C-3.74734375 20.36835937 -3.4946875 19.73671875 -3.234375 19.0859375 C-0.89927565 12.79032651 -0.32776365 6.6795972 0 0 Z " fill="#85E17A" transform="translate(249,96)"/>
<path d="M0 0 C0.78568359 0.00128906 1.57136719 0.00257813 2.38085938 0.00390625 C7.00737397 0.07359434 10.6962491 0.72456948 15.0625 2.375 C16.84712483 2.78219609 18.63891478 3.15972712 20.4375 3.5 C21.31148437 3.66757812 22.18546875 3.83515625 23.0859375 4.0078125 C23.73820312 4.12898438 24.39046875 4.25015625 25.0625 4.375 C26.15908936 7.66476808 25.86203138 9.08803767 25.0625 12.375 C27.7025 11.715 30.3425 11.055 33.0625 10.375 C34.0525 12.355 35.0425 14.335 36.0625 16.375 C35.4025 16.375 34.7425 16.375 34.0625 16.375 C33.753125 17.15875 33.44375 17.9425 33.125 18.75 C32.0625 21.375 32.0625 21.375 31.0625 23.375 C19.7215359 27.93649479 6.62863031 27.62585832 -4.7578125 23.3046875 C-5.83675781 22.84449219 -5.83675781 22.84449219 -6.9375 22.375 C-6.9375 21.715 -6.9375 21.055 -6.9375 20.375 C-7.515 20.2925 -8.0925 20.21 -8.6875 20.125 C-11.69583512 19.12222163 -12.98457016 17.86666911 -14.9375 15.375 C-15.90707944 12.11998332 -16.09923435 10.05428427 -15.3125 6.75 C-11.5155321 0.1916009 -6.93216308 -0.21503853 0 0 Z " fill="#84E57B" transform="translate(182.9375,283.625)"/>
<path d="M0 0 C0.33 0 0.66 0 1 0 C1.01458252 0.87213135 1.02916504 1.7442627 1.04418945 2.64282227 C1.10557372 5.90659996 1.17978388 9.16957957 1.26245117 12.43286133 C1.29551994 13.8399778 1.32360704 15.24722116 1.34643555 16.65454102 C1.38031799 18.68820824 1.43264218 20.72073135 1.48828125 22.75390625 C1.51446533 23.97408447 1.54064941 25.1942627 1.56762695 26.45141602 C2.05160566 30.42353942 3.32402226 33.38443166 5 37 C5.6159668 39.17163086 5.6159668 39.17163086 5.94921875 40.96484375 C6.13774414 41.94614258 6.13774414 41.94614258 6.33007812 42.94726562 C6.44802734 43.60404297 6.56597656 44.26082031 6.6875 44.9375 C6.81705078 45.62134766 6.94660156 46.30519531 7.08007812 47.00976562 C7.39389598 48.67183798 7.69799166 50.33574127 8 52 C10.0745356 52.1490712 10.0745356 52.1490712 12 51 C11.67 52.98 11.34 54.96 11 57 C11.66 57 12.32 57 13 57 C13.495 54.03 13.495 54.03 14 51 C14.66 51 15.32 51 16 51 C15.505 48.525 15.505 48.525 15 46 C15.66 46 16.32 46 17 46 C17.33 44.68 17.66 43.36 18 42 C18.33 43.98 18.66 45.96 19 48 C19.99 47.34 20.98 46.68 22 46 C22.21503174 46.68175293 22.43006348 47.36350586 22.65161133 48.06591797 C30.14037876 71.61888739 38.82950494 94.42366554 51 116 C50.01 116.33 49.02 116.66 48 117 C46 114 46 114 46 111 C45.01 110.67 44.02 110.34 43 110 C41.83203125 108.07421875 41.83203125 108.07421875 40.8125 105.6875 C40.29623047 104.51767578 40.29623047 104.51767578 39.76953125 103.32421875 C39 101 39 101 39 97 C38.34 97 37.68 97 37 97 C36.525625 96.175 36.05125 95.35 35.5625 94.5 C34.7890625 93.2625 34.7890625 93.2625 34 92 C33.01 92 32.02 92 31 92 C31 91.34 31 90.68 31 90 C29.515 89.505 29.515 89.505 28 89 C28 88.34 28 87.68 28 87 C26.02 87 24.04 87 22 87 C21.85884766 86.12408203 21.85884766 86.12408203 21.71484375 85.23046875 C20.84086431 82.50346185 19.61936651 81.28384191 17.5625 79.3125 C16.94503906 78.71050781 16.32757813 78.10851562 15.69140625 77.48828125 C14.05606447 75.92173893 14.05606447 75.92173893 12 75 C10.43308878 71.48360924 9.32586298 67.78029487 8.125 64.125 C7.76784912 63.04468506 7.41069824 61.96437012 7.04272461 60.85131836 C2.20557831 45.86091037 -1.15592078 30.67551694 -1.125 14.875 C-1.12886719 14.21113281 -1.13273437 13.54726562 -1.13671875 12.86328125 C-1.12811635 8.46745393 -0.70751696 4.32371474 0 0 Z " fill="#7FE37B" transform="translate(105,109)"/>
<path d="M0 0 C5.04200673 3.19861409 9.46845003 6.43059007 12 12 C9.08482708 10.92598892 7.22189824 10.22189824 5 8 C2.41645782 7.83312552 2.41645782 7.83312552 0 8 C-0.495 5.525 -0.495 5.525 -1 3 C-2.258125 3.391875 -3.51625 3.78375 -4.8125 4.1875 C-7.01953125 4.74609375 -7.01953125 4.74609375 -9 5 C-11 3.75 -11 3.75 -12 2 C-12 1.34 -12 0.68 -12 0 C-16.96073422 -1.32286246 -21.91111512 -1.08893197 -27 -1 C-25.63016497 2.16115776 -25.0109362 2.9927092 -22 5 C-26.25456968 7.70745343 -30.24134234 9.48700905 -35.0625 11 C-39.70457705 12.46408438 -43.10692926 14.13142156 -47 17 C-47.66 17 -48.32 17 -49 17 C-49.226875 17.515625 -49.45375 18.03125 -49.6875 18.5625 C-51.18821778 21.34954731 -52.98144856 23.78833948 -54.87890625 26.31640625 C-56.18551179 28.11886765 -56.18551179 28.11886765 -57 31 C-57.99 31 -58.98 31 -60 31 C-60 35.29 -60 39.58 -60 44 C-60.33 44 -60.66 44 -61 44 C-61.52536966 28.31674287 -59.73034493 17.24032949 -48.75 5.25 C-35.55663317 -7.33040067 -15.60270557 -8.23476127 0 0 Z " fill="#A2E974" transform="translate(201,94)"/>
<path d="M0 0 C0.99 0.33 1.98 0.66 3 1 C3 1.66 3 2.32 3 3 C4.1446875 3.1546875 4.1446875 3.1546875 5.3125 3.3125 C8.18416484 4.04711194 9.23042094 4.6716065 11 7 C11 7.66 11 8.32 11 9 C12.32 8.67 13.64 8.34 15 8 C15.66 9.98 16.32 11.96 17 14 C17.66 14 18.32 14 19 14 C19.33773437 14.92683594 19.67546875 15.85367188 20.0234375 16.80859375 C20.46945313 18.00613281 20.91546875 19.20367187 21.375 20.4375 C21.81585938 21.63246094 22.25671875 22.82742187 22.7109375 24.05859375 C23.67085236 27.10196898 23.67085236 27.10196898 26 28 C26.28875 28.804375 26.5775 29.60875 26.875 30.4375 C27.77050152 33.13605515 27.77050152 33.13605515 30.125 34.3125 C30.74375 34.539375 31.3625 34.76625 32 35 C31.67 35.66 31.34 36.32 31 37 C30.34 36.67 29.68 36.34 29 36 C28.67 38.31 28.34 40.62 28 43 C28.66 43 29.32 43 30 43 C30 43.66 30 44.32 30 45 C29.34 45 28.68 45 28 45 C27.67 45.99 27.34 46.98 27 48 C27 47.01 27 46.02 27 45 C26.01 45 25.02 45 24 45 C24 45.99 24 46.98 24 48 C23.34 48 22.68 48 22 48 C17.74721875 43.47284576 15.21672287 38.08361433 14 32 C13.34 32 12.68 32 12 32 C11.47026689 30.37787941 10.95146893 28.75218416 10.4375 27.125 C10.14746094 26.22007812 9.85742188 25.31515625 9.55859375 24.3828125 C9 22 9 22 10 20 C9.401875 19.979375 8.80375 19.95875 8.1875 19.9375 C6 19 6 19 4.3125 15.6875 C3.38889095 13.09259839 2.64166295 10.65831793 2 8 C1.649375 7.34 1.29875 6.68 0.9375 6 C0 4 0 4 0 0 Z " fill="#A2EA73" transform="translate(125,192)"/>
<path d="M0 0 C0.66 0.99 1.32 1.98 2 3 C4.05003955 4.19232613 4.05003955 4.19232613 6 5 C6 5.99 6 6.98 6 8 C6.99 8.33 7.98 8.66 9 9 C8.67 9.99 8.34 10.98 8 12 C8.27571139 14.00875442 8.60235737 16.01178687 9 18 C9.66 18 10.32 18 11 18 C11 19.98 11 21.96 11 24 C10.34 24 9.68 24 9 24 C9.30164063 24.86431641 9.30164063 24.86431641 9.609375 25.74609375 C10.09162031 28.52864917 9.56150853 29.59629374 8.25 32.0625 C7.90453125 32.73410156 7.5590625 33.40570313 7.203125 34.09765625 C5.52854356 36.74545223 3.93407793 38.57815835 1.0625 39.875 C-1.22230045 40.93615305 -1.22230045 40.93615305 -2.875 43.5 C-5.52431658 46.61684304 -7.00188789 47.18556976 -11 48 C-17.37346256 48.50260527 -22.88799309 47.81096501 -29 46 C-29 45.34 -29 44.68 -29 44 C-29.556875 43.7525 -30.11375 43.505 -30.6875 43.25 C-36.08841983 40.33058388 -39.68049615 36.73114158 -42 31 C-42.49673831 27.93460173 -42.47260867 24.97279091 -42.375 21.875 C-42.37371094 21.08996094 -42.37242187 20.30492187 -42.37109375 19.49609375 C-42.30644607 15.23653016 -41.94816048 11.88073567 -40 8 C-39.34 8 -38.68 8 -38 8 C-37.7525 7.443125 -37.505 6.88625 -37.25 6.3125 C-35.78393985 3.60028873 -33.97010529 1.36412635 -32 -1 C-32.928125 -0.525625 -33.85625 -0.05125 -34.8125 0.4375 C-38 2 -38 2 -41 3 C-41.33 4.65 -41.66 6.3 -42 8 C-42.556875 8.061875 -43.11375 8.12375 -43.6875 8.1875 C-46.94987173 9.33373872 -48.68667874 11.49390197 -51 14 C-51 9.2048822 -48.23181742 6.37871821 -45 3 C-31.44616175 -7.02282214 -14.81701495 -8.29659354 0 0 Z M-35 6 C-39.80112973 13.01498399 -41.22155903 19.58869355 -40 28 C-38.17616826 34.64962257 -33.57897701 39.15601211 -28 43 C-22.02412573 45.92935013 -15.079824 46.1508963 -8.6875 44.34765625 C-2.8395541 41.686384 2.29006623 37.49625633 5.13671875 31.67578125 C7.45517624 24.99316849 7.90967627 18.3443233 5.01953125 11.76953125 C1.01089235 4.85495348 -4.18278925 0.72692541 -11.84765625 -1.4921875 C-19.90778136 -3.39385041 -29.37956352 -0.10218817 -35 6 Z " fill="#73BE74" transform="translate(197,108)"/>
<path d="M0 0 C0 0.33 0 0.66 0 1 C-0.65371582 1.03440186 -1.30743164 1.06880371 -1.98095703 1.10424805 C-20.5345551 2.11076098 -20.5345551 2.11076098 -38 8 C-38.89460938 8.43183594 -39.78921875 8.86367187 -40.7109375 9.30859375 C-54.93382506 17.03271576 -63.97437988 30.26163576 -68.5 45.5 C-71.24616972 57.41641504 -70.18239871 67.87208143 -67.3359375 79.60449219 C-67.15160156 80.37696289 -66.96726562 81.14943359 -66.77734375 81.9453125 C-66.51812134 82.97422607 -66.51812134 82.97422607 -66.25366211 84.02392578 C-65.96519356 86.27114853 -66.32572827 87.85325326 -67 90 C-68.42258812 86.17679443 -69.24042276 83.08718695 -69 79 C-69.66 79 -70.32 79 -71 79 C-73.04426222 72.25068983 -73.3021796 66.026853 -73.25 59 C-73.25773437 57.9584375 -73.26546875 56.916875 -73.2734375 55.84375 C-73.25837073 49.87730776 -72.73081808 44.71444699 -71 39 C-70.34 39 -69.68 39 -69 39 C-68.855625 38.236875 -68.71125 37.47375 -68.5625 36.6875 C-68 34 -68 34 -67 31 C-66.34 31 -65.68 31 -65 31 C-64.731875 30.2575 -64.46375 29.515 -64.1875 28.75 C-63 26 -63 26 -61.5 24.0625 C-59.79648375 21.97188709 -59.79648375 21.97188709 -59.125 18.875 C-58 16 -58 16 -55.4375 14.75 C-54.633125 14.5025 -53.82875 14.255 -53 14 C-52.67 13.34 -52.34 12.68 -52 12 C-50.88625 11.4225 -49.7725 10.845 -48.625 10.25 C-44.88696989 8.2236346 -43.54568606 6.00059922 -42 2 C-41.34 2 -40.68 2 -40 2 C-40 1.34 -40 0.68 -40 0 C-26.78176401 -3.19749985 -13.24896155 -2.8591208 0 0 Z " fill="#6ACA72" transform="translate(192,65)"/>
<path d="M0 0 C3.84183325 3.20421807 5.12882998 6.44772061 6.25 11.1875 C6.50366333 12.22958618 6.50366333 12.22958618 6.76245117 13.29272461 C8.9630406 23.22925791 8.96976462 34.0240953 7 44 C6.01 44.495 6.01 44.495 5 45 C4.34 45.99 3.68 46.98 3 48 C2.34 48 1.68 48 1 48 C1.61277612 45.03824877 2.25372522 43.61941217 4 41 C3.34 40.67 2.68 40.34 2 40 C1.40644386 37.35139573 1.25790731 34.70802678 1 32 C-1.97 32.495 -1.97 32.495 -5 33 C-5.12117187 33.63808594 -5.24234375 34.27617187 -5.3671875 34.93359375 C-5.53476563 35.75988281 -5.70234375 36.58617187 -5.875 37.4375 C-6.03742188 38.26121094 -6.19984375 39.08492187 -6.3671875 39.93359375 C-6.57601562 40.61550781 -6.78484375 41.29742187 -7 42 C-7.99 42.495 -7.99 42.495 -9 43 C-9.33 39.04 -9.66 35.08 -10 31 C-9.34 31 -8.68 31 -8 31 C-8 29.35 -8 27.7 -8 26 C-7.34 26 -6.68 26 -6 26 C-5.30580437 24.34461042 -4.64896236 22.67363977 -4 21 C-3.62101563 20.05253906 -3.62101563 20.05253906 -3.234375 19.0859375 C-0.89927565 12.79032651 -0.32776365 6.6795972 0 0 Z " fill="#6ADD80" transform="translate(249,96)"/>
<path d="M0 0 C0.66 0.33 1.32 0.66 2 1 C1.50628906 1.48210937 1.01257813 1.96421875 0.50390625 2.4609375 C-0.45708984 3.40839844 -0.45708984 3.40839844 -1.4375 4.375 C-2.07558594 5.00148438 -2.71367187 5.62796875 -3.37109375 6.2734375 C-5.07882176 7.91723061 -5.07882176 7.91723061 -6 10 C-6.66 10 -7.32 10 -8 10 C-9.20192374 14.71230417 -9.1482434 19.29812045 -9.125 24.125 C-9.12886719 24.93582031 -9.13273438 25.74664062 -9.13671875 26.58203125 C-9.13478516 27.75185547 -9.13478516 27.75185547 -9.1328125 28.9453125 C-9.13168457 29.65187988 -9.13055664 30.35844727 -9.12939453 31.08642578 C-9.06552723 33.22259189 -9.06552723 33.22259189 -8 36 C-7.34 36.33 -6.68 36.66 -6 37 C-8.97 37.66 -11.94 38.32 -15 39 C-15 40.98 -15 42.96 -15 45 C-15.99 44.67 -16.98 44.34 -18 44 C-18 42.68 -18 41.36 -18 40 C-18.66 40 -19.32 40 -20 40 C-21.84719408 35.29075026 -22.24271251 31.35691551 -22.1875 26.3125 C-22.17783203 24.35763672 -22.17783203 24.35763672 -22.16796875 22.36328125 C-22 19 -22 19 -21 16 C-19.34928604 14.97388051 -17.68029994 13.97691857 -16 13 C-15.278125 12.278125 -14.55625 11.55625 -13.8125 10.8125 C-13.214375 10.214375 -12.61625 9.61625 -12 9 C-11.34 9 -10.68 9 -10 9 C-9.95875 8.4225 -9.9175 7.845 -9.875 7.25 C-8.54500609 3.83001567 -6.09911668 2.79748768 -3 1 C-2.01 0.67 -1.02 0.34 0 0 Z " fill="#66DE7E" transform="translate(165,106)"/>
<path d="M0 0 C0 0.33 0 0.66 0 1 C-0.85118408 0.96447021 -1.70236816 0.92894043 -2.5793457 0.89233398 C-5.79041273 0.76176382 -9.00165259 0.63771259 -12.21313477 0.51782227 C-13.5931171 0.46502378 -14.97300766 0.4097582 -16.3527832 0.35180664 C-23.84614396 0.03878939 -31.16608588 -0.11432313 -38.62646484 0.73535156 C-41.18713099 1.02086505 -43.74017291 1.17223679 -46.3125 1.3125 C-50.80317438 1.73882985 -53.33053127 3.35456906 -57 6 C-59.875 6.25 -59.875 6.25 -62 6 C-62.33 7.32 -62.66 8.64 -63 10 C-64.65 10.33 -66.3 10.66 -68 11 C-68 11.66 -68 12.32 -68 13 C-69.53588937 14.32778223 -71.13029582 15.58835941 -72.75 16.8125 C-76.42742209 19.59207196 -79.1669978 22.37252545 -82 26 C-82.66 26.33 -83.32 26.66 -84 27 C-84.65555119 29.52733235 -84.65555119 29.52733235 -85 32 C-86.485 32.495 -86.485 32.495 -88 33 C-89.01754868 34.8653245 -89.01754868 34.8653245 -89.6875 37.0625 C-89.93886719 37.79597656 -90.19023438 38.52945313 -90.44921875 39.28515625 C-90.63097656 39.85105469 -90.81273438 40.41695312 -91 41 C-91.66 41 -92.32 41 -93 41 C-94.08285394 43.52665918 -94.96583709 45.77224724 -95.375 48.5 C-96.17904975 51.716199 -97.82566026 53.5451003 -100 56 C-98.35364201 38.87787693 -87.04059379 23.66743012 -74.4453125 12.71484375 C-53.06146433 -4.83840859 -25.93066562 -8.21565643 0 0 Z " fill="#ACD382" transform="translate(206,53)"/>
<path d="M0 0 C5.48942338 5.8680043 7.29797424 13.13731154 8 21 C8.06445312 21.65226562 8.12890625 22.30453125 8.1953125 22.9765625 C8.70542169 32.32856429 5.73424532 42.04995868 -0.3125 49.23046875 C-9.56487547 58.93261248 -19.39855735 64.03985574 -32.75 65.375 C-43.89043827 64.99848419 -54.66546967 59.70242221 -62.83984375 52.34375 C-64.41437231 50.64502198 -65.70841931 48.92162006 -67 47 C-67.4846875 46.3296875 -67.969375 45.659375 -68.46875 44.96875 C-73.43977248 36.90464686 -72.44693423 28.11745823 -72 19 C-71.34 19 -70.68 19 -70 19 C-68.93030016 22.20909953 -68.93228158 24.44774092 -69 27.8125 C-69.04063594 32.00308169 -68.91378432 35.88797057 -68 40 C-67.34 40 -66.68 40 -66 40 C-65.67 41.98 -65.34 43.96 -65 46 C-64.34 46 -63.68 46 -63 46 C-62.34 46.99 -61.68 47.98 -61 49 C-60.01 49.33 -59.02 49.66 -58 50 C-58 51.32 -58 52.64 -58 54 C-57.34 54 -56.68 54 -56 54 C-56 54.66 -56 55.32 -56 56 C-55.154375 56.0825 -54.30875 56.165 -53.4375 56.25 C-50 57 -50 57 -47 59 C-42.12999949 61.8705471 -37.08601017 61.6709387 -31.5625 61.75 C-30.03592773 61.79447266 -30.03592773 61.79447266 -28.47851562 61.83984375 C-25.98559972 61.91006673 -23.49359301 61.96299645 -21 62 C-21 61.34 -21 60.68 -21 60 C-19.68 60 -18.36 60 -17 60 C-17 59.34 -17 58.68 -17 58 C-10.25 54 -10.25 54 -8 54 C-7.773125 53.443125 -7.54625 52.88625 -7.3125 52.3125 C-5.62449964 49.33840412 -3.53323483 47.27991135 -1 45 C-0.34 45 0.32 45 1 45 C1.12375 43.906875 1.2475 42.81375 1.375 41.6875 C2 38 2 38 4 35 C5.31980428 30.45954124 5.11354151 25.87153979 5.0625 21.1875 C5.05798828 20.39923828 5.05347656 19.61097656 5.04882812 18.79882812 C5.03711312 16.86585239 5.01917998 14.93291607 5 13 C4.34 13 3.68 13 3 13 C2.505 8.545 2.505 8.545 2 4 C1.34 4 0.68 4 0 4 C0 2.68 0 1.36 0 0 Z " fill="#8FBF7D" transform="translate(213,106)"/>
<path d="M0 0 C1.14926266 0.95421808 2.29430541 1.91352045 3.4375 2.875 C4.07558594 3.40867188 4.71367188 3.94234375 5.37109375 4.4921875 C7 6 7 6 8 8 C7.95875 8.969375 7.9175 9.93875 7.875 10.9375 C7.66856257 13.97762155 7.66856257 13.97762155 9.4375 15.5625 C9.953125 16.036875 10.46875 16.51125 11 17 C11.625 19.375 11.625 19.375 12 22 C12.185625 22.928125 12.37125 23.85625 12.5625 24.8125 C12.706875 25.534375 12.85125 26.25625 13 27 C14.32 27.33 15.64 27.66 17 28 C17.144375 29.051875 17.28875 30.10375 17.4375 31.1875 C17.87526966 34.15460549 18.37804866 37.06794366 19 40 C19.66 40 20.32 40 21 40 C21.25394531 40.51949219 21.50789063 41.03898437 21.76953125 41.57421875 C25.30956932 48.7564116 25.30956932 48.7564116 29.875 55.3125 C37 64.32352941 37 64.32352941 37 68 C37.66 68 38.32 68 39 68 C42.11997802 71.30350614 43 72.32409833 43 77 C43.66 77 44.32 77 45 77 C45 77.66 45 78.32 45 79 C45.66 79 46.32 79 47 79 C48.11375 80.1446875 48.11375 80.1446875 49.25 81.3125 C54.2854264 86.23348489 57.92448593 87.17242296 64.875 87.1875 C66.91705977 87.13953215 68.95901391 87.08176057 71 87 C70.67 87.66 70.34 88.32 70 89 C65.09389904 90.63536699 59.84724415 91.04701661 54.91796875 89.234375 C38.60347836 79.79788769 28.67889279 60.96590279 20.04101562 44.921875 C19.05059216 43.09340092 18.03702348 41.28005704 17.015625 39.46875 C12.74367383 31.80117264 9.08137235 23.91517395 5.5625 15.875 C5.12494385 14.87847412 4.6873877 13.88194824 4.23657227 12.85522461 C3.82979248 11.91042236 3.4230127 10.96562012 3.00390625 9.9921875 C2.64111572 9.15026855 2.2783252 8.30834961 1.90454102 7.44091797 C0.98916482 4.97076111 0.44409547 2.59282319 0 0 Z " fill="#9ED075" transform="translate(118,184)"/>
<path d="M0 0 C5.04200673 3.19861409 9.46845003 6.43059007 12 12 C9.08482708 10.92598892 7.22189824 10.22189824 5 8 C2.41645782 7.83312552 2.41645782 7.83312552 0 8 C-0.495 5.525 -0.495 5.525 -1 3 C-2.258125 3.391875 -3.51625 3.78375 -4.8125 4.1875 C-7.01953125 4.74609375 -7.01953125 4.74609375 -9 5 C-11 3.75 -11 3.75 -12 2 C-12 1.34 -12 0.68 -12 0 C-20.54787181 -1.96538658 -29.38009844 -1.14932021 -38 0 C-38 0.66 -38 1.32 -38 2 C-42.47058824 6 -42.47058824 6 -45 6 C-45 6.99 -45 7.98 -45 9 C-45.9793879 10.02019573 -46.97895449 11.02149805 -48 12 C-48 12.66 -48 13.32 -48 14 C-49.65 14 -51.3 14 -53 14 C-53.268125 14.556875 -53.53625 15.11375 -53.8125 15.6875 C-55.10122647 18.19712523 -56.52926478 20.59334236 -58 23 C-59 21 -59 21 -58.3203125 18.93359375 C-53.27369622 8.39507151 -45.97997147 1.18044785 -35 -3 C-22.87599234 -6.9755467 -11.25870107 -5.94209223 0 0 Z " fill="#A1D47E" transform="translate(201,94)"/>
<path d="M0 0 C2.73670015 3.03255962 3.39564403 4.48844234 3.3125 8.5625 C1.67811809 13.90148091 -1.24949038 15.95675128 -5.84765625 18.6796875 C-7.6875 19.5625 -7.6875 19.5625 -9.6875 19.5625 C-9.6875 18.5725 -9.6875 17.5825 -9.6875 16.5625 C-8.73875 16.500625 -7.79 16.43875 -6.8125 16.375 C-5.78125 16.106875 -4.75 15.83875 -3.6875 15.5625 C-2.34846786 13.21495602 -2.34846786 13.21495602 -1.6875 10.5625 C-0.6975 9.0775 -0.6975 9.0775 0.3125 7.5625 C-0.6775 6.2425 -1.6675 4.9225 -2.6875 3.5625 C-3.285625 3.7275 -3.88375 3.8925 -4.5 4.0625 C-6.6875 4.5625 -6.6875 4.5625 -9.6875 4.5625 C-9.6875 1.9225 -9.6875 -0.7175 -9.6875 -3.4375 C-11.67317708 -3.37239583 -13.65885417 -3.30729167 -15.64453125 -3.2421875 C-17.6875 -3.4375 -17.6875 -3.4375 -20.6875 -5.4375 C-25.26901112 -6.75131569 -29.95784536 -6.65678796 -34.6875 -6.6875 C-35.4815625 -6.708125 -36.275625 -6.72875 -37.09375 -6.75 C-41.82284339 -6.78152729 -44.79021719 -6.42332151 -48.6875 -3.4375 C-48.6875 -4.4275 -48.6875 -5.4175 -48.6875 -6.4375 C-49.945625 -6.31375 -51.20375 -6.19 -52.5 -6.0625 C-53.20769531 -5.99289062 -53.91539062 -5.92328125 -54.64453125 -5.8515625 C-56.98738142 -5.51084609 -56.98738142 -5.51084609 -59.6875 -3.4375 C-62.875 -3.3125 -62.875 -3.3125 -65.6875 -3.4375 C-66.0175 -2.4475 -66.3475 -1.4575 -66.6875 -0.4375 C-68.53515625 0.29296875 -68.53515625 0.29296875 -70.75 0.75 C-71.48347656 0.90855469 -72.21695313 1.06710937 -72.97265625 1.23046875 C-73.53855469 1.34003906 -74.10445312 1.44960938 -74.6875 1.5625 C-74.6875 0.9025 -74.6875 0.2425 -74.6875 -0.4375 C-54.91585745 -13.83827995 -19.45093528 -14.39090677 0 0 Z " fill="#6AB979" transform="translate(217.6875,291.4375)"/>
<path d="M0 0 C-0.66 0 -1.32 0 -2 0 C-2.226875 0.9075 -2.45375 1.815 -2.6875 2.75 C-4.19878665 6.4922336 -5.62382838 7.85901312 -9 10 C-9.99 10 -10.98 10 -12 10 C-12.66 11.32 -13.32 12.64 -14 14 C-15.32 14 -16.64 14 -18 14 C-18.226875 14.99 -18.45375 15.98 -18.6875 17 C-19.94491376 21.42356351 -22.10224085 25.42423951 -25 29 C-25.66 29 -26.32 29 -27 29 C-27.1546875 29.9590625 -27.1546875 29.9590625 -27.3125 30.9375 C-27.539375 31.618125 -27.76625 32.29875 -28 33 C-29.485 33.495 -29.485 33.495 -31 34 C-31 33.34 -31 32.68 -31 32 C-32.32 32.66 -33.64 33.32 -35 34 C-36.2077558 30.37673261 -35.54311128 29.35853631 -34 26 C-33.34 26 -32.68 26 -32 26 C-31.773125 25.278125 -31.54625 24.55625 -31.3125 23.8125 C-29.73664872 20.43567583 -27.79123384 18.44232961 -25 16 C-24.34 16 -23.68 16 -23 16 C-22.814375 15.113125 -22.62875 14.22625 -22.4375 13.3125 C-20.55048008 8.96414975 -18.08507858 7.2412957 -14 5 C-10.5625 3.6875 -10.5625 3.6875 -8 3 C-8 2.34 -8 1.68 -8 1 C-3.375 -1.125 -3.375 -1.125 0 0 Z " fill="#5CDC80" transform="translate(152,67)"/>
<path d="M0 0 C2.5625 2.25 2.5625 2.25 5 5 C6.3921875 6.0209375 6.3921875 6.0209375 7.8125 7.0625 C8.534375 7.701875 9.25625 8.34125 10 9 C10 10.32 10 11.64 10 13 C10.99 13.33 11.98 13.66 13 14 C13 14.99 13 15.98 13 17 C12.06027344 17.19916016 12.06027344 17.19916016 11.1015625 17.40234375 C10.28429687 17.57894531 9.46703125 17.75554687 8.625 17.9375 C7.81289062 18.11152344 7.00078125 18.28554687 6.1640625 18.46484375 C3.970537 18.92330693 3.970537 18.92330693 2 20 C1.01 19.67 0.02 19.34 -1 19 C-1 18.34 -1 17.68 -1 17 C-1.66 17 -2.32 17 -3 17 C-3 15.68 -3 14.36 -3 13 C-3.9590625 12.8453125 -3.9590625 12.8453125 -4.9375 12.6875 C-5.618125 12.460625 -6.29875 12.23375 -7 12 C-7.33 11.01 -7.66 10.02 -8 9 C-8.66 9 -9.32 9 -10 9 C-9.6875 5.625 -9.6875 5.625 -9 2 C-5.48175489 -0.34549674 -4.14224306 -0.57991403 0 0 Z " fill="#80E37A" transform="translate(158,143)"/>
<path d="M0 0 C0.66 0.33 1.32 0.66 2 1 C1.89529541 23.35442967 -9.48571969 47.1526163 -18.1875 67.3125 C-18.59129883 68.24884277 -18.99509766 69.18518555 -19.41113281 70.14990234 C-21.96743557 75.95749615 -24.81499323 81.51223418 -28 87 C-28.33 87 -28.66 87 -29 87 C-29.56047826 82.51617392 -28.05531145 79.74352076 -26.0078125 75.90625 C-24.92372251 73.93694295 -24.92372251 73.93694295 -24 71.5 C-22.55574542 67.88936355 -20.76898607 64.46068634 -19 61 C-18.34 61 -17.68 61 -17 61 C-16.97421875 60.38253906 -16.9484375 59.76507813 -16.921875 59.12890625 C-16.51271646 53.01942533 -15.57331851 45.57331851 -11 41 C-10.95936168 39.33382885 -10.957279 37.66611905 -11 36 C-10.34 36 -9.68 36 -9 36 C-9.33 33.69 -9.66 31.38 -10 29 C-8.68 28.67 -7.36 28.34 -6 28 C-5.87882812 27.01257813 -5.75765625 26.02515625 -5.6328125 25.0078125 C-5.46523437 23.72648437 -5.29765625 22.44515625 -5.125 21.125 C-4.96257812 19.84882813 -4.80015625 18.57265625 -4.6328125 17.2578125 C-4 14 -4 14 -2 12 C-1.3162387 9.11282395 -1.3162387 9.11282395 -0.875 5.875 C-0.70742187 4.77929688 -0.53984375 3.68359375 -0.3671875 2.5546875 C-0.24601562 1.71164063 -0.12484375 0.86859375 0 0 Z " fill="#94D372" transform="translate(253,140)"/>
<path d="M0 0 C1.4610341 2.78137896 2.58075172 5.52386304 3.55859375 8.5078125 C10.66268141 29.77585518 18.96996531 50.44551874 30 70 C28.515 70.495 28.515 70.495 27 71 C25 68 25 68 25 65 C23.515 64.505 23.515 64.505 22 64 C20.83203125 62.07421875 20.83203125 62.07421875 19.8125 59.6875 C19.46832031 58.90761719 19.12414062 58.12773437 18.76953125 57.32421875 C18 55 18 55 18 51 C17.34 51 16.68 51 16 51 C14.98133771 49.34467377 13.98189187 47.67739862 13 46 C12.34 45.67 11.68 45.34 11 45 C11 42.36 11 39.72 11 37 C10.01 37 9.02 37 8 37 C8 34.69 8 32.38 8 30 C7.34 30 6.68 30 6 30 C5.67 30.99 5.34 31.98 5 33 C4.67 32.67 4.34 32.34 4 32 C4.020625 30.865625 4.04125 29.73125 4.0625 28.5625 C4.12540595 23.53002401 3.11051932 18.8877959 2 14 C1.82082031 13.17628906 1.64164062 12.35257813 1.45703125 11.50390625 C0.50597247 7.1325518 0.50597247 7.1325518 -0.62109375 2.8046875 C-0.80865234 1.91136719 -0.80865234 1.91136719 -1 1 C-0.67 0.67 -0.34 0.34 0 0 Z " fill="#83D972" transform="translate(126,155)"/>
<path d="M0 0 C4.875 2.75 4.875 2.75 6 5 C6.96025167 14.948837 5.256824 23.11174052 -1 31 C-1.19335938 30.154375 -1.38671875 29.30875 -1.5859375 28.4375 C-3.95161357 17.62652597 -3.95161357 17.62652597 -7 7 C-6.34 7 -5.68 7 -5 7 C-4.67 7.66 -4.34 8.32 -4 9 C-2.68 6.03 -1.36 3.06 0 0 Z " fill="#A1EC76" transform="translate(243,91)"/>
<path d="M0 0 C1.10408203 0.01353516 1.10408203 0.01353516 2.23046875 0.02734375 C4.0287888 0.05069856 5.82693911 0.08656164 7.625 0.125 C7.625 0.455 7.625 0.785 7.625 1.125 C3.995 1.455 0.365 1.785 -3.375 2.125 C-3.375 3.115 -3.375 4.105 -3.375 5.125 C-4.261875 5.516875 -5.14875 5.90875 -6.0625 6.3125 C-12.21845512 9.6808528 -16.32592019 14.41892061 -18.375 21.125 C-18.78706666 24.84167972 -18.99850915 28.50842795 -19.1015625 32.24609375 C-19.23691406 33.67115234 -19.23691406 33.67115234 -19.375 35.125 C-20.365 35.62 -20.365 35.62 -21.375 36.125 C-21.42913245 33.22891407 -21.46873641 30.33384805 -21.5 27.4375 C-21.51675781 26.62087891 -21.53351563 25.80425781 -21.55078125 24.96289062 C-21.5864802 20.55407071 -21.45080814 17.13768424 -19.375 13.125 C-18.715 13.125 -18.055 13.125 -17.375 13.125 C-17.1275 12.568125 -16.88 12.01125 -16.625 11.4375 C-15.15893985 8.72528873 -13.34510529 6.48912635 -11.375 4.125 C-12.303125 4.599375 -13.23125 5.07375 -14.1875 5.5625 C-17.375 7.125 -17.375 7.125 -20.375 8.125 C-20.705 9.775 -21.035 11.425 -21.375 13.125 C-21.931875 13.186875 -22.48875 13.24875 -23.0625 13.3125 C-26.32487173 14.45873872 -28.06167874 16.61890197 -30.375 19.125 C-30.375 14.3298822 -27.60681742 11.50371821 -24.375 8.125 C-16.65668553 2.41744383 -9.5380528 -0.22422186 0 0 Z " fill="#66D972" transform="translate(176.375,102.875)"/>
<path d="M0 0 C0.66 0.33 1.32 0.66 2 1 C1.25556641 1.73089844 1.25556641 1.73089844 0.49609375 2.4765625 C-10.9487286 14.42087425 -16.66977935 29.56937402 -16.375 46.05859375 C-15.84000288 51.68163639 -14.66732476 57.118951 -13.33569336 62.60375977 C-13.15143799 63.37647217 -12.96718262 64.14918457 -12.77734375 64.9453125 C-12.51812134 65.97422607 -12.51812134 65.97422607 -12.25366211 67.02392578 C-11.96519356 69.27114853 -12.32572827 70.85325326 -13 73 C-14.42258812 69.17679443 -15.24042276 66.08718695 -15 62 C-15.66 62 -16.32 62 -17 62 C-19.04426222 55.25068983 -19.3021796 49.026853 -19.25 42 C-19.25773437 40.9584375 -19.26546875 39.916875 -19.2734375 38.84375 C-19.25837073 32.87730776 -18.73081808 27.71444699 -17 22 C-16.34 22 -15.68 22 -15 22 C-14.7834375 20.8553125 -14.7834375 20.8553125 -14.5625 19.6875 C-14 17 -14 17 -13 14 C-12.34 14 -11.68 14 -11 14 C-10.79375 13.34 -10.5875 12.68 -10.375 12 C-8.50536694 7.92080059 -6.03865394 4.30927197 -3 1 C-2.01 0.67 -1.02 0.34 0 0 Z " fill="#71BE7B" transform="translate(138,82)"/>
<path d="M0 0 C1.2410689 2.4821378 1 4.24140025 1 7 C1.06608997 9.18343185 1.06608997 9.18343185 2 11 C3.64931446 11.70850832 5.3200147 12.36764598 7 13 C9.66902948 14.2806554 12.3319645 15.57207597 14.98828125 16.87890625 C22.21002609 19.56715627 29.95994989 19.15870352 37.5625 19.125 C38.61501953 19.12306641 39.66753906 19.12113281 40.75195312 19.11914062 C48.86994372 19.07439971 56.91439218 18.72563147 65 18 C53.65581059 25.56279294 32.78517949 23.39918855 19.9296875 21.3125 C12.63237838 19.80774625 5.42663398 17.29427706 0 12 C-2.46623965 8.12668945 -1.92238215 5.44420489 -1 1 C-0.67 0.67 -0.34 0.34 0 0 Z " fill="#60AD7A" transform="translate(142,293)"/>
<path d="M0 0 C0.33 0 0.66 0 1 0 C1.01458252 0.87213135 1.02916504 1.7442627 1.04418945 2.64282227 C1.10557372 5.90659996 1.17978388 9.16957957 1.26245117 12.43286133 C1.29551994 13.8399778 1.32360704 15.24722116 1.34643555 16.65454102 C1.38031799 18.68820824 1.43264218 20.72073135 1.48828125 22.75390625 C1.51446533 23.97408447 1.54064941 25.1942627 1.56762695 26.45141602 C2.05153655 30.42297216 3.32537259 33.38455259 5 37 C5.60009766 39.15576172 5.60009766 39.15576172 5.9140625 40.9296875 C6.03523438 41.579375 6.15640625 42.2290625 6.28125 42.8984375 C6.3946875 43.55070312 6.508125 44.20296875 6.625 44.875 C7.07424922 49.29775659 7.07424922 49.29775659 9 53 C9.15958101 54.35052814 9.27728276 55.70609162 9.375 57.0625 C9.77064325 61.14216566 10.81468309 64.43491042 12.3671875 68.203125 C13.18305292 70.51977988 13.22798949 72.56811209 13 75 C2.3789936 59.0684904 -1.16198677 33.7752371 -1.125 14.875 C-1.12886719 14.21113281 -1.13273437 13.54726562 -1.13671875 12.86328125 C-1.12811635 8.46745393 -0.70751696 4.32371474 0 0 Z " fill="#83BF82" transform="translate(105,109)"/>
<path d="M0 0 C1.26660973 1.8999146 2.48265955 3.83537229 3.625 5.8125 C7.11161167 10.49189987 11.4209321 14.1403107 17 16 C24.4942239 16.67725579 30.7893006 16.53325604 37 12 C40.14871065 9.30813353 42.69360911 6.45958633 45 3 C45.6875 5.3125 45.6875 5.3125 46 8 C44.56851782 10.03421152 43.32024769 10.85537201 41.0625 11.875 C38.77769955 12.93615305 38.77769955 12.93615305 37.125 15.5 C34.47568342 18.61684304 32.99811211 19.18556976 29 20 C22.62653744 20.50260527 17.11200691 19.81096501 11 18 C11 17.34 11 16.68 11 16 C10.443125 15.7525 9.88625 15.505 9.3125 15.25 C4.14453882 12.45650747 1.08902674 9.57073797 -1 4 C-0.6875 1.625 -0.6875 1.625 0 0 Z " fill="#8DC979" transform="translate(157,136)"/>
<path d="M0 0 C5.48942338 5.8680043 7.29797424 13.13731154 8 21 C8.06445312 21.65226562 8.12890625 22.30453125 8.1953125 22.9765625 C8.71708956 32.54247531 5.60072137 42.09698138 -0.55859375 49.4140625 C-1.27208984 50.19910156 -1.27208984 50.19910156 -2 51 C-2.680625 51.804375 -3.36125 52.60875 -4.0625 53.4375 C-6.35630819 55.28734531 -8.09990162 55.67776685 -11 56 C-10.67 55.34 -10.34 54.68 -10 54 C-9.34 54 -8.68 54 -8 54 C-7.773125 53.443125 -7.54625 52.88625 -7.3125 52.3125 C-5.62449964 49.33840412 -3.53323483 47.27991135 -1 45 C-0.34 45 0.32 45 1 45 C1.12375 43.906875 1.2475 42.81375 1.375 41.6875 C2 38 2 38 4 35 C5.31980428 30.45954124 5.11354151 25.87153979 5.0625 21.1875 C5.05798828 20.39923828 5.05347656 19.61097656 5.04882812 18.79882812 C5.03711312 16.86585239 5.01917998 14.93291607 5 13 C4.34 13 3.68 13 3 13 C2.67 10.03 2.34 7.06 2 4 C1.34 4 0.68 4 0 4 C0 2.68 0 1.36 0 0 Z " fill="#7DB676" transform="translate(213,106)"/>
<path d="M0 0 C0.99 0 1.98 0 3 0 C1.54410273 5.13144121 -0.73122292 9.22776895 -3.5625 13.6875 C-4.00360107 14.38721924 -4.44470215 15.08693848 -4.89916992 15.80786133 C-10.1282033 23.95738038 -16.09013545 31.20341192 -23 38 C-23.763125 38.763125 -24.52625 39.52625 -25.3125 40.3125 C-25.869375 40.869375 -26.42625 41.42625 -27 42 C-27.99 41.67 -28.98 41.34 -30 41 C-29.21625 40.401875 -28.4325 39.80375 -27.625 39.1875 C-24.85425677 37.08914751 -24.85425677 37.08914751 -23 34 C-22.34 34 -21.68 34 -21 34 C-21 33.34 -21 32.68 -21 32 C-20.34 32 -19.68 32 -19 32 C-19 31.01 -19 30.02 -19 29 C-18.02351983 27.97702078 -17.01868662 26.98095748 -16 26 C-15.505 25.154375 -15.01 24.30875 -14.5 23.4375 C-13 21 -13 21 -10 19 C-10 17.68 -10 16.36 -10 15 C-9.34 14.67 -8.68 14.34 -8 14 C-7.67 13.01 -7.34 12.02 -7 11 C-6.34 11 -5.68 11 -5 11 C-4.67 9.35 -4.34 7.7 -4 6 C-3.34 6 -2.68 6 -2 6 C-1.855625 5.195625 -1.71125 4.39125 -1.5625 3.5625 C-1 1 -1 1 0 0 Z " fill="#9ECE75" transform="translate(221,227)"/>
<path d="M0 0 C4.75 0.75 4.75 0.75 7 3 C9 6 9 6 10 9 C12.01508358 9.73323796 12.01508358 9.73323796 14 10 C14.33 11.65 14.66 13.3 15 15 C14.34 13.68 13.68 12.36 13 11 C13 15.5436303 14.40185603 19.84744368 15.61328125 24.20703125 C17.06223918 29.83529639 16.91159388 34.25695853 16 40 C15.34 40 14.68 40 14 40 C13.98582031 39.15179688 13.97164062 38.30359375 13.95703125 37.4296875 C13.39710729 23.65858477 9.42076411 12.95604793 1 2 C0.67 1.34 0.34 0.68 0 0 Z " fill="#9CD86F" transform="translate(225,87)"/>
<path d="M0 0 C0.66 0.66 1.32 1.32 2 2 C1.319375 3.051875 0.63875 4.10375 -0.0625 5.1875 C-2.04883299 8.60150983 -1.96126783 10.15492867 -1 14 C-2.3125 15.8125 -2.3125 15.8125 -4 17 C-4.66 17 -5.32 17 -6 17 C-6 17.66 -6 18.32 -6 19 C-6.99 19 -7.98 19 -9 19 C-8.67 19.99 -8.34 20.98 -8 22 C-8.78375 22.7425 -9.5675 23.485 -10.375 24.25 C-12.98152619 26.68073471 -12.98152619 26.68073471 -13.88671875 28.9375 C-15.31450563 31.58266307 -17.06201321 32.92450276 -19.4375 34.75 C-20.21996094 35.36359375 -21.00242188 35.9771875 -21.80859375 36.609375 C-24 38 -24 38 -27 38 C-26.47792969 37.5359375 -25.95585937 37.071875 -25.41796875 36.59375 C-14.44597908 26.29429911 -6.70594867 13.36612295 0 0 Z " fill="#A8D082" transform="translate(209,218)"/>
<path d="M0 0 C14.5897389 4.46756798 25.48114725 14.43238755 35 26 C31.40916643 26 30.19278252 24.85311695 27.53515625 22.57421875 C25.91489629 20.91273081 24.78991609 19.21467592 23.5625 17.25 C21.47810137 14.10977853 21.18199607 14.04475313 17.1875 13.0625 C16.135625 13.041875 15.08375 13.02125 14 13 C13.67 12.01 13.34 11.02 13 10 C10.0041587 7.77053671 7.06593533 6.03110157 3.6875 4.4375 C1 3 1 3 0 0 Z " fill="#A3CD76" transform="translate(207,54)"/>
<path d="M0 0 C0.33 0 0.66 0 1 0 C2.22377673 8.41346505 2.82176978 15.83171907 0 24 C-0.309375 25.00740234 -0.309375 25.00740234 -0.625 26.03515625 C-2.18489489 30.77688219 -4.04423591 33.75424485 -8 37 C-8.66 37 -9.32 37 -10 37 C-9.80664062 36.46632812 -9.61328125 35.93265625 -9.4140625 35.3828125 C-7.41302552 29.65707301 -6.05915756 23.96866438 -5 18 C-3.35 17.67 -1.7 17.34 0 17 C0 11.39 0 5.78 0 0 Z " fill="#7FDE76" transform="translate(217,119)"/>
<path d="M0 0 C2.75 -0.375 2.75 -0.375 5 0 C5.33 0.99 5.66 1.98 6 3 C5.34 3 4.68 3 4 3 C3.773125 3.515625 3.54625 4.03125 3.3125 4.5625 C1.81178222 7.34954731 0.01855144 9.78833948 -1.87890625 12.31640625 C-3.18551179 14.11886765 -3.18551179 14.11886765 -4 17 C-4.99 17 -5.98 17 -7 17 C-7 21.29 -7 25.58 -7 30 C-7.33 30 -7.66 30 -8 30 C-8.02710123 27.4374282 -8.04688771 24.87514635 -8.0625 22.3125 C-8.07087891 21.59126953 -8.07925781 20.87003906 -8.08789062 20.12695312 C-8.13303224 10.24094007 -8.13303224 10.24094007 -5.6875 7.5625 C-5.130625 7.046875 -4.57375 6.53125 -4 6 C-3.38125 4.948125 -2.7625 3.89625 -2.125 2.8125 C-1.42375 1.884375 -0.7225 0.95625 0 0 Z " fill="#94EE7E" transform="translate(148,108)"/>
<path d="M0 0 C3.84183325 3.20421807 5.12882998 6.44772061 6.25 11.1875 C6.50366333 12.22958618 6.50366333 12.22958618 6.76245117 13.29272461 C8.9630406 23.22925791 8.96976462 34.0240953 7 44 C6.01 44.495 6.01 44.495 5 45 C5.00523682 44.41621582 5.01047363 43.83243164 5.01586914 43.23095703 C5.03694081 40.52898276 5.04975459 37.82702589 5.0625 35.125 C5.07087891 34.2071875 5.07925781 33.289375 5.08789062 32.34375 C5.51374487 21.89636469 5.51374487 21.89636469 3 12 C2.960008 10.00039988 2.95653201 7.99952758 3 6 C2.34 6 1.68 6 1 6 C0.67 4.02 0.34 2.04 0 0 Z " fill="#6BAC7D" transform="translate(249,96)"/>
<path d="M0 0 C1 2 1 2 0.50610352 3.80908203 C0.07189087 4.89745361 0.07189087 4.89745361 -0.37109375 6.0078125 C-0.69440674 6.8225 -1.01771973 7.6371875 -1.35083008 8.4765625 C-1.70943115 9.35054687 -2.06803223 10.22453125 -2.4375 11.125 C-2.79932373 12.01703125 -3.16114746 12.9090625 -3.53393555 13.828125 C-5.93354342 19.65063431 -8.50150265 25.36471767 -11.3125 31 C-11.79964478 31.97670654 -11.79964478 31.97670654 -12.29663086 32.97314453 C-13.95391319 36.21036648 -15.7047706 39.17510228 -18 42 C-18.56047826 37.51617392 -17.05531145 34.74352076 -15.0078125 30.90625 C-13.92372251 28.93694295 -13.92372251 28.93694295 -13 26.5 C-11.55574542 22.88936355 -9.76898607 19.46068634 -8 16 C-7.34 16 -6.68 16 -6 16 C-5.87625 15.28328125 -5.7525 14.5665625 -5.625 13.828125 C-4.99457989 10.97547399 -4.10066194 8.45309623 -3 5.75 C-2.4740625 4.44289062 -2.4740625 4.44289062 -1.9375 3.109375 C-1 1 -1 1 0 0 Z " fill="#A0CE7F" transform="translate(242,185)"/>
<path d="M0 0 C4.15118673 3.89173756 7.57234492 8.18337219 11.03515625 12.6953125 C12.89924803 14.88182175 14.56298513 16.48805608 17 18 C20.8400075 17.81268256 22.46579526 16.77555758 25 14 C25.66 14 26.32 14 27 14 C27.33 14.99 27.66 15.98 28 17 C20.68580715 20.91224269 20.68580715 20.91224269 17 21 C14.83028471 20.06412667 12.81219447 18.99982241 10.76953125 17.8125 C10.18558594 17.544375 9.60164062 17.27625 9 17 C8.34 17.33 7.68 17.66 7 18 C7 16.68 7 15.36 7 14 C5.70427617 11.97543152 4.3726682 9.97321053 3 8 C3 7.34 3 6.68 3 6 C2.01 5.67 1.02 5.34 0 5 C0 3.35 0 1.7 0 0 Z " fill="#9DD56C" transform="translate(163,238)"/>
<path d="M0 0 C0.66 0 1.32 0 2 0 C3.06969984 3.20909953 3.06771842 5.44774092 3 8.8125 C2.95936406 13.00308169 3.08621568 16.88797057 4 21 C4.66 21 5.32 21 6 21 C6.33 22.98 6.66 24.96 7 27 C7.66 27 8.32 27 9 27 C9.66 27.99 10.32 28.98 11 30 C11.99 30.33 12.98 30.66 14 31 C14 31.99 14 32.98 14 34 C10.64999489 33.44166582 8.55743699 32.65688584 6.3359375 30.0390625 C1.39831397 22.71775864 -0.30497397 17.45777022 -0.125 8.6875 C-0.11597656 7.85154297 -0.10695312 7.01558594 -0.09765625 6.15429688 C-0.07420989 4.10274031 -0.03834266 2.05133223 0 0 Z " fill="#74C275" transform="translate(141,125)"/>
<path d="M0 0 C2.94090816 1.52428573 5.97408895 2.76841423 9.02734375 4.05078125 C9.68734375 4.38078125 10.34734375 4.71078125 11.02734375 5.05078125 C11.02734375 5.71078125 11.02734375 6.37078125 11.02734375 7.05078125 C12.34734375 7.38078125 13.66734375 7.71078125 15.02734375 8.05078125 C15.02734375 8.71078125 15.02734375 9.37078125 15.02734375 10.05078125 C15.83171875 10.27765625 16.63609375 10.50453125 17.46484375 10.73828125 C18.73328125 11.38796875 18.73328125 11.38796875 20.02734375 12.05078125 C20.83984375 14.67578125 20.83984375 14.67578125 21.02734375 17.05078125 C19.86067708 16.17578125 18.69401042 15.30078125 17.52734375 14.42578125 C16.78871094 13.87792969 16.05007812 13.33007812 15.2890625 12.765625 C13.89194132 11.70632241 12.51438723 10.61989777 11.171875 9.4921875 C2.54287139 2.40867707 -8.06702881 -0.48493611 -18.97265625 -1.94921875 C-18.97265625 -2.27921875 -18.97265625 -2.60921875 -18.97265625 -2.94921875 C-11.43358035 -4.30625241 -6.6522365 -3.51125727 0 0 Z " fill="#9FC679" transform="translate(203.97265625,68.94921875)"/>
<path d="M0 0 C1.78194514 2.67291771 3.12391131 5.21895809 4.49609375 8.11328125 C4.97240234 9.11423828 5.44871094 10.11519531 5.93945312 11.14648438 C6.43380859 12.19126953 6.92816406 13.23605469 7.4375 14.3125 C8.41489264 16.37131787 9.39274406 18.429918 10.37109375 20.48828125 C10.82726074 21.44814941 11.28342773 22.40801758 11.75341797 23.39697266 C13.13539268 26.28271772 14.55149649 29.14718462 16 32 C14.68 31.67 13.36 31.34 12 31 C11.67 29.35 11.34 27.7 11 26 C10.01 25.67 9.02 25.34 8 25 C6.83203125 23.07421875 6.83203125 23.07421875 5.8125 20.6875 C5.46832031 19.90761719 5.12414062 19.12773437 4.76953125 18.32421875 C4 16 4 16 4 12 C3.34 12 2.68 12 2 12 C-0.60018816 8.09971775 -0.15085514 4.52565431 0 0 Z " fill="#A1D175" transform="translate(140,194)"/>
<path d="M0 0 C-1.3303125 0.5878125 -1.3303125 0.5878125 -2.6875 1.1875 C-8.84345512 4.5558528 -12.95092019 9.29392061 -15 16 C-15.41206666 19.71667972 -15.62350915 23.38342795 -15.7265625 27.12109375 C-15.81679687 28.07113281 -15.90703125 29.02117187 -16 30 C-16.66 30.33 -17.32 30.66 -18 31 C-18.05413245 28.10391407 -18.09373641 25.20884805 -18.125 22.3125 C-18.14175781 21.49587891 -18.15851563 20.67925781 -18.17578125 19.83789062 C-18.2114802 15.42907071 -18.07580814 12.01268424 -16 8 C-15.34 8 -14.68 8 -14 8 C-13.7525 7.4225 -13.505 6.845 -13.25 6.25 C-11.27724133 2.69903439 -9.36956429 0.43425209 -5.4375 -0.8125 C-3 -1 -3 -1 0 0 Z " fill="#6DBB79" transform="translate(173,108)"/>
<path d="M0 0 C0.66 0.66 1.32 1.32 2 2 C2.33 1.34 2.66 0.68 3 0 C3.66 0 4.32 0 5 0 C5 2.31 5 4.62 5 7 C5.99 7 6.98 7 8 7 C8.33 9.97 8.66 12.94 9 16 C8.34 16 7.68 16 7 16 C7 15.34 7 14.68 7 14 C6.01 13.67 5.02 13.34 4 13 C4 12.34 4 11.68 4 11 C2.02 11 0.04 11 -2 11 C-1.85957123 9.35369672 -1.71250671 7.70795821 -1.5625 6.0625 C-1.48128906 5.14597656 -1.40007812 4.22945312 -1.31640625 3.28515625 C-1 1 -1 1 0 0 Z " fill="#90E57A" transform="translate(129,185)"/>
<path d="M0 0 C19.13801653 1.85206612 19.13801653 1.85206612 25 8 C26.875 10.8125 26.875 10.8125 28 13 C25.08482708 11.92598892 23.22189824 11.22189824 21 9 C18.41645782 8.83312552 18.41645782 8.83312552 16 9 C15.67 7.35 15.34 5.7 15 4 C13.1128125 4.5878125 13.1128125 4.5878125 11.1875 5.1875 C8.98046875 5.74609375 8.98046875 5.74609375 7 6 C5 4.75 5 4.75 4 3 C4 2.34 4 1.68 4 1 C2.68 0.67 1.36 0.34 0 0 Z " fill="#A4EA71" transform="translate(185,93)"/>
<path d="M0 0 C0.33 0 0.66 0 1 0 C1 2.64 1 5.28 1 8 C0.34 8 -0.32 8 -1 8 C-1.03738281 8.61746094 -1.07476562 9.23492187 -1.11328125 9.87109375 C-1.58723416 15.9767224 -2.80600373 21.28733047 -5 27 C-5.66 27 -6.32 27 -7 27 C-7 27.99 -7 28.98 -7 30 C-7.66 30 -8.32 30 -9 30 C-9 30.99 -9 31.98 -9 33 C-9.66 33 -10.32 33 -11 33 C-10.30657022 28.94891025 -9.10847912 25.25008768 -7.71484375 21.38671875 C-7.3840255 20.46509697 -7.3840255 20.46509697 -7.04652405 19.52485657 C-6.34680121 17.57786976 -5.64223285 15.63267824 -4.9375 13.6875 C-4.45996441 12.36144406 -3.98274752 11.0352733 -3.50585938 9.70898438 C-2.3403697 6.47151306 -1.17164035 3.23524939 0 0 Z " fill="#A0D282" transform="translate(232,162)"/>
<path d="M0 0 C1.56517786 2.96539614 2.73159195 5.93038878 3.8046875 9.10546875 C4.14113281 10.08966797 4.47757813 11.07386719 4.82421875 12.08789062 C5.5179957 14.13440367 6.21072521 16.18127214 6.90234375 18.22851562 C8.77776667 23.70860122 10.79047412 29.01403326 13.27001953 34.2512207 C14 36 14 36 14 38 C13.34 38 12.68 38 12 38 C12 37.34 12 36.68 12 36 C11.34 36 10.68 36 10 36 C9.71125 34.906875 9.4225 33.81375 9.125 32.6875 C8.18106796 28.95986155 8.18106796 28.95986155 6 26 C5.3671875 24.09765625 5.3671875 24.09765625 4.875 22.0625 C4.70742187 21.39347656 4.53984375 20.72445312 4.3671875 20.03515625 C4 18 4 18 4 14 C3.34 14 2.68 14 2 14 C1.86722656 13.39671875 1.73445313 12.7934375 1.59765625 12.171875 C1.42105469 11.37265625 1.24445313 10.5734375 1.0625 9.75 C0.88847656 8.96109375 0.71445313 8.1721875 0.53515625 7.359375 C0.18573446 5.81885848 -0.20091571 4.28618767 -0.62890625 2.765625 C-0.75136719 2.18296875 -0.87382813 1.6003125 -1 1 C-0.67 0.67 -0.34 0.34 0 0 Z " fill="#92C285" transform="translate(126,155)"/>
<path d="M0 0 C0 0.66 0 1.32 0 2 C-0.99 2.33 -1.98 2.66 -3 3 C-4.01754868 4.8653245 -4.01754868 4.8653245 -4.6875 7.0625 C-4.93886719 7.79597656 -5.19023438 8.52945313 -5.44921875 9.28515625 C-5.63097656 9.85105469 -5.81273438 10.41695312 -6 11 C-6.66 11 -7.32 11 -8 11 C-9.08285394 13.52665918 -9.96583709 15.77224724 -10.375 18.5 C-11.17904975 21.716199 -12.82566026 23.5451003 -15 26 C-13.75232154 17.4152273 -11.64516856 7.72635005 -4.8125 1.8125 C-2 0 -2 0 0 0 Z " fill="#9ECE79" transform="translate(121,83)"/>
<path d="M0 0 C0.66 0 1.32 0 2 0 C4.04169485 2.90548882 5 4.40142046 5 8 C5.66 8 6.32 8 7 8 C7 9.98 7 11.96 7 14 C6.34 14 5.68 14 5 14 C5.226875 14.515625 5.45375 15.03125 5.6875 15.5625 C6.16513722 19.28807032 4.61290239 21.64516304 3 25 C2.34 24.67 1.68 24.34 1 24 C1.09539062 22.9378125 1.19078125 21.875625 1.2890625 20.78125 C2.18808749 10.25352657 2.18808749 10.25352657 0 0 Z " fill="#7EC576" transform="translate(201,118)"/>
<path d="M0 0 C-0.66 1.65 -1.32 3.3 -2 5 C-0.5459375 4.5359375 -0.5459375 4.5359375 0.9375 4.0625 C5.23664491 2.82032903 9.55342634 2.38315147 14 2 C10.94526076 5.05473924 7.11448966 5.65306963 3.04296875 6.90234375 C-0.04253711 7.89386009 -0.04253711 7.89386009 -2.69921875 9.69140625 C-3.45847656 10.12324219 -4.21773437 10.55507812 -5 11 C-5.99 10.67 -6.98 10.34 -8 10 C-7.67 8.02 -7.34 6.04 -7 4 C-6.01 4 -5.02 4 -4 4 C-4 3.01 -4 2.02 -4 1 C-2 0 -2 0 0 0 Z " fill="#9FEE7F" transform="translate(160,99)"/>
<path d="M0 0 C0.66 0.33 1.32 0.66 2 1 C1.25556641 1.73089844 1.25556641 1.73089844 0.49609375 2.4765625 C-8.60280384 11.97256568 -13.53228776 23.16789636 -16 36 C-16.33 36 -16.66 36 -17 36 C-16.66886519 22.93522674 -11.92832545 10.61943013 -3 1 C-2.01 0.67 -1.02 0.34 0 0 Z " fill="#76B582" transform="translate(138,82)"/>
<path d="M0 0 C-0.66 0 -1.32 0 -2 0 C-2.2475 0.94875 -2.495 1.8975 -2.75 2.875 C-4 6 -4 6 -6.125 7.375 C-6.74375 7.58125 -7.3625 7.7875 -8 8 C-8 7.34 -8 6.68 -8 6 C-11.45560637 6.9424381 -13.59786075 7.58603312 -16.125 10.1875 C-16.74375 10.785625 -17.3625 11.38375 -18 12 C-20.1171875 11.61328125 -20.1171875 11.61328125 -22 11 C-17.53174216 7.39363961 -13.67853635 4.41963409 -8 3 C-8 2.34 -8 1.68 -8 1 C-3.375 -1.125 -3.375 -1.125 0 0 Z " fill="#68D772" transform="translate(152,67)"/>
<path d="M0 0 C0.33 0.66 0.66 1.32 1 2 C1.66 2 2.32 2 3 2 C5.77761686 11.99942068 6.16000955 21.65271561 6 32 C5.67 32 5.34 32 5 32 C4.34 24.74 3.68 17.48 3 10 C2.34 10 1.68 10 1 10 C0.67 10.66 0.34 11.32 0 12 C0 8.04 0 4.08 0 0 Z " fill="#62D376" transform="translate(249,100)"/>
<path d="M0 0 C0.33 0.66 0.66 1.32 1 2 C3.02463255 2.65213292 3.02463255 2.65213292 5 3 C5 2.34 5 1.68 5 1 C6.32 1 7.64 1 9 1 C9.33 1.66 9.66 2.32 10 3 C12.97 3 15.94 3 19 3 C19 3.66 19 4.32 19 5 C16.10359882 5.08120751 13.20949088 5.14059421 10.3125 5.1875 C9.49587891 5.21263672 8.67925781 5.23777344 7.83789062 5.26367188 C3.02153514 5.32217012 -0.03975154 5.07302376 -4 2 C-2.68 1.34 -1.36 0.68 0 0 Z " fill="#91EB83" transform="translate(183,304)"/>
<path d="M0 0 C5.29687717 6.30580616 6.82296061 12.93789833 7 21 C6.5625 24.125 6.5625 24.125 6 26 C5.34 26 4.68 26 4 26 C3.96261719 25.09378906 3.92523438 24.18757813 3.88671875 23.25390625 C3.53410092 16.72010524 3.06027992 10.87333204 0.62109375 4.76953125 C0 3 0 3 0 0 Z " fill="#9CC77A" transform="translate(235,101)"/>
<path d="M0 0 C0.66 0.33 1.32 0.66 2 1 C1.72660609 7.57512361 0.72885902 13.77562378 -0.9375 20.125 C-1.10733398 20.78830322 -1.27716797 21.45160645 -1.45214844 22.13500977 C-1.90148684 23.77637876 -2.44362381 25.39175789 -3 27 C-3.66 27.33 -4.32 27.66 -5 28 C-4.68806536 26.27073126 -4.37542638 24.54158956 -4.0625 22.8125 C-3.88847656 21.84957031 -3.71445313 20.88664062 -3.53515625 19.89453125 C-3.20413549 18.1041197 -2.86142237 16.31577294 -2.5 14.53125 C-1.91939778 11.59195125 -1.42477834 8.64365528 -0.9375 5.6875 C-0.76089844 4.61886719 -0.58429688 3.55023438 -0.40234375 2.44921875 C-0.26957031 1.64097656 -0.13679687 0.83273438 0 0 Z " fill="#8BC181" transform="translate(253,140)"/>
<path d="M0 0 C0 0.33 0 0.66 0 1 C-1.134375 1.18175781 -2.26875 1.36351563 -3.4375 1.55078125 C-4.95840377 1.80426521 -6.47923322 2.05819541 -8 2.3125 C-8.74378906 2.43044922 -9.48757812 2.54839844 -10.25390625 2.66992188 C-14.1364253 3.32826206 -17.69961276 4.17418814 -21.375 5.60546875 C-25 7 -25 7 -28 7 C-28 6.34 -28 5.68 -28 5 C-18.719964 -0.23056574 -10.48931473 -0.17645576 0 0 Z " fill="#73B781" transform="translate(182,65)"/>
<path d="M0 0 C0.66 0.66 1.32 1.32 2 2 C1.319375 3.051875 0.63875 4.10375 -0.0625 5.1875 C-2.04883299 8.60150983 -1.96126783 10.15492867 -1 14 C-2.3125 15.8125 -2.3125 15.8125 -4 17 C-4.66 17 -5.32 17 -6 17 C-6 17.66 -6 18.32 -6 19 C-6.66 19 -7.32 19 -8 19 C-7.46199791 14.01400883 -5.88255471 10.48164295 -3.4375 6.125 C-2.79683594 4.97257813 -2.15617188 3.82015625 -1.49609375 2.6328125 C-0.75552734 1.32957031 -0.75552734 1.32957031 0 0 Z " fill="#A5DA7B" transform="translate(209,218)"/>
<path d="M0 0 C0.68578125 -0.00386719 1.3715625 -0.00773437 2.078125 -0.01171875 C6.15626809 -0.00393603 9.99977115 0.33745494 14 1.125 C14 1.785 14 2.445 14 3.125 C0.14 2.63 0.14 2.63 -14 2.125 C-14 1.795 -14 1.465 -14 1.125 C-9.31026876 0.20170916 -4.76403185 -0.02686484 0 0 Z " fill="#97EE83" transform="translate(174,60.875)"/>
<path d="M0 0 C4.75 1.875 4.75 1.875 7 3 C7 3.66 7 4.32 7 5 C8.2684375 5.12375 8.2684375 5.12375 9.5625 5.25 C12.54744238 5.90126016 14.04383219 6.47554317 16.5625 8 C19.58975461 9.76131177 21.58206079 10.58570434 25 11 C23.35546875 12.12109375 23.35546875 12.12109375 21 13 C13.03168763 11.07422841 5.93237529 6.57283739 0 1 C0 0.67 0 0.34 0 0 Z " fill="#8CBC79" transform="translate(150,157)"/>
<path d="M0 0 C0.66 0.66 1.32 1.32 2 2 C1.91280676 5.92369576 1.28719901 7.65695674 -1.25 10.6875 C-7.56756757 16 -7.56756757 16 -11 16 C-11 15.01 -11 14.02 -11 13 C-10.05125 12.938125 -9.1025 12.87625 -8.125 12.8125 C-7.09375 12.544375 -6.0625 12.27625 -5 12 C-3.59742124 9.61880754 -3.59742124 9.61880754 -3 7 C-2.67 6.34 -2.34 5.68 -2 5 C-1.34 5 -0.68 5 0 5 C0 3.35 0 1.7 0 0 Z " fill="#6CBA73" transform="translate(219,295)"/>
<path d="M0 0 C0.99 1.32 1.98 2.64 3 4 C2.01 4.495 2.01 4.495 1 5 C0.28272222 6.64551962 -0.38325228 8.31422289 -1 10 C-1.33 10.66 -1.66 11.32 -2 12 C-3.32 11.34 -4.64 10.68 -6 10 C-5.34 7.69 -4.68 5.38 -4 3 C-3.34 3 -2.68 3 -2 3 C-1.34 2.01 -0.68 1.02 0 0 Z " fill="#6AE17D" transform="translate(216,295)"/>
<path d="M0 0 C0.66 0 1.32 0 2 0 C1.79503906 0.85722656 1.59007812 1.71445313 1.37890625 2.59765625 C-0.38919405 9.83052223 -0.38919405 9.83052223 -1.4375 17.1875 C-2 20 -2 20 -4.0625 21.4375 C-4.701875 21.623125 -5.34125 21.80875 -6 22 C-6.33 20.02 -6.66 18.04 -7 16 C-5.68 15.67 -4.36 15.34 -3 15 C-2.86722656 14.00097656 -2.73445312 13.00195312 -2.59765625 11.97265625 C-2.42105469 10.68230469 -2.24445313 9.39195312 -2.0625 8.0625 C-1.88847656 6.77472656 -1.71445313 5.48695313 -1.53515625 4.16015625 C-1 1 -1 1 0 0 Z " fill="#85D272" transform="translate(250,153)"/>
<path d="M0 0 C0.99 0.33 1.98 0.66 3 1 C2.31292969 1.39832031 1.62585938 1.79664062 0.91796875 2.20703125 C0.01691406 2.73683594 -0.88414062 3.26664062 -1.8125 3.8125 C-2.70582031 4.33457031 -3.59914062 4.85664062 -4.51953125 5.39453125 C-6.97487285 6.86090178 -6.97487285 6.86090178 -8.6328125 8.6328125 C-10.70354362 10.70354362 -13.24973423 11.12225561 -16 12 C-16.66 12.66 -17.32 13.32 -18 14 C-17.8125 11.625 -17.8125 11.625 -17 9 C-14.5 7.8125 -14.5 7.8125 -12 7 C-11.67 6.34 -11.34 5.68 -11 5 C-9.00390625 3.96484375 -9.00390625 3.96484375 -6.5625 2.9375 C-5.75941406 2.59589844 -4.95632812 2.25429687 -4.12890625 1.90234375 C-3.42636719 1.60457031 -2.72382813 1.30679688 -2 1 C-1.34 0.67 -0.68 0.34 0 0 Z " fill="#64B77A" transform="translate(151,72)"/>
<path d="M0 0 C4.87072783 4.56630734 8.89156398 9.74976539 13 15 C10 15 10 15 7 14 C3 8.62857143 3 8.62857143 3 6 C2.01 5.67 1.02 5.34 0 5 C0 3.35 0 1.7 0 0 Z " fill="#A2CD7B" transform="translate(163,238)"/>
<path d="M0 0 C0.66 0.33 1.32 0.66 2 1 C2.05437607 2.58294782 2.09296271 4.16644256 2.125 5.75 C2.14820313 6.63171875 2.17140625 7.5134375 2.1953125 8.421875 C1.99139502 11.1135858 1.36551721 12.69904974 0 15 C-0.66 15 -1.32 15 -2 15 C-3.08056059 11.02840314 -2.85815614 8.57446843 -1.5625 4.6875 C-1.27503906 3.80449219 -0.98757812 2.92148438 -0.69140625 2.01171875 C-0.46324219 1.34785156 -0.23507813 0.68398437 0 0 Z " fill="#95EB75" transform="translate(230,176)"/>
<path d="M0 0 C0 0.99 0 1.98 0 3 C-0.66 3 -1.32 3 -2 3 C-2 3.66 -2 4.32 -2 5 C-3.28650706 5.69710731 -4.57940665 6.38242876 -5.875 7.0625 C-6.59429687 7.44535156 -7.31359375 7.82820313 -8.0546875 8.22265625 C-8.69664062 8.47917969 -9.33859375 8.73570313 -10 9 C-10.66 8.67 -11.32 8.34 -12 8 C-11.01 7.34 -10.02 6.68 -9 6 C-7.98377342 4.00819591 -6.98287008 2.00847365 -6 0 C-3.50907189 -1.24546405 -2.58919267 -0.7767578 0 0 Z " fill="#57CC78" transform="translate(156,67)"/>
<path d="M0 0 C1.56041016 -0.03867188 1.56041016 -0.03867188 3.15234375 -0.078125 C6.0625 0.25 6.0625 0.25 10.0625 3.25 C3.7925 3.25 -2.4775 3.25 -8.9375 3.25 C-8.9375 2.59 -8.9375 1.93 -8.9375 1.25 C-5.7609489 0.19114963 -3.33761989 0.04950734 0 0 Z " fill="#6DBF76" transform="translate(181.9375,103.75)"/>
<path d="M0 0 C3.6578722 4.19977919 6.79365864 8.87201939 9 14 C8.67 14.66 8.34 15.32 8 16 C7.34 15.67 6.68 15.34 6 15 C6 14.34 6 13.68 6 13 C5.34 13 4.68 13 4 13 C3.13372601 11.40233897 2.28233535 9.79660056 1.4375 8.1875 C0.96183594 7.29417969 0.48617187 6.40085937 -0.00390625 5.48046875 C-1 3 -1 3 0 0 Z " fill="#A1CB80" transform="translate(242,81)"/>
<path d="M0 0 C0.99 0 1.98 0 3 0 C2.52460544 4.278551 -0.02565329 6.09647107 -3 9 C-4.0268343 10.6502694 -5.03567924 12.31243867 -6 14 C-6.33 14 -6.66 14 -7 14 C-7.1875 11.6875 -7.1875 11.6875 -7 9 C-5.75 7.5625 -5.75 7.5625 -4 6 C-3.34 4.948125 -2.68 3.89625 -2 2.8125 C-1.34 1.884375 -0.68 0.95625 0 0 Z " fill="#9EDD75" transform="translate(148,108)"/>
<path d="M0 0 C1.5625 1.125 1.5625 1.125 3 3 C2.6875 6.1875 2.6875 6.1875 2 9 C0.68 9 -0.64 9 -2 9 C-2.33 10.32 -2.66 11.64 -3 13 C-3.66 13 -4.32 13 -5 13 C-3.58192622 8.52761347 -1.88695626 4.28853694 0 0 Z " fill="#A6D981" transform="translate(220,195)"/>
<path d="M0 0 C1.28871665 1.93307497 2.54202443 3.8904687 3.75 5.875 C6.23014466 9.31964535 8.66077305 11.41968827 12 14 C11.01 14.495 11.01 14.495 10 15 C4.10918792 12.3818613 1.54550286 9.93950667 -1 4 C-0.75 1.5625 -0.75 1.5625 0 0 Z " fill="#85C080" transform="translate(157,136)"/>
<path d="M0 0 C-1.55367366 1.01365893 -3.11837836 2.01042256 -4.6875 3 C-5.99267578 3.8353125 -5.99267578 3.8353125 -7.32421875 4.6875 C-10.16973337 6.08325608 -11.8788594 6.26993648 -15 6 C-15.33 6.99 -15.66 7.98 -16 9 C-16.99 8.34 -17.98 7.68 -19 7 C-16.40163864 5.63354299 -13.79734444 4.28169331 -11.1875 2.9375 C-10.44951172 2.54755859 -9.71152344 2.15761719 -8.95117188 1.75585938 C-8.23896484 1.39169922 -7.52675781 1.02753906 -6.79296875 0.65234375 C-6.1383667 0.31195068 -5.48376465 -0.02844238 -4.80932617 -0.37915039 C-3 -1 -3 -1 0 0 Z " fill="#AFCC8E" transform="translate(159,53)"/>
<path d="M0 0 C3.24208567 0.35049575 4.61527704 0.56221181 6.8125 3.0625 C7.204375 3.701875 7.59625 4.34125 8 5 C4.77208445 7.1519437 3.71599191 7.20086443 0 7 C0 4.69 0 2.38 0 0 Z " fill="#62DB7A" transform="translate(208,289)"/>
<path d="M0 0 C1.32 0.33 2.64 0.66 4 1 C3.67 1.99 3.34 2.98 3 4 C3 3.34 3 2.68 3 2 C2.34 2 1.68 2 1 2 C1 2.99 1 3.98 1 5 C1.66 5.33 2.32 5.66 3 6 C1.824375 6.37125 1.824375 6.37125 0.625 6.75 C-2.38305008 8.1824048 -2.75490357 9.0309239 -4 12 C-4.99 12.495 -4.99 12.495 -6 13 C-5.71125 12.29875 -5.4225 11.5975 -5.125 10.875 C-3.97866412 7.94547497 -2.97374346 4.99078347 -2 2 C-1.34 2 -0.68 2 0 2 C0 1.34 0 0.68 0 0 Z " fill="#9FE06C" transform="translate(212,216)"/>
<path d="M0 0 C2 3 2 3 2 5 C-0.05222226 7.46266672 -2.17216689 8.58608345 -5 10 C-5.6496875 10.7734375 -5.6496875 10.7734375 -6.3125 11.5625 C-8.91350862 13.77817401 -11.6843889 13.6872065 -15 14 C-13.05754356 12.70502904 -11.09984893 11.43251346 -9.125 10.1875 C-5.03621516 7.32535061 -1.60667845 4.82003535 0 0 Z " fill="#97BF83" transform="translate(201,139)"/>
<path d="M0 0 C-6.625 3 -6.625 3 -10 3 C-10 3.66 -10 4.32 -10 5 C-10.556875 5.0825 -11.11375 5.165 -11.6875 5.25 C-14.69714206 6.22610013 -16.62154752 7.95188814 -19 10 C-19.66 9.67 -20.32 9.34 -21 9 C-15.60544781 3.83999356 -7.92148683 -2.78617812 0 0 Z " fill="#B0C894" transform="translate(173,91)"/>
<path d="M0 0 C0.33 0 0.66 0 1 0 C1.95717033 4.78585167 2.31859498 9.1414266 2 14 C1.01 14.99 0.02 15.98 -1 17 C-1.33 13.04 -1.66 9.08 -2 5 C-1.34 5 -0.68 5 0 5 C0 3.35 0 1.7 0 0 Z " fill="#70C673" transform="translate(241,122)"/>
<path d="M0 0 C4.53646544 4.84932513 6.78346888 10.46332504 7.1875 17.0625 C7.125625 17.701875 7.06375 18.34125 7 19 C6.34 19 5.68 19 5 19 C5 17.02 5 15.04 5 13 C4.34 13 3.68 13 3 13 C2.67 10.03 2.34 7.06 2 4 C1.34 4 0.68 4 0 4 C0 2.68 0 1.36 0 0 Z " fill="#8FBB79" transform="translate(213,106)"/>
<path d="M0 0 C-0.84879056 4.65824341 -3.32427513 7.15966714 -7 10 C-9.875 10.875 -9.875 10.875 -12 11 C-11.67 10.34 -11.34 9.68 -11 9 C-10.34 9 -9.68 9 -9 9 C-8.6596875 8.1646875 -8.6596875 8.1646875 -8.3125 7.3125 C-6.49644015 4.11277551 -3.9498923 0 0 0 Z " fill="#74BA72" transform="translate(214,151)"/>
<path d="M0 0 C4.54892061 4.54892061 6.85705643 12.6408262 7.125 18.9375 C7.08375 19.618125 7.0425 20.29875 7 21 C4.83662639 17.75493959 3.69128328 14.73038879 2.375 11.0625 C1.92898437 9.83660156 1.48296875 8.61070312 1.0234375 7.34765625 C0 4 0 4 0 0 Z " fill="#91C486" transform="translate(111,163)"/>
<path d="M0 0 C5.63689034 1.32632714 7.93185683 5.46631765 11 10 C7.00547824 8.63044968 4.07840246 6.9073801 1 4 C0.1875 1.75 0.1875 1.75 0 0 Z " fill="#A8CB85" transform="translate(202,96)"/>
<path d="M0 0 C0 0.66 0 1.32 0 2 C-0.99 2.33 -1.98 2.66 -3 3 C-4.01754868 4.8653245 -4.01754868 4.8653245 -4.6875 7.0625 C-4.93886719 7.79597656 -5.19023438 8.52945313 -5.44921875 9.28515625 C-5.63097656 9.85105469 -5.81273438 10.41695312 -6 11 C-6.66 11 -7.32 11 -8 11 C-8.33 11.66 -8.66 12.32 -9 13 C-8.7606474 5.93909841 -8.7606474 5.93909841 -6.66796875 3.35546875 C-2.69362392 0 -2.69362392 0 0 0 Z " fill="#A0D774" transform="translate(121,83)"/>
<path d="M0 0 C3.96 0 7.92 0 12 0 C12 0.66 12 1.32 12 2 C9.5 3.625 9.5 3.625 7 5 C7 4.01 7 3.02 7 2 C4.69 2.33 2.38 2.66 0 3 C0 2.01 0 1.02 0 0 Z " fill="#63C172" transform="translate(162,283)"/>
<path d="M0 0 C0.66 0 1.32 0 2 0 C2 2.64 2 5.28 2 8 C0.02 8.99 0.02 8.99 -2 10 C-2.1953125 3.9453125 -2.1953125 3.9453125 -2 2 C-1.34 1.34 -0.68 0.68 0 0 Z " fill="#85E97C" transform="translate(132,185)"/>
<path d="M0 0 C0 3.90051386 -1.40060925 5.78062383 -3.375 9.125 C-4.00148437 10.20007813 -4.62796875 11.27515625 -5.2734375 12.3828125 C-7 15 -7 15 -9 16 C-7.28087301 9.34969294 -4.84639278 4.87776102 0 0 Z " fill="#A7C085" transform="translate(151,101)"/>
<path d="M0 0 C3.49355371 3.02774655 4.90106142 5.51266745 6 10 C6.125 12.875 6.125 12.875 6 15 C4.5 13.875 4.5 13.875 3 12 C2.8125 8.8125 2.8125 8.8125 3 6 C2.34 6 1.68 6 1 6 C0.67 4.02 0.34 2.04 0 0 Z " fill="#74B878" transform="translate(249,96)"/>
<path d="M0 0 C0.99 0.33 1.98 0.66 3 1 C-0.43361902 4.63559661 -3.7973607 7.36113346 -8 10 C-10 8 -10 8 -11 6 C-8.69 6 -6.38 6 -4 6 C-4 5.34 -4 4.68 -4 4 C-3.34 4 -2.68 4 -2 4 C-2 3.01 -2 2.02 -2 1 C-1.34 0.67 -0.68 0.34 0 0 Z " fill="#9BE56A" transform="translate(197,260)"/>
<path d="M0 0 C1.50433594 0.01353516 1.50433594 0.01353516 3.0390625 0.02734375 C3.80992187 0.03894531 4.58078125 0.05054688 5.375 0.0625 C4.385 1.5475 4.385 1.5475 3.375 3.0625 C-3.77393617 3.62987589 -3.77393617 3.62987589 -7.625 1.0625 C-4.98041621 -0.25979189 -2.94738699 -0.03427194 0 0 Z " fill="#9DCB7C" transform="translate(180.625,167.9375)"/>
<path d="M0 0 C3.10429856 0.49668777 5.11774653 0.29603768 8.125 -0.5 C8.455 0.16 8.785 0.82 9.125 1.5 C8.031875 1.809375 6.93875 2.11875 5.8125 2.4375 C3.57092006 3.08337897 1.3380649 3.7623117 -0.875 4.5 C-1.865 3.51 -2.855 2.52 -3.875 1.5 C-4.205 2.16 -4.535 2.82 -4.875 3.5 C-5.205 2.51 -5.535 1.52 -5.875 0.5 C-2.875 -0.5 -2.875 -0.5 0 0 Z " fill="#6ADB81" transform="translate(157.875,64.5)"/>
<path d="M0 0 C3.68007532 0.18098731 6.40147147 0.85636692 9.8125 2.1875 C6.83008453 2.96071882 3.83669525 3.59946203 0.8125 4.1875 C0.4825 3.5275 0.1525 2.8675 -0.1875 2.1875 C-2.21213255 1.53536708 -2.21213255 1.53536708 -4.1875 1.1875 C-3.1875 0.1875 -3.1875 0.1875 0 0 Z " fill="#70DD7A" transform="translate(188.1875,283.8125)"/>
<path d="M0 0 C0.99 0.495 0.99 0.495 2 1 C2 2.32 2 3.64 2 5 C3.98 5 5.96 5 8 5 C7.67 6.65 7.34 8.3 7 10 C4.13904359 8.7175023 1.88634082 7.54656011 0 5 C-0.1875 2.3125 -0.1875 2.3125 0 0 Z " fill="#86D870" transform="translate(118,179)"/>
<path d="M0 0 C0.33 0 0.66 0 1 0 C2.40540541 14.37837838 2.40540541 14.37837838 1 20 C0.34 20.33 -0.32 20.66 -1 21 C-0.67 14.07 -0.34 7.14 0 0 Z " fill="#6CB268" transform="translate(255,120)"/>
<path d="M0 0 C1.84790538 3.31016094 2.74541487 6.57173491 3.625 10.25 C4.01558594 11.86648437 4.01558594 11.86648437 4.4140625 13.515625 C4.60742188 14.33546875 4.80078125 15.1553125 5 16 C4.01 15.67 3.02 15.34 2 15 C0.00813631 9.86308839 -0.1921227 5.47549707 0 0 Z " fill="#6FC874" transform="translate(107,140)"/>
<path d="M0 0 C4.29 0 8.58 0 13 0 C13 0.33 13 0.66 13 1 C7.555 1.495 7.555 1.495 2 2 C2 2.66 2 3.32 2 4 C0.35 4.33 -1.3 4.66 -3 5 C-2.67 4.01 -2.34 3.02 -2 2 C-1.34 2 -0.68 2 0 2 C0 1.34 0 0.68 0 0 Z " fill="#62CF6E" transform="translate(171,103)"/>
<path d="M0 0 C-0.66 0 -1.32 0 -2 0 C-2.2475 0.94875 -2.495 1.8975 -2.75 2.875 C-4 6 -4 6 -6.125 7.375 C-6.74375 7.58125 -7.3625 7.7875 -8 8 C-7.7215625 6.824375 -7.7215625 6.824375 -7.4375 5.625 C-6.74037734 3.02910225 -6.74037734 3.02910225 -8 1 C-3.375 -1.125 -3.375 -1.125 0 0 Z " fill="#66DC7D" transform="translate(152,67)"/>
<path d="M0 0 C0.66 0 1.32 0 2 0 C2.55582752 1.95436127 3.09428713 3.91366982 3.625 5.875 C3.92664063 6.96554688 4.22828125 8.05609375 4.5390625 9.1796875 C4.69117187 10.11039063 4.84328125 11.04109375 5 12 C4.34 12.66 3.68 13.32 3 14 C0.96006486 9.07015675 -0.40652968 5.42039575 0 0 Z " fill="#71CC74" transform="translate(121,144)"/>
<path d="M0 0 C0.99 0.33 1.98 0.66 3 1 C3 1.99 3 2.98 3 4 C3.99 4.33 4.98 4.66 6 5 C5.67 6.65 5.34 8.3 5 10 C4.34 9.67 3.68 9.34 3 9 C3 8.01 3 7.02 3 6 C2.01 6 1.02 6 0 6 C-1 3 -1 3 0 0 Z " fill="#6FD56E" transform="translate(200,112)"/>
<path d="M0 0 C0.99 0.495 0.99 0.495 2 1 C2 2.32 2 3.64 2 5 C3.32 5.33 4.64 5.66 6 6 C6 7.98 6 9.96 6 12 C5.34 11.67 4.68 11.34 4 11 C4 10.01 4 9.02 4 8 C2.68 7.34 1.36 6.68 0 6 C0 4.02 0 2.04 0 0 Z " fill="#9AD36C" transform="translate(129,206)"/>
<path d="M0 0 C2.475 0.99 2.475 0.99 5 2 C5 4.97 5 7.94 5 11 C0 4.63636364 0 4.63636364 0 0 Z " fill="#A6CD77" transform="translate(124,198)"/>
<path d="M0 0 C1.65 0 3.3 0 5 0 C4.67 3.63 4.34 7.26 4 11 C1.6870518 8.6870518 1.50419025 7.52095125 0.875 4.375 C0.70742187 3.55773437 0.53984375 2.74046875 0.3671875 1.8984375 C0.24601562 1.27195313 0.12484375 0.64546875 0 0 Z " fill="#75D76C" transform="translate(114,168)"/>
<path d="M0 0 C0.66 0 1.32 0 2 0 C3.06671952 3.20015856 2.94845472 4.88544294 2.5625 8.1875 C2.46066406 9.08855469 2.35882813 9.98960937 2.25390625 10.91796875 C2.17011719 11.60503906 2.08632812 12.29210937 2 13 C1.34 13 0.68 13 0 13 C0 8.71 0 4.42 0 0 Z " fill="#65C772" transform="translate(141,125)"/>
<path d="M0 0 C0.33 0 0.66 0 1 0 C1.268125 1.093125 1.53625 2.18625 1.8125 3.3125 C2.87663739 6.61692663 3.34654664 7.94960422 6 10 C5.67 10.99 5.34 11.98 5 13 C1.97705165 10.36460913 0.20089247 8.73182256 -0.875 4.8125 C-1 2 -1 2 0 0 Z " fill="#90F185" transform="translate(168,291)"/>
<path d="M0 0 C1.9375 0.625 1.9375 0.625 4 2 C4.75 5.125 4.75 5.125 5 8 C4.34 8 3.68 8 3 8 C3 7.34 3 6.68 3 6 C2.34 6 1.68 6 1 6 C0.67 6.66 0.34 7.32 0 8 C-0.33 6.35 -0.66 4.7 -1 3 C-0.34 3 0.32 3 1 3 C0.67 2.01 0.34 1.02 0 0 Z " fill="#98E46E" transform="translate(153,227)"/>
<path d="M0 0 C0 0.99 0 1.98 0 3 C-2.27837542 5.27837542 -3.50812237 5.96646289 -6.75 6.1875 C-7.86375 6.0946875 -7.86375 6.0946875 -9 6 C-9.66 4.68 -10.32 3.36 -11 2 C-8.69 2.66 -6.38 3.32 -4 4 C-3.67 3.34 -3.34 2.68 -3 2 C-2.01 1.34 -1.02 0.68 0 0 Z " fill="#9AEC7B" transform="translate(203,158)"/>
<path d="M0 0 C0.93423645 3.01031744 1.04449911 3.86650268 0 7 C-2.4375 9.6875 -2.4375 9.6875 -5 12 C-5.66 12 -6.32 12 -7 12 C-6.690625 11.401875 -6.38125 10.80375 -6.0625 10.1875 C-4.89790296 7.91043228 -4.89790296 7.91043228 -4 5 C-3.01 4.34 -2.02 3.68 -1 3 C-0.67 2.01 -0.34 1.02 0 0 Z " fill="#70D779" transform="translate(214,144)"/>
<path d="M0 0 C0.33 0.66 0.66 1.32 1 2 C0.0625 4.625 0.0625 4.625 -1 7 C-1.66 7 -2.32 7 -3 7 C-3 8.98 -3 10.96 -3 13 C-3.33 13 -3.66 13 -4 13 C-4.63019694 4.80743982 -4.63019694 4.80743982 -2 1.4375 C-1.34 0.963125 -0.68 0.48875 0 0 Z " fill="#8ADA7B" transform="translate(110,105)"/>
<path d="M0 0 C2.97 1.98 2.97 1.98 6 4 C5.01 4.99 4.02 5.98 3 7 C2.01 6.67 1.02 6.34 0 6 C0 4.02 0 2.04 0 0 Z " fill="#96EA71" transform="translate(170,292)"/>
<path d="M0 0 C0.66 0 1.32 0 2 0 C3.62950412 4.12168689 4.26264601 6.70700357 3 11 C0.85279101 8.85279101 0.4565779 7.92209857 0 5 C0.33 4.34 0.66 3.68 1 3 C0.34 2.34 -0.32 1.68 -1 1 C-0.67 0.67 -0.34 0.34 0 0 Z " fill="#7DE47B" transform="translate(204,114)"/>
<path d="M0 0 C0.66 0.33 1.32 0.66 2 1 C1.67 2.32 1.34 3.64 1 5 C0.34 5 -0.32 5 -1 5 C-1 5.66 -1 6.32 -1 7 C-1.66 7 -2.32 7 -3 7 C-3.33 7.66 -3.66 8.32 -4 9 C-3.6875 5.625 -3.6875 5.625 -3 2 C-2.01 1.34 -1.02 0.68 0 0 Z " fill="#4FCA77" transform="translate(146,291)"/>
<path d="M0 0 C0.33 0 0.66 0 1 0 C1 2.64 1 5.28 1 8 C0.34 8 -0.32 8 -1 8 C-1.33 9.98 -1.66 11.96 -2 14 C-2.66 14 -3.32 14 -4 14 C-3.52188823 12.22888156 -3.0424722 10.45811517 -2.5625 8.6875 C-2.29566406 7.70136719 -2.02882812 6.71523437 -1.75390625 5.69921875 C-1.21920575 3.78482474 -0.62855462 1.88566385 0 0 Z " fill="#9CC88C" transform="translate(232,162)"/>
<path d="M0 0 C2.31 0.33 4.62 0.66 7 1 C7.66 2.65 8.32 4.3 9 6 C8.01 6.33 7.02 6.66 6 7 C5.67 5.35 5.34 3.7 5 2 C3.35 2 1.7 2 0 2 C0 1.34 0 0.68 0 0 Z " fill="#A7E078" transform="translate(195,95)"/>
<path d="M0 0 C0.66 0 1.32 0 2 0 C2.36402369 1.43503555 2.71586591 2.87316506 3.0625 4.3125 C3.25972656 5.11300781 3.45695313 5.91351563 3.66015625 6.73828125 C4 9 4 9 3 12 C-0.42857143 4.71428571 -0.42857143 4.71428571 0 0 Z " fill="#7CBA7F" transform="translate(141,138)"/>
<path d="M0 0 C0.33 1.32 0.66 2.64 1 4 C0.34 4 -0.32 4 -1 4 C-1 8.29 -1 12.58 -1 17 C-1.33 17 -1.66 17 -2 17 C-2 11.72 -2 6.44 -2 1 C-1.34 0.67 -0.68 0.34 0 0 Z " fill="#8EC786" transform="translate(142,121)"/>
<path d="M0 0 C-1.28813342 0.83878455 -2.58063256 1.67086783 -3.875 2.5 C-4.59429687 2.9640625 -5.31359375 3.428125 -6.0546875 3.90625 C-8 5 -8 5 -10 5 C-10 4.01 -10 3.02 -10 2 C-8.71211992 1.46987262 -7.41953322 0.9511671 -6.125 0.4375 C-5.40570313 0.14746094 -4.68640625 -0.14257812 -3.9453125 -0.44140625 C-2 -1 -2 -1 0 0 Z " fill="#73AE76" transform="translate(218,306)"/>
<path d="M0 0 C3.08089673 2.77280706 4.68775452 5.06326356 6 9 C3.525 8.01 3.525 8.01 1 7 C0.67 4.69 0.34 2.38 0 0 Z " fill="#A1CB7C" transform="translate(157,229)"/>
<path d="M0 0 C0.33 0 0.66 0 1 0 C1.16129032 9.67741935 1.16129032 9.67741935 -1 14 C-2 13 -2 13 -2.1875 9.8125 C-2.00651269 6.13242468 -1.33113308 3.41102853 0 0 Z " fill="#5FDA7B" transform="translate(111,104)"/>
<path d="M0 0 C2.475 0.495 2.475 0.495 5 1 C6.375 3.375 6.375 3.375 7 6 C6.67 6.99 6.34 7.98 6 9 C4.02 6.03 2.04 3.06 0 0 Z " fill="#A7C785" transform="translate(225,87)"/>
<path d="M0 0 C0.66 1.32 1.32 2.64 2 4 C-2.29 3.34 -6.58 2.68 -11 2 C-11 1.67 -11 1.34 -11 1 C-7.26513121 0.4254048 -3.78706732 0 0 0 Z " fill="#A1C788" transform="translate(196,65)"/>
<path d="M0 0 C0.763125 0.20625 1.52625 0.4125 2.3125 0.625 C1.6525 1.285 0.9925 1.945 0.3125 2.625 C-0.6775 2.625 -1.6675 2.625 -2.6875 2.625 C-2.6875 3.285 -2.6875 3.945 -2.6875 4.625 C-3.6775 4.625 -4.6675 4.625 -5.6875 4.625 C-5.6875 3.635 -5.6875 2.645 -5.6875 1.625 C-2.6875 -0.375 -2.6875 -0.375 0 0 Z " fill="#A3D47C" transform="translate(140.6875,61.375)"/>
<path d="M0 0 C2.0625 0.4375 2.0625 0.4375 4 1 C4 2.98 4 4.96 4 7 C3.01 6.67 2.02 6.34 1 6 C1 4.68 1 3.36 1 2 C0.34 1.67 -0.32 1.34 -1 1 C-0.67 0.67 -0.34 0.34 0 0 Z " fill="#74E382" transform="translate(146,144)"/>
<path d="M0 0 C1.99097846 2.98646769 2.94124926 5.59687262 4 9 C2.68 8.67 1.36 8.34 0 8 C0 5.36 0 2.72 0 0 Z " fill="#97CC7C" transform="translate(140,194)"/>
<path d="M0 0 C0.763125 0.309375 1.52625 0.61875 2.3125 0.9375 C4.18789677 1.67893593 6.08684652 2.36228217 8 3 C8 3.99 8 4.98 8 6 C2.33846154 4.52307692 2.33846154 4.52307692 0.625 1.875 C0.41875 1.25625 0.2125 0.6375 0 0 Z " fill="#7ECA76" transform="translate(147,153)"/>
<path d="M0 0 C1.48199902 0.44909061 2.96055236 0.90956564 4.4375 1.375 C5.26121094 1.63023438 6.08492187 1.88546875 6.93359375 2.1484375 C9 3 9 3 10 5 C6.28111761 4.49287967 3.26545761 3.88391785 0 2 C0 1.34 0 0.68 0 0 Z " fill="#ACC889" transform="translate(192,91)"/>
<path d="M0 0 C2.31 0.66 4.62 1.32 7 2 C7 2.99 7 3.98 7 5 C5.35 4.67 3.7 4.34 2 4 C2 3.34 2 2.68 2 2 C1.34 2 0.68 2 0 2 C0 1.34 0 0.68 0 0 Z " fill="#4FB283" transform="translate(152,308)"/>
<path d="M0 0 C0.66 0 1.32 0 2 0 C1.67 1.32 1.34 2.64 1 4 C2.32 4.33 3.64 4.66 5 5 C5 5.66 5 6.32 5 7 C3.35 6.67 1.7 6.34 0 6 C0 5.34 0 4.68 0 4 C-0.66 4 -1.32 4 -2 4 C-1.34 2.68 -0.68 1.36 0 0 Z " fill="#77E072" transform="translate(150,148)"/>
<path d="M0 0 C0.66 0 1.32 0 2 0 C2 2.64 2 5.28 2 8 C1.01 8 0.02 8 -1 8 C-0.67 5.36 -0.34 2.72 0 0 Z " fill="#6AD973" transform="translate(107,112)"/>
<path d="M0 0 C1.09658936 3.28976808 0.79953138 4.71303767 0 8 C-0.66 8 -1.32 8 -2 8 C-2.33 8.99 -2.66 9.98 -3 11 C-3.33 10.34 -3.66 9.68 -4 9 C-3.22265625 6.8359375 -3.22265625 6.8359375 -2.0625 4.375 C-1.68222656 3.55773437 -1.30195312 2.74046875 -0.91015625 1.8984375 C-0.60980469 1.27195312 -0.30945313 0.64546875 0 0 Z " fill="#AAC887" transform="translate(112,90)"/>
<path d="M0 0 C-1.33333333 0.66666667 -2.66666667 1.33333333 -4 2 C-4.680625 2.37125 -5.36125 2.7425 -6.0625 3.125 C-8 4 -8 4 -11 4 C-11 3.34 -11 2.68 -11 2 C-7.17010894 0.19769832 -4.21878192 -0.19622241 0 0 Z " fill="#81B78E" transform="translate(165,68)"/>
<path d="M0 0 C-0.33 0.99 -0.66 1.98 -1 3 C-2.84765625 3.73046875 -2.84765625 3.73046875 -5.0625 4.1875 C-5.79597656 4.34605469 -6.52945313 4.50460937 -7.28515625 4.66796875 C-8.13400391 4.83232422 -8.13400391 4.83232422 -9 5 C-9 4.34 -9 3.68 -9 3 C-2.25 0 -2.25 0 0 0 Z " fill="#66BF84" transform="translate(152,288)"/>
<path d="M0 0 C0.66 0.33 1.32 0.66 2 1 C0.68 3.64 -0.64 6.28 -2 9 C-2.33 9 -2.66 9 -3 9 C-3.26218749 5.85375007 -3.24754367 4.38162983 -1.5 1.6875 C-1.005 1.130625 -0.51 0.57375 0 0 Z " fill="#A7CF87" transform="translate(227,218)"/>
<path d="M0 0 C1.25541557 3.76624671 0.37061958 5.37188934 -1 9 C-2.1875 7.3125 -2.1875 7.3125 -3 5 C-1.625 2.25 -1.625 2.25 0 0 Z " fill="#9FD07E" transform="translate(246,173)"/>
<path d="M0 0 C0.6875 1.6875 0.6875 1.6875 1 4 C-1.26153846 8.63076923 -1.26153846 8.63076923 -4 10 C-2.8905928 6.51329166 -1.73662334 3.22515763 0 0 Z " fill="#76DA79" transform="translate(246,114)"/>
<path d="M0 0 C0.66 0.33 1.32 0.66 2 1 C2.625 4.0625 2.625 4.0625 3 7 C2.01 7 1.02 7 0 7 C-1.125 2.25 -1.125 2.25 0 0 Z " fill="#52DD77" transform="translate(130,79)"/>
</svg>
